<svg width="633" height="1186" viewBox="0 0 633 1186" fill="none" xmlns="http://www.w3.org/2000/svg">
<path d="M117.199 215.077V682.353H151.761V228.739L125.025 209.437L117.199 215.077ZM158.278 682.353H172.245V243.532L158.278 233.447V682.353ZM190.376 682.353H201.725V264.802L190.376 256.601V682.353ZM255.782 682.353H259.431V306.46L255.782 303.816V682.353ZM223.907 682.353H229.758V285.036L223.907 280.81V682.353ZM100.741 682.353H106.672V222.682L100.741 226.971V682.353ZM68.2112 682.353H77.6531V243.626L68.2112 250.459V682.353ZM0.0759888 682.353H22.676V283.321L0.0759888 299.629V682.353ZM35.8341 682.353H48.4642V264.697L35.8341 273.808V682.353Z" fill="#248BCB"/>
<path d="M117.199 332.908V1184.58H151.761V346.572L125.025 327.271L117.199 332.908ZM158.278 1184.58H172.245V361.354L158.278 351.281V1184.58ZM190.376 1184.58H201.725V382.625L190.376 374.443V1184.58ZM255.782 1184.58H259.431V424.275L255.782 421.63V1184.58ZM223.907 1184.58H229.758V402.86L223.907 398.642V1184.58ZM100.741 1184.58H106.672V340.506L100.741 344.786V1184.58ZM68.2112 1184.58H77.6531V361.44L68.2112 368.282V1184.58ZM0.0759888 1184.58H22.676V401.133L0.0759888 417.444V1184.58ZM35.8341 1184.58H48.4642V382.523L35.8341 391.633V1184.58Z" fill="#248BCB"/>
<path d="M259.43 1186H255.782V1184.58H259.43V465.443V1186Z" fill="#238BCB"/>
<path d="M259.43 1184.58H255.782V462.819L259.43 465.443V1184.58Z" fill="#0094D6"/>
<path d="M229.757 1186H223.907V1184.58H229.757V444.027V1186Z" fill="#238BCB"/>
<path d="M229.757 1184.58H223.907V439.81L229.757 444.027V1184.58Z" fill="#0094D6"/>
<path d="M201.725 1186H190.376V1184.58H201.725V423.793V1186Z" fill="#238BCB"/>
<path d="M201.725 1184.58H190.376V415.614L201.725 423.793V1184.58Z" fill="#0094D6"/>
<path d="M172.245 1186H158.278V1184.58H172.245V402.533V1186Z" fill="#238BCB"/>
<path d="M172.245 1184.58H158.278V392.45L172.245 402.533V1184.58Z" fill="#0094D6"/>
<path d="M151.761 1186H117.199V1184.58H151.761V387.742V1186Z" fill="#238BCB"/>
<path d="M151.761 1184.58H117.199V374.088L125.025 368.426L151.761 387.742V1184.58Z" fill="#0094D6"/>
<path d="M106.672 1186H100.741V1184.58H106.672V381.685V1186Z" fill="#238BCB"/>
<path d="M106.672 1184.58H100.741V385.965L106.672 381.685V1184.58Z" fill="#0094D6"/>
<path d="M77.6531 1186H68.2112V1184.58H77.6531V402.619V1186Z" fill="#238BCB"/>
<path d="M77.6531 1184.58H68.2112V409.45L77.6531 402.619V1184.58Z" fill="#0094D6"/>
<path d="M48.4642 1186H35.8341V1184.58H48.4642V423.699V1186Z" fill="#238BCB"/>
<path d="M48.4642 1184.58H35.8341V432.813L48.4642 423.699V1184.58Z" fill="#0094D6"/>
<path d="M22.675 1186H0.0759888V1184.58H22.675V442.322V1186Z" fill="#238BCB"/>
<path d="M22.675 1184.58H0.0759888V458.621L22.675 442.322V1184.58Z" fill="#0094D6"/>
<path d="M440.651 7.9558V639.854H487.4V26.4324L451.238 0.329956L440.651 7.9558ZM496.213 639.854H515.095V46.4252L496.213 32.7932V639.854ZM539.621 639.854H554.947V75.1841L539.621 64.1057V639.854ZM628.07 639.854H633V131.523L628.07 127.946V639.854ZM584.963 639.854H592.866V102.554L584.963 96.8416V639.854ZM418.401 639.854H426.424V18.2404L418.401 24.0254V639.854ZM374.398 639.854H387.18V46.5609L374.398 55.7983V639.854ZM282.267 639.854H312.818V100.232L282.267 122.285V639.854ZM330.615 639.854H347.69V75.0599L330.615 87.3737V639.854Z" fill="#248BCB"/>
<path d="M440.651 164.881V1181.18H487.4V183.357L451.238 157.254L440.651 164.881ZM496.213 1181.18H515.095V203.36L496.213 189.719V1181.18ZM539.621 1181.18H554.947V232.11L539.621 221.041V1181.18ZM628.07 1181.18H633V288.436L628.07 284.871V1181.18ZM584.963 1181.18H592.866V259.479L584.963 253.768V1181.18ZM418.401 1181.18H426.424V175.165L418.401 180.941V1181.18ZM374.398 1181.18H387.18V203.475L374.398 212.725V1181.18ZM282.267 1181.18H312.818V257.158L282.267 279.209V1181.18ZM330.615 1181.18H347.69V231.975L330.615 244.299V1181.18Z" fill="#248BCB"/>
<path d="M633 1186H628.07V1181.18H633V347.011V1186ZM592.866 1186H584.963V1181.18H592.866V318.051V1186ZM554.947 1186H539.621V1181.18H554.947V290.694V1186ZM515.096 1186H496.216V1181.18H515.096V261.923V1186ZM487.399 1186H440.65V1181.18H487.399V241.931V1186ZM426.424 1186H418.401V1181.18H426.424V233.739V1186ZM387.179 1186H374.397V1181.18H387.179V262.048V1186ZM347.69 1186H330.615V1181.18H347.69V290.547V1186ZM312.818 1186H282.267V1181.18H312.818V315.729V1186Z" fill="#238BCB"/>
<path d="M633 1181.18H628.07V343.455L633 347.011V1181.18ZM592.866 1181.18H584.963V312.351L592.866 318.051V1181.18ZM554.947 1181.18H539.621V279.625L554.947 290.694V1181.18ZM515.096 1181.18H496.216V248.292L515.096 261.923V1181.18ZM487.399 1181.18H440.65V223.455L451.236 215.817L487.398 241.93V1181.18H487.399ZM426.424 1181.18H418.401V239.524L426.424 233.739V1181.18ZM387.179 1181.18H374.397V271.297L387.179 262.048V1181.18ZM347.69 1181.18H330.615V302.885L347.69 290.548V1181.18ZM312.818 1181.18H282.267V337.784L312.818 315.729V1181.18Z" fill="#0094D6"/>
</svg>
