<?xml version="1.0" encoding="utf-8"?>
<!-- Generator: Adobe Illustrator 16.0.0, SVG Export Plug-In . SVG Version: 6.00 Build 0)  -->
<!DOCTYPE svg PUBLIC "-//W3C//DTD SVG 1.1//EN" "http://www.w3.org/Graphics/SVG/1.1/DTD/svg11.dtd">
<svg version="1.1" id="Layer_1" xmlns="http://www.w3.org/2000/svg" xmlns:xlink="http://www.w3.org/1999/xlink" x="0px" y="0px"
	 width="62.362px" height="62.362px" viewBox="0 0 62.362 62.362" enable-background="new 0 0 62.362 62.362" xml:space="preserve">
<path fill-rule="evenodd" clip-rule="evenodd" fill="#005BAB" d="M58.928,21.566c0.581,0.023,1.154-0.233,1.722-0.767
	c1.262-1.168,1.271-2.569,0.027-4.204c-0.373-0.49-0.81-0.727-1.308-0.708l-14.184,0.069l3.843-11.768
	c0.212-0.557,0.151-1.199-0.18-1.927c-0.716-1.615-2.066-2.091-4.053-1.428c-0.596,0.198-0.967,0.542-1.111,1.033l-4.676,14.121
	l-2.988,0.015c-2.619,0.004-5.098,0.043-7.462,0.112l3.895-11.925c0.211-0.556,0.151-1.199-0.181-1.927
	c-0.715-1.615-2.065-2.092-4.051-1.428c-0.597,0.198-0.967,0.542-1.112,1.032L22.3,16.388c-3.628,0.219-6.9,0.527-9.789,0.933
	l-4.865,0.374c-1.837,0.21-3.328,0.674-4.473,1.391c-0.285,0.165-0.448,0.521-0.492,1.071c-0.043,0.549,0.056,1.016,0.298,1.4
	c0.067,0.155,0.179,0.47,0.336,0.945c0.156,0.475,0.309,0.811,0.458,1.006c0.249,0.327,0.593,0.478,1.035,0.452l9.345-1.149
	l6.174-0.464l-0.737,2.227c-0.895,2.672-1.7,5.206-2.434,7.629c-2.357,0.191-4.556,0.423-6.557,0.704l-4.866,0.371
	c-1.836,0.212-3.329,0.676-4.473,1.393c-0.285,0.164-0.448,0.521-0.492,1.07c-0.043,0.549,0.056,1.016,0.297,1.4
	c0.067,0.155,0.179,0.47,0.335,0.944c0.156,0.476,0.309,0.81,0.458,1.007c0.25,0.326,0.594,0.478,1.036,0.451l9.345-1.15
	l3.207-0.241c-0.957,3.543-1.717,6.779-2.262,9.682l-1.229,4.848c-0.397,1.854-0.436,3.456-0.118,4.807
	c0.067,0.331,0.357,0.608,0.875,0.834c0.517,0.225,1,0.283,1.45,0.178c0.172-0.013,0.513-0.017,1.023-0.01
	c0.51,0.006,0.884-0.03,1.122-0.11c0.397-0.133,0.655-0.417,0.774-0.854l1.943-9.455l2.649-10.387l3.212-0.241l7.344-0.066
	c-1.061,3.854-1.884,7.342-2.47,10.458l-1.23,4.847c-0.396,1.854-0.435,3.456-0.116,4.808c0.066,0.331,0.357,0.608,0.874,0.833
	c0.516,0.226,1,0.284,1.45,0.179c0.172-0.014,0.513-0.017,1.022-0.01c0.51,0.006,0.884-0.03,1.122-0.111
	c0.397-0.132,0.656-0.416,0.774-0.854l1.943-9.455l2.741-10.75l18.674-0.169c0.581,0.022,1.154-0.233,1.721-0.768
	c1.263-1.168,1.272-2.568,0.027-4.203c-0.372-0.49-0.809-0.726-1.307-0.709l-17.364,0.086l3.216-9.848L58.928,21.566z
	 M36.166,24.571c-0.818,2.445-1.565,4.779-2.25,7.015c-3.762,0.009-7.25,0.086-10.484,0.229l3.249-9.947l0.12-0.009l10.296-0.094
	L36.166,24.571z"/>
</svg>
