<?xml version="1.0" encoding="utf-8"?>
<!-- Generator: Adobe Illustrator 16.0.0, SVG Export Plug-In . SVG Version: 6.00 Build 0)  -->
<!DOCTYPE svg PUBLIC "-//W3C//DTD SVG 1.1//EN" "http://www.w3.org/Graphics/SVG/1.1/DTD/svg11.dtd">
<svg version="1.1" id="Layer_1" xmlns="http://www.w3.org/2000/svg" xmlns:xlink="http://www.w3.org/1999/xlink" x="0px" y="0px"
	 width="85.04px" height="85.039px" viewBox="0 0 85.04 85.039" enable-background="new 0 0 85.04 85.039" xml:space="preserve">
<path fill="#FFFF" d="M63.662,32.178l2.027-5.3l-8.02,3.631l-1.342,3.471l-14.897,6.773l0,0c-0.632,0.163-1.097,0.729-1.097,1.411
	c0,0.805,0.655,1.455,1.459,1.455c0.479,0,0.9-0.23,1.167-0.584l14.384-6.565l3.918,1.319l7.605-3.613L63.662,32.178L63.662,32.178z
	"/>
<path fill="#FFFF" d="M44.708,45.26c-0.755,0.67-1.757,1.076-2.854,1.076c-2.38,0-4.306-1.914-4.306-4.275
	c0-2.184,1.65-3.987,3.776-4.246l4.073-1.9c-1.045-0.597-2.253-0.936-3.541-0.936c-3.94,0-7.132,3.169-7.132,7.083
	c0,3.911,3.191,7.083,7.132,7.083c3.434,0,6.301-2.416,6.975-5.631L44.708,45.26L44.708,45.26z"/>
<path fill="#FFFF" d="M53.197,41.657c0.004,0.133,0.01,0.268,0.01,0.405c0,6.229-5.078,11.282-11.348,11.282
	c-6.272,0-11.354-5.053-11.354-11.282c0-6.231,5.082-11.283,11.354-11.283c3.062,0,5.836,1.207,7.881,3.169l3.98-1.801
	c-2.844-3.358-7.102-5.495-11.861-5.495c-8.565,0-15.505,6.899-15.505,15.409s6.939,15.408,15.505,15.408
	c8.559,0,15.5-6.898,15.5-15.408c0-0.739-0.057-1.464-0.158-2.175L53.197,41.657L53.197,41.657z"/>
<path fill="#FFFF" d="M61.675,40.638c0.033,0.472,0.051,0.943,0.051,1.424c0,10.907-8.895,19.751-19.871,19.751
	c-10.978,0-19.874-8.844-19.874-19.751c0-10.91,8.896-19.751,19.874-19.751c5.605,0,10.67,2.305,14.283,6.017l4.053-1.873
	c-4.424-5.134-10.996-8.39-18.336-8.39c-13.335,0-24.144,10.745-24.144,23.998c0,13.251,10.809,23.997,24.144,23.997
	c13.336,0,24.143-10.746,24.143-23.997c0-1.104-0.074-2.191-0.225-3.254L61.675,40.638L61.675,40.638z"/>
<path fill="#FFFF" d="M41.781,4.398c-20.772,0-37.667,16.895-37.667,37.666c0,20.766,16.895,37.663,37.667,37.663
	c20.77,0,37.662-16.896,37.662-37.663C79.443,21.293,62.55,4.398,41.781,4.398L41.781,4.398z M41.781,83.838
	C18.742,83.838,0,65.096,0,42.062C0,19.025,18.742,0.284,41.781,0.284c23.035,0,41.775,18.742,41.775,41.779
	C83.556,65.096,64.816,83.838,41.781,83.838L41.781,83.838z"/>
<path fill="#FFFF" d="M41.781,70.85c-15.878,0-28.792-12.914-28.792-28.786c0-15.878,12.914-28.792,28.792-28.792
	c9.441,0,17.807,4.589,23.059,11.63l3.332-1.137l-0.777,5.225c0.461,0.898,0.871,1.824,1.238,2.775l4.18,1.637l-3.012,2.16
	c0.482,2.091,0.77,4.266,0.77,6.504C70.57,57.936,57.654,70.85,41.781,70.85L41.781,70.85z M41.781,9.163
	c-18.144,0-32.903,14.755-32.903,32.901c0,18.139,14.759,32.899,32.903,32.899c18.143,0,32.902-14.76,32.902-32.899
	C74.681,23.918,59.923,9.163,41.781,9.163L41.781,9.163z"/>
</svg>
