<?xml version="1.0" encoding="utf-8"?>
<!-- Generator: Adobe Illustrator 16.0.0, SVG Export Plug-In . SVG Version: 6.00 Build 0)  -->
<!DOCTYPE svg PUBLIC "-//W3C//DTD SVG 1.1//EN" "http://www.w3.org/Graphics/SVG/1.1/DTD/svg11.dtd">
<svg version="1.1" id="Layer_1" xmlns="http://www.w3.org/2000/svg" xmlns:xlink="http://www.w3.org/1999/xlink" x="0px" y="0px"
	 width="79.37px" height="85.04px" viewBox="0 0 79.37 85.04" enable-background="new 0 0 79.37 85.04" xml:space="preserve">
<path fill="#095EAA" d="M39.431,84.335c-5.947,0-11.887-1.366-17.37-4.091c-4.177-2.08-7.901-4.841-11.072-8.21
	c-0.482-0.515-0.457-1.323,0.056-1.808c0.516-0.482,1.323-0.457,1.809,0.057c2.958,3.148,6.438,5.73,10.344,7.672
	c9.785,4.865,21.138,5.1,31.126,0.643c0.646-0.287,1.402,0.004,1.688,0.646c0.288,0.645-0.002,1.401-0.646,1.688
	C50.272,83.203,44.848,84.335,39.431,84.335z M35.554,76.209c-0.053,0-0.107-0.002-0.163-0.01c-3.489-0.446-6.873-1.482-10.049-3.08
	c-2.331-1.17-4.505-2.627-6.463-4.326c-0.532-0.462-0.589-1.27-0.126-1.803c0.462-0.531,1.268-0.59,1.804-0.126
	c1.795,1.56,3.793,2.897,5.933,3.973c2.918,1.467,6.023,2.418,9.224,2.827c0.701,0.09,1.196,0.73,1.107,1.43
	C36.737,75.738,36.187,76.209,35.554,76.209z M77.46,69.699c-0.043,0-0.089-0.002-0.135-0.008
	c-0.655-0.07-16.202-1.779-26.115-7.536l0,0c-11.748-6.817-12.096-11.899-10.321-14.962c1.782-3.061,6.362-5.282,18.113,1.541
	c9.914,5.754,19.108,18.401,19.495,18.938c0.295,0.406,0.322,0.951,0.07,1.389C78.336,69.461,77.913,69.699,77.46,69.699z
	 M52.495,59.945c6.894,4.002,17.023,5.992,22.046,6.782c-3.177-3.971-9.927-11.78-16.822-15.78
	c-7.737-4.492-12.93-5.371-14.612-2.469C41.419,51.382,44.757,55.454,52.495,59.945L52.495,59.945z M1.277,69.453
	c-0.456,0-0.881-0.243-1.109-0.645c-0.25-0.439-0.22-0.982,0.08-1.389c0.389-0.533,9.672-13.117,19.626-18.803l0,0
	c11.796-6.738,16.366-4.486,18.117-1.415c0.845,1.476,1.416,3.888-0.669,6.98c-1.7,2.524-4.979,5.183-9.751,7.909
	c-9.956,5.684-25.511,7.287-26.167,7.354C1.361,69.451,1.319,69.453,1.277,69.453z M32.254,46.768c-2.606,0-6.382,1.368-11.113,4.07
	l0,0C14.22,54.79,7.413,62.551,4.209,66.499c5.028-0.755,15.171-2.675,22.093-6.628c4.427-2.529,7.421-4.924,8.899-7.116
	c1.097-1.63,1.284-3.031,0.57-4.284C35.121,47.332,33.929,46.768,32.254,46.768z M74.864,59.682c-0.148,0-0.297-0.025-0.443-0.08
	c-0.662-0.244-1.002-0.98-0.757-1.644c1.503-4.05,2.263-8.316,2.263-12.679c0-10.929-4.838-21.19-13.278-28.155
	c-0.542-0.448-0.62-1.253-0.171-1.8c0.447-0.542,1.255-0.622,1.799-0.17c9.029,7.451,14.207,18.432,14.207,30.125
	c0,4.668-0.814,9.23-2.422,13.567C75.872,59.363,75.385,59.682,74.864,59.682z M68.448,54.049c-0.104,0-0.211-0.012-0.316-0.041
	c-0.685-0.174-1.098-0.869-0.924-1.553c0.586-2.308,0.886-4.689,0.886-7.086c0-3.264-0.544-6.465-1.617-9.511
	c-0.235-0.666,0.114-1.396,0.779-1.63c0.663-0.239,1.395,0.114,1.63,0.78c1.172,3.318,1.765,6.804,1.765,10.359
	c0,2.609-0.324,5.206-0.964,7.717C69.538,53.666,69.019,54.049,68.448,54.049z M39.439,44.001c-3.538,0-7.76-2.85-7.76-16.432
	c0-11.464,6.323-25.766,6.592-26.369c0.412-0.922,1.924-0.922,2.335,0C40.877,1.803,47.2,16.106,47.2,27.569
	C47.202,41.152,42.982,44.001,39.439,44.001z M39.439,5.096c-1.836,4.742-5.201,14.502-5.201,22.473
	c0,8.947,1.848,13.875,5.201,13.875c3.358,0,5.208-4.928,5.208-13.875C44.647,19.601,41.28,9.838,39.439,5.096z M1.954,41.988
	c-0.052,0-0.105-0.003-0.157-0.011c-0.701-0.086-1.199-0.724-1.114-1.425c1.425-11.619,7.896-21.892,17.753-28.181
	c3.931-2.51,8.218-4.28,12.739-5.258c0.693-0.148,1.37,0.29,1.52,0.98c0.15,0.689-0.29,1.371-0.98,1.52
	c-4.223,0.913-8.229,2.567-11.904,4.915C10.597,20.405,4.551,30.006,3.216,40.866C3.14,41.513,2.591,41.988,1.954,41.988z
	 M15.841,28.19c-0.273,0-0.546-0.088-0.78-0.267c-0.559-0.432-0.661-1.235-0.229-1.794c2.153-2.784,4.759-5.176,7.745-7.104
	c2.189-1.416,4.547-2.554,7.001-3.381c0.673-0.23,1.395,0.135,1.619,0.805c0.225,0.67-0.135,1.393-0.806,1.619
	c-2.253,0.757-4.417,1.802-6.429,3.104c-2.745,1.772-5.136,3.967-7.112,6.521C16.603,28.019,16.224,28.19,15.841,28.19z"/>
</svg>
