<?xml version="1.0" encoding="utf-8"?>
<!-- Generator: Adobe Illustrator 16.0.0, SVG Export Plug-In . SVG Version: 6.00 Build 0)  -->
<!DOCTYPE svg PUBLIC "-//W3C//DTD SVG 1.1//EN" "http://www.w3.org/Graphics/SVG/1.1/DTD/svg11.dtd">
<svg version="1.1" id="Layer_1" xmlns="http://www.w3.org/2000/svg" xmlns:xlink="http://www.w3.org/1999/xlink" x="0px" y="0px"
	 width="79.37px" height="68.031px" viewBox="0 0 79.37 68.031" enable-background="new 0 0 79.37 68.031" xml:space="preserve">
<path fill="#095EAA" d="M19.767,33.7c-1.84,0-3.334,1.495-3.334,3.338c0,1.838,1.494,3.331,3.334,3.331
	c1.841,0,3.337-1.493,3.337-3.331C23.104,35.194,21.608,33.7,19.767,33.7L19.767,33.7z"/>
<path fill="#095EAA" d="M33.031,33.7c-1.839,0-3.334,1.495-3.334,3.338c0,1.838,1.495,3.331,3.334,3.331s3.335-1.493,3.335-3.331
	C36.366,35.194,34.871,33.7,33.031,33.7L33.031,33.7z"/>
<path fill="#095EAA" d="M46.292,33.7c-1.838,0-3.333,1.495-3.333,3.338c0,1.838,1.495,3.331,3.333,3.331
	c1.839,0,3.337-1.493,3.337-3.331C49.627,35.194,48.131,33.7,46.292,33.7L46.292,33.7z"/>
<path fill="#095EAA" d="M59.557,33.7c-1.841,0-3.337,1.495-3.337,3.338c0,1.838,1.496,3.331,3.337,3.331
	c1.837,0,3.335-1.493,3.335-3.331C62.892,35.194,61.394,33.7,59.557,33.7L59.557,33.7z"/>
<path fill="#095EAA" d="M3.335,4.834h72.65v47.753H3.335V4.834L3.335,4.834z M77.654,55.92c0.92,0,1.668-0.746,1.668-1.662V3.163
	c0-0.92-0.748-1.666-1.668-1.666H1.668C0.746,1.497,0,2.242,0,3.163v51.095c0,0.916,0.746,1.662,1.668,1.662h24.397v7.926H1.668
	C0.746,63.846,0,64.59,0,65.512s0.746,1.67,1.668,1.67h26.064c0.925,0,1.67-0.748,1.67-1.67V55.92h8.593v9.592
	c0,0.922,0.746,1.67,1.667,1.67c0.922,0,1.668-0.748,1.668-1.67V55.92h8.593v9.592c0,0.922,0.746,1.67,1.666,1.67h26.066
	c0.921,0,1.668-0.748,1.668-1.67s-0.747-1.666-1.668-1.666H53.26V55.92H77.654L77.654,55.92z"/>
<path fill="#095EAA" d="M68.574,45.173H10.75V12.249h57.824V45.173L68.574,45.173z M71.909,46.844V10.578
	c0-0.921-0.748-1.667-1.67-1.667H9.08c-0.921,0-1.667,0.746-1.667,1.667v36.266c0,0.92,0.746,1.666,1.667,1.666h61.16
	C71.161,48.51,71.909,47.764,71.909,46.844L71.909,46.844z"/>
<path fill="#095EAA" d="M17.966,29.634h3.605c0.92,0,1.668-0.745,1.668-1.666c0-0.921-0.748-1.67-1.668-1.67h-0.136v-7.634
	c0-0.919-0.748-1.667-1.669-1.667c-0.92,0-1.667,0.747-1.667,1.667v7.634h-0.133c-0.921,0-1.67,0.749-1.67,1.67
	C16.296,28.889,17.045,29.634,17.966,29.634L17.966,29.634z"/>
<path fill="#095EAA" d="M31.225,29.634h3.606c0.921,0,1.669-0.745,1.669-1.666c0-0.921-0.748-1.67-1.669-1.67h-0.134v-7.634
	c0-0.919-0.745-1.667-1.667-1.667c-0.92,0-1.668,0.747-1.668,1.667v7.634h-0.136c-0.919,0-1.667,0.749-1.667,1.67
	C29.56,28.889,30.306,29.634,31.225,29.634L31.225,29.634z"/>
<path fill="#095EAA" d="M44.491,29.634h3.605c0.921,0,1.667-0.745,1.667-1.666c0-0.921-0.746-1.67-1.667-1.67h-0.136v-7.634
	c0-0.919-0.748-1.667-1.669-1.667c-0.92,0-1.668,0.747-1.668,1.667v7.634h-0.133c-0.921,0-1.669,0.749-1.669,1.67
	C42.822,28.889,43.568,29.634,44.491,29.634L44.491,29.634z"/>
<path fill="#095EAA" d="M57.752,29.634h3.605c0.921,0,1.668-0.745,1.668-1.666c0-0.921-0.747-1.67-1.668-1.67h-0.133v-7.634
	c0-0.919-0.746-1.667-1.666-1.667c-0.922,0-1.671,0.747-1.671,1.667v7.634h-0.135c-0.92,0-1.668,0.749-1.668,1.67
	C56.085,28.889,56.831,29.634,57.752,29.634L57.752,29.634z"/>
</svg>
