<?xml version="1.0" encoding="utf-8"?>
<!-- Generator: Adobe Illustrator 16.0.0, SVG Export Plug-In . SVG Version: 6.00 Build 0)  -->
<!DOCTYPE svg PUBLIC "-//W3C//DTD SVG 1.1//EN" "http://www.w3.org/Graphics/SVG/1.1/DTD/svg11.dtd">
<svg version="1.1" id="Layer_1" xmlns="http://www.w3.org/2000/svg" xmlns:xlink="http://www.w3.org/1999/xlink" x="0px" y="0px"
	 width="83.905px" height="76.535px" viewBox="0 0 83.905 76.535" enable-background="new 0 0 83.905 76.535" xml:space="preserve">
<path fill="#095EAA" d="M61.458,66.607c-5.776,3.92-12.523,5.995-19.517,5.995c-6.99,0-13.737-2.075-19.516-5.995
	c-0.899-0.609-2.121-0.377-2.734,0.523c-0.608,0.896-0.375,2.121,0.523,2.732c6.433,4.367,13.945,6.672,21.726,6.672
	c7.782,0,15.296-2.305,21.726-6.672c0.897-0.608,1.131-1.836,0.522-2.732C63.579,66.23,62.354,65.995,61.458,66.607L61.458,66.607z"
	/>
<path fill="#095EAA" d="M24.549,58.726c-0.634,0.885-0.428,2.112,0.454,2.745c4.976,3.561,10.832,5.446,16.94,5.446
	c6.106,0,11.963-1.886,16.94-5.446c0.883-0.632,1.085-1.86,0.454-2.745c-0.636-0.886-1.862-1.089-2.748-0.454
	c-4.3,3.086-9.363,4.711-14.646,4.711c-5.28,0-10.346-1.625-14.645-4.711C26.411,57.639,25.181,57.842,24.549,58.726L24.549,58.726z
	"/>
<path fill="#095EAA" d="M41.941,57.301c4.475,0,8.69-1.478,12.183-4.271c0.847-0.678,0.989-1.916,0.309-2.767
	c-0.679-0.848-1.912-0.983-2.762-0.306c-2.791,2.229-6.156,3.408-9.73,3.408c-3.573,0-6.935-1.18-9.729-3.408
	c-0.847-0.678-2.086-0.539-2.763,0.306c-0.681,0.851-0.542,2.089,0.307,2.767C33.253,55.823,37.469,57.301,41.941,57.301
	L41.941,57.301z"/>
<path fill="#095EAA" d="M20.105,9.056H13.93c-1.088,0-1.963,0.882-1.963,1.967c0,1.087,0.877,1.968,1.963,1.968h6.175
	c1.085,0,1.968-0.881,1.968-1.968C22.074,9.937,21.191,9.056,20.105,9.056L20.105,9.056z"/>
<path fill="#095EAA" d="M76.192,36.75h-1.826v-1.196c0-4.459-3.627-8.086-8.09-8.086H17.605c-4.458,0-8.087,3.626-8.087,8.086v1.196
	H7.693c-2.21-4.568-3.452-9.448-3.708-14.527h75.918C79.647,27.303,78.404,32.18,76.192,36.75L76.192,36.75z M70.433,36.75H59.02
	v-5.345h7.257c2.295,0,4.156,1.863,4.156,4.151V36.75L70.433,36.75z M24.866,36.75H13.455v-1.196c0-2.288,1.862-4.151,4.151-4.151
	h7.261V36.75L24.866,36.75z M39.976,36.75H28.803v-5.345h11.173V36.75L39.976,36.75z M55.083,31.403v5.345H43.909v-5.345H55.083
	L55.083,31.403z M7.691,3.761h68.501c2.212,4.568,3.453,9.448,3.707,14.526H3.982C4.24,13.207,5.481,8.329,7.691,3.761L7.691,3.761z
	 M79.153,0.883c-0.344-0.647-1.01-1.058-1.748-1.058H6.48c-0.734,0-1.409,0.408-1.748,1.058C1.635,6.819,0,13.517,0,20.255
	c0,6.737,1.637,13.434,4.732,19.373c0.339,0.647,1.013,1.058,1.748,1.058h70.925c0.738,0,1.404-0.411,1.748-1.058
	c3.097-5.939,4.736-12.636,4.736-19.373C83.89,13.515,82.248,6.817,79.153,0.883L79.153,0.883z"/>
</svg>
