<?xml version="1.0" encoding="utf-8"?>
<!-- Generator: Adobe Illustrator 16.0.0, SVG Export Plug-In . SVG Version: 6.00 Build 0)  -->
<!DOCTYPE svg PUBLIC "-//W3C//DTD SVG 1.1//EN" "http://www.w3.org/Graphics/SVG/1.1/DTD/svg11.dtd">
<svg version="1.1" id="Layer_1" xmlns="http://www.w3.org/2000/svg" xmlns:xlink="http://www.w3.org/1999/xlink" x="0px" y="0px"
	 width="76.536px" height="85.039px" viewBox="0 0 76.536 85.039" enable-background="new 0 0 76.536 85.039" xml:space="preserve">
<path fill="#095EAA" d="M44.358,42.485H30.701c-0.679,0-1.221-0.546-1.221-1.223c0-0.675,0.542-1.227,1.221-1.227h13.657
	c0.675,0,1.22,0.551,1.22,1.227C45.578,41.939,45.033,42.485,44.358,42.485L44.358,42.485z"/>
<path fill="#095EAA" d="M44.358,46.478H30.701c-0.679,0-1.221-0.546-1.221-1.226c0-0.674,0.542-1.223,1.221-1.223h13.657
	c0.675,0,1.22,0.549,1.22,1.223C45.578,45.932,45.033,46.478,44.358,46.478L44.358,46.478z"/>
<path fill="#095EAA" d="M37.527,51.359c-3.35,0-5.112-1.508-5.302-1.684l-2.38-2.326c-0.234-0.23-0.363-0.547-0.363-0.872v-5.374
	c0-0.677,0.545-1.223,1.22-1.223c0.677,0,1.224,0.546,1.224,1.223v4.859l1.977,1.938l0,0c0.005,0,1.214,1.016,3.627,1.016
	c2.415,0,3.625-1.016,3.676-1.059l1.932-1.898v-4.86c0-0.672,0.546-1.223,1.222-1.223c0.675,0,1.221,0.551,1.221,1.223v5.374
	c0,0.33-0.132,0.643-0.365,0.873l-2.343,2.297C42.644,49.852,40.88,51.359,37.527,51.359L37.527,51.359z"/>
<path fill="#095EAA" d="M31.959,39.881h11.137c0.01-0.199,0.032-0.392,0.069-0.552c0.01-0.054,0.023-0.174,0.039-0.323
	c0.139-1.102,0.459-3.689,1.805-5.286c4.582-5.11,4.198-8.534,4.195-8.563c-0.008-0.055-0.017-0.125-0.017-0.179
	c0-6.428-5.23-11.667-11.661-11.675c-6.427,0.007-11.659,5.247-11.659,11.675c0,0.064-0.005,0.129-0.016,0.198
	c-0.002,0.015-0.385,3.438,4.169,8.518c1.369,1.624,1.691,4.208,1.83,5.31c0.017,0.147,0.029,0.269,0.044,0.336
	C31.932,39.5,31.949,39.686,31.959,39.881L31.959,39.881z M44.38,42.327c-0.005,0.003-0.015,0-0.022,0H30.701
	c-0.344,0-0.671-0.146-0.902-0.401c-0.232-0.252-0.348-0.594-0.313-0.937c0.04-0.437,0.049-0.971,0.021-1.124
	c-0.021-0.095-0.048-0.292-0.084-0.558c-0.108-0.889-0.368-2.968-1.244-4.008c-4.955-5.525-4.833-9.61-4.758-10.389
	c0.04-7.744,6.351-14.036,14.105-14.048c7.754,0.013,14.069,6.304,14.105,14.048c0.075,0.774,0.198,4.863-4.778,10.416
	c-0.855,1.012-1.112,3.095-1.223,3.985c-0.032,0.261-0.06,0.454-0.084,0.558c-0.021,0.124-0.019,0.521,0.009,0.895
	c0.028,0.106,0.047,0.222,0.047,0.339C45.602,41.779,45.055,42.327,44.38,42.327L44.38,42.327z"/>
<path fill="#095EAA" d="M29.064,26.393c-0.676,0-1.222-0.546-1.222-1.221c0-5.34,4.346-9.685,9.687-9.685
	c0.676,0,1.223,0.546,1.223,1.221s-0.547,1.224-1.223,1.224c-3.994,0-7.242,3.25-7.242,7.24
	C30.286,25.847,29.739,26.393,29.064,26.393L29.064,26.393z"/>
<path fill="#095EAA" d="M38.023,9.338c-0.674,0-1.22-0.544-1.22-1.219V2.353c0-0.675,0.546-1.22,1.22-1.22
	c0.678,0,1.219,0.545,1.219,1.22v5.766C39.249,8.794,38.702,9.338,38.023,9.338L38.023,9.338z"/>
<path fill="#095EAA" d="M49.671,14.293c-0.311,0-0.623-0.122-0.861-0.361c-0.479-0.477-0.479-1.25,0-1.728l4.075-4.078
	c0.479-0.474,1.252-0.474,1.728,0c0.478,0.477,0.478,1.251,0,1.729l-4.075,4.077C50.297,14.168,49.984,14.293,49.671,14.293
	L49.671,14.293z"/>
<path fill="#095EAA" d="M60.173,26.029h-5.763c-0.679,0-1.224-0.55-1.224-1.225c0-0.67,0.545-1.221,1.224-1.221h5.763
	c0.675,0,1.224,0.55,1.224,1.221C61.397,25.479,60.848,26.029,60.173,26.029L60.173,26.029z"/>
<path fill="#095EAA" d="M53.537,41.764c-0.312,0-0.625-0.118-0.866-0.356l-4.075-4.081c-0.479-0.479-0.479-1.253,0-1.73
	c0.477-0.479,1.252-0.479,1.729,0l4.075,4.08c0.478,0.478,0.478,1.252,0,1.731C54.161,41.646,53.849,41.764,53.537,41.764
	L53.537,41.764z"/>
<path fill="#095EAA" d="M21.997,41.556c-0.312,0-0.625-0.122-0.861-0.362c-0.479-0.474-0.479-1.253,0-1.732l4.076-4.08
	c0.476-0.479,1.249-0.479,1.728,0c0.476,0.479,0.476,1.252,0,1.73l-4.075,4.082C22.623,41.435,22.31,41.556,21.997,41.556
	L21.997,41.556z"/>
<path fill="#095EAA" d="M21.336,25.727h-5.764c-0.677,0-1.221-0.544-1.221-1.221c0-0.675,0.544-1.221,1.221-1.221h5.764
	c0.675,0,1.221,0.546,1.221,1.221C22.557,25.183,22.008,25.727,21.336,25.727L21.336,25.727z"/>
<path fill="#095EAA" d="M26.283,14.076c-0.312,0-0.623-0.117-0.861-0.359l-4.075-4.076c-0.477-0.478-0.477-1.25,0-1.728
	c0.479-0.478,1.252-0.478,1.729,0l4.075,4.075c0.479,0.479,0.479,1.254,0,1.729C26.91,13.959,26.599,14.076,26.283,14.076
	L26.283,14.076z"/>
<path fill="#095EAA" d="M75.349,85.039l-14.88-0.838l-4.525-16.387c-0.05-0.174-0.209-0.291-0.39-0.291
	c-0.262,0.035-0.407,0.207-0.401,0.412l0.425,15.818L42.3,84.043l-2.158-20.375l0.584-0.301c1.749-0.908,2.639-2.809,2.639-5.646
	c0-1.428-0.493-2.82-1.388-3.928l-0.729-0.895l1.014-0.557c0.526-0.285,1.038-0.613,1.519-0.979c2.157-1.617,3.044-3.01,3.41-3.893
	l0.26-0.631l0.68,0.039c3.905,0.205,13.528,1.285,18.57,6.844c6.263,6.91,8.429,26.98,8.449,27.186L75.349,85.039z M61.957,82.355
	l11.362,0.637l-0.09-1.939c-0.019-0.141-2.233-19.725-7.958-26.035c-4.383-4.836-13.142-5.932-16.602-6.18
	c-0.575,1.076-1.666,2.516-3.734,4.064c-0.269,0.205-0.545,0.395-0.828,0.58c0.768,1.27,1.182,2.74,1.182,4.238
	c0,3.994-1.573,6.008-3.102,7.02l1.84,17.338l9.569-0.209L53.22,67.99c-0.033-1.176,0.822-2.195,1.986-2.369
	c1.288-0.182,2.279,0.568,2.591,1.682L61.957,82.355z M13.551,84.318L0,84.01l0.149-3.129c0.253-2.184,2.552-20.652,8.45-27.158
	c5.04-5.559,14.664-6.639,18.568-6.844l0.683-0.039l0.259,0.631c0.364,0.883,1.253,2.275,3.409,3.893
	c0.278,0.209,0.566,0.406,0.855,0.59l0.988,0.627l-0.805,0.85c-1.102,1.164-1.706,2.688-1.706,4.291c0,2.781,0.83,4.65,2.468,5.564
	l0.532,0.295l-1.325,20.588l-13.961-0.035l0.578-14.727c0.006-0.199-0.135-0.375-0.331-0.412c-0.217-0.004-0.398,0.109-0.455,0.277
	L13.551,84.318z M2.02,82.125l10.132,0.236l4.374-13.678c0.351-1.092,1.458-1.764,2.615-1.586c1.153,0.203,1.979,1.232,1.935,2.389
	l-0.502,12.729l10.148,0.021l1.131-17.594c-1.943-1.346-2.928-3.67-2.928-6.92c0-1.723,0.533-3.377,1.521-4.75
	c-0.031-0.023-0.057-0.043-0.084-0.066c-2.066-1.551-3.157-2.986-3.734-4.064c-3.456,0.248-12.218,1.344-16.6,6.18
	c-4.462,4.922-7.1,18.65-7.954,25.984L2.02,82.125z"/>
<path fill="#095EAA" d="M35.965,53.051c0,0-2.864,1.957-2.795,4.332c0.07,2.377,0.488,3.006,1.398,3.422
	c0.908,0.424,1.746,0.562,1.746,0.562l-1.573,23.127l5.487-0.479l-2.307-22.441c0,0,1.679-0.488,2.307-3.004
	c0.627-2.514,0.277-5.098-1.259-5.52C37.436,52.633,35.965,53.051,35.965,53.051L35.965,53.051z"/>
</svg>
