<?xml version="1.0" encoding="utf-8"?>
<!-- Generator: Adobe Illustrator 16.0.0, SVG Export Plug-In . SVG Version: 6.00 Build 0)  -->
<!DOCTYPE svg PUBLIC "-//W3C//DTD SVG 1.1//EN" "http://www.w3.org/Graphics/SVG/1.1/DTD/svg11.dtd">
<svg version="1.1" id="Layer_1" xmlns="http://www.w3.org/2000/svg" xmlns:xlink="http://www.w3.org/1999/xlink" x="0px" y="0px"
	 width="76.536px" height="45.354px" viewBox="0 0 76.536 45.354" enable-background="new 0 0 76.536 45.354" xml:space="preserve">
<path fill="#707070" d="M46.704,3.975l-0.362,8.809c0,0-3.697,3.444-7.501-2.135C35.034,5.068,46.704,3.975,46.704,3.975
	L46.704,3.975z"/>
<path fill="#707070" d="M50.439,11.781l0.319-6.71c0,0,14.952-4.516,21.541-3.874c6.585,0.643,5.569,13.374-5.609,12.45
	S50.439,11.781,50.439,11.781L50.439,11.781z"/>
<path fill="#707070" d="M11.426,22.32L7.43,30.171c0,0-4.794,1.588-5.931-5.058C0.36,18.457,11.426,22.32,11.426,22.32L11.426,22.32
	z"/>
<path fill="#707070" d="M11.572,30.962l3.083-5.96c0,0,15.475,2.118,21.2,5.437c5.721,3.32-0.503,14.471-10.282,8.979
	C15.794,33.925,11.572,30.962,11.572,30.962L11.572,30.962z"/>
</svg>
