<?xml version="1.0" encoding="utf-8"?>
<!-- Generator: Adobe Illustrator 16.0.0, SVG Export Plug-In . SVG Version: 6.00 Build 0)  -->
<!DOCTYPE svg PUBLIC "-//W3C//DTD SVG 1.1//EN" "http://www.w3.org/Graphics/SVG/1.1/DTD/svg11.dtd">
<svg version="1.1" id="Layer_1" xmlns="http://www.w3.org/2000/svg" xmlns:xlink="http://www.w3.org/1999/xlink" x="0px" y="0px"
	 width="76.536px" height="59.528px" viewBox="0 0 76.536 59.528" enable-background="new 0 0 76.536 59.528" xml:space="preserve">
<path fill="#095EAA" d="M60.79,57.151H17.416v-1.605c0-15.621,7.097-24.926,19.567-25.857c-5.641-0.655-10.035-5.46-10.035-11.271
	c0-6.252,5.09-11.344,11.345-11.344c6.253,0,11.336,5.092,11.336,11.344c0,5.655-4.152,10.357-9.568,11.208
	c13.188,0.432,20.729,9.82,20.729,25.921V57.151z M20.646,53.946h36.911c-0.467-13.652-6.978-21.135-18.453-21.135
	C27.624,32.811,21.111,40.29,20.646,53.946z M38.293,10.278c-4.488,0-8.142,3.648-8.142,8.135c0,4.491,3.654,8.143,8.142,8.143
	c4.485,0,8.133-3.652,8.133-8.143C46.426,13.927,42.779,10.278,38.293,10.278z M76.536,31.275h-27.02v-1.604
	c0-8.474,3.407-13.943,9.493-15.545c-2.286-1.251-3.838-3.682-3.838-6.467c0-4.068,3.306-7.375,7.369-7.375
	c4.07,0,7.383,3.307,7.383,7.375c0,2.669-1.431,5.014-3.564,6.305c6.514,1.366,10.177,6.921,10.177,15.708V31.275L76.536,31.275z
	 M52.765,28.066h20.518c-0.328-5.448-2.506-11.227-10.259-11.227C55.276,16.839,53.096,22.618,52.765,28.066z M62.541,3.487
	c-2.298,0-4.165,1.873-4.165,4.171c0,2.298,1.868,4.167,4.165,4.167c2.305,0,4.178-1.869,4.178-4.167
	C66.718,5.36,64.846,3.487,62.541,3.487z M27.446,31.275H0.433v-1.604c0-8.474,3.406-13.941,9.489-15.545
	c-2.286-1.251-3.838-3.682-3.838-6.467c0-4.068,3.308-7.375,7.375-7.375c4.066,0,7.374,3.307,7.374,7.375
	c0,2.669-1.427,5.014-3.558,6.305c6.513,1.366,10.173,6.921,10.173,15.708V31.275L27.446,31.275z M3.683,28.066h20.513
	c-0.327-5.448-2.506-11.227-10.256-11.227C6.189,16.843,4.01,22.618,3.683,28.066z M13.458,3.487c-2.3,0-4.173,1.873-4.173,4.171
	c0,2.298,1.873,4.167,4.173,4.167c2.299,0,4.173-1.869,4.173-4.167C17.631,5.36,15.757,3.487,13.458,3.487z"/>
</svg>
