<?xml version="1.0" encoding="utf-8"?>
<!-- Generator: Adobe Illustrator 16.0.0, SVG Export Plug-In . SVG Version: 6.00 Build 0)  -->
<!DOCTYPE svg PUBLIC "-//W3C//DTD SVG 1.1//EN" "http://www.w3.org/Graphics/SVG/1.1/DTD/svg11.dtd">
<svg version="1.1" id="Layer_1" xmlns="http://www.w3.org/2000/svg" xmlns:xlink="http://www.w3.org/1999/xlink" x="0px" y="0px"
	 width="79.37px" height="79.37px" viewBox="0 0 79.37 79.37" enable-background="new 0 0 79.37 79.37" xml:space="preserve">
<path fill="#095EAA" d="M51.601,39.804c0,6.558-5.313,11.871-11.868,11.871c-6.555,0-11.869-5.312-11.869-11.871
	c0-6.556,5.314-11.869,11.869-11.869C46.287,27.935,51.601,33.249,51.601,39.804L51.601,39.804z"/>
<path fill="#095EAA" d="M39.688,78.521c-1.745,0-3.166-1.422-3.166-3.167v-6.605h-2.74c-0.727,0-1.403-0.388-1.767-1.02
	c-0.365-0.628-0.362-1.415,0.002-2.046l6.006-10.4c0.728-1.262,2.809-1.262,3.536,0l6.008,10.403
	c0.361,0.635,0.361,1.412,0.004,2.037c-0.37,0.638-1.049,1.025-1.773,1.025h-2.946v6.605C42.852,77.099,41.432,78.521,39.688,78.521
	z M34.95,66.033h4.288v9.32c0,0.249,0.201,0.45,0.45,0.45c0.247,0,0.448-0.201,0.448-0.45v-9.32h4.495L39.79,57.65L34.95,66.033z
	 M64.719,68.236c-0.847,0-1.641-0.331-2.24-0.931l-4.668-4.668l-1.938,1.935c-0.501,0.505-1.284,0.711-1.975,0.528
	c-0.705-0.188-1.257-0.746-1.442-1.448L49.35,52.054c-0.189-0.702,0.012-1.455,0.527-1.971c0.515-0.515,1.272-0.719,1.967-0.531
	l11.61,3.11c0.702,0.189,1.253,0.74,1.44,1.439c0.192,0.703-0.01,1.463-0.527,1.976l-2.083,2.083l4.671,4.67
	c1.232,1.235,1.232,3.245,0,4.479C66.358,67.905,65.564,68.236,64.719,68.236z M57.812,58.798l6.59,6.59
	c0.229,0.229,0.403,0.228,0.638,0c0.174-0.175,0.174-0.46-0.002-0.638l-6.589-6.59l3.178-3.178l-9.351-2.503l2.503,9.348
	L57.812,58.798z M14.716,68.088c-0.845,0-1.639-0.332-2.236-0.928c-1.234-1.232-1.234-3.24-0.001-4.476l4.67-4.671l-1.936-1.94
	c-0.515-0.509-0.719-1.269-0.529-1.972c0.191-0.705,0.745-1.257,1.447-1.439l11.602-3.11c0.721-0.188,1.462,0.02,1.973,0.527
	c0.513,0.512,0.714,1.268,0.528,1.966l-3.111,11.614c-0.189,0.7-0.74,1.249-1.436,1.438c-0.725,0.197-1.468-0.016-1.979-0.525
	l-2.082-2.083l-4.671,4.667C16.356,67.756,15.562,68.088,14.716,68.088z M17.958,54.985l3.03,3.032l-6.589,6.59
	c-0.176,0.173-0.176,0.458,0,0.635c0.227,0.226,0.406,0.229,0.636-0.004l6.592-6.59l3.176,3.182l2.505-9.355L17.958,54.985z
	 M13.08,48.044c-0.359,0-0.71-0.096-1.02-0.273c-0.631-0.362-1.024-1.042-1.024-1.766v-2.948H4.432
	c-1.744,0-3.164-1.422-3.164-3.167c0-1.746,1.419-3.163,3.164-3.163h6.605v-2.743c0-0.727,0.394-1.407,1.026-1.766
	c0.604-0.354,1.42-0.361,2.042,0.007l10.402,6.002c0.63,0.362,1.021,1.037,1.021,1.766c0,0.728-0.39,1.408-1.022,1.77l-10.405,6.006
	C13.789,47.951,13.438,48.044,13.08,48.044z M4.434,39.441c-0.247,0-0.448,0.202-0.448,0.448c0,0.248,0.201,0.45,0.448,0.45h9.322
	v4.496l8.38-4.843l-8.38-4.839v4.285H4.434V39.441z M66.502,48.044c-0.359,0-0.716-0.096-1.024-0.28l-10.402-6.002
	c-0.632-0.362-1.023-1.039-1.023-1.767c0-0.729,0.392-1.406,1.025-1.769l10.404-6.006c0.621-0.361,1.421-0.357,2.036-0.003
	c0.635,0.363,1.025,1.045,1.025,1.769v2.949h6.604c1.745,0,3.165,1.417,3.165,3.163c0,1.749-1.42,3.167-3.165,3.167h-6.604v2.74
	c0,0.73-0.394,1.408-1.026,1.769C67.218,47.948,66.86,48.044,66.502,48.044z M57.447,39.992l8.382,4.84v-4.287h9.318
	c0.25,0,0.45-0.202,0.45-0.447c0-0.248-0.2-0.452-0.45-0.452h-9.318v-4.493L57.447,39.992z M28.262,30.507L28.262,30.507
	c-0.176,0-0.353-0.025-0.522-0.069l-11.611-3.109c-0.702-0.192-1.252-0.743-1.441-1.439c-0.19-0.71,0.014-1.465,0.527-1.975
	l2.083-2.087l-4.669-4.67c-1.233-1.232-1.234-3.241,0-4.479c1.196-1.198,3.28-1.198,4.475,0l4.673,4.671l1.937-1.938
	c0.503-0.507,1.269-0.715,1.973-0.524c0.702,0.188,1.254,0.742,1.442,1.442l3.108,11.605c0.188,0.703-0.014,1.459-0.528,1.972
	C29.327,30.29,28.8,30.507,28.262,30.507z M17.957,25.005l9.351,2.504l-2.506-9.348l-3.031,3.026l-6.591-6.589
	c-0.229-0.23-0.409-0.23-0.634,0c-0.174,0.172-0.175,0.462,0,0.637l6.589,6.589L17.957,25.005z M51.318,30.507
	c-0.536,0-1.062-0.217-1.441-0.6c-0.514-0.517-0.714-1.269-0.53-1.969l3.112-11.608c0.189-0.7,0.74-1.25,1.437-1.44
	c0.729-0.193,1.469,0.013,1.979,0.526l2.083,2.083l4.67-4.67c1.198-1.198,3.279-1.195,4.476-0.003c1.236,1.238,1.234,3.247,0,4.478
	l-4.669,4.671l1.936,1.941c0.516,0.509,0.719,1.268,0.527,1.971c-0.191,0.703-0.745,1.257-1.448,1.44l-11.602,3.109
	C51.679,30.482,51.5,30.507,51.318,30.507z M54.778,18.159l-2.503,9.351l9.351-2.504l-3.03-3.032l6.589-6.589
	c0.177-0.178,0.175-0.462-0.001-0.641c-0.224-0.221-0.407-0.223-0.635,0.004l-6.591,6.593L54.778,18.159z M39.788,25.73
	c-0.724,0-1.401-0.389-1.766-1.017l-6.01-10.409c-0.361-0.634-0.361-1.414-0.002-2.04c0.369-0.631,1.045-1.021,1.771-1.021h2.945
	V4.638c0-1.745,1.421-3.166,3.165-3.166c1.745,0,3.166,1.421,3.166,3.166v6.605h2.739c0.729,0,1.408,0.39,1.77,1.025
	c0.36,0.622,0.361,1.402,0,2.031L41.556,24.71C41.188,25.341,40.513,25.73,39.788,25.73z M34.948,13.96l4.842,8.384l4.841-8.384
	h-4.288V4.638c0-0.249-0.2-0.451-0.448-0.451c-0.249,0-0.45,0.203-0.45,0.451v9.322H34.948z"/>
</svg>
