<?xml version="1.0" encoding="utf-8"?>
<!-- Generator: Adobe Illustrator 16.0.0, SVG Export Plug-In . SVG Version: 6.00 Build 0)  -->
<!DOCTYPE svg PUBLIC "-//W3C//DTD SVG 1.1//EN" "http://www.w3.org/Graphics/SVG/1.1/DTD/svg11.dtd">
<svg version="1.1" id="Layer_1" xmlns="http://www.w3.org/2000/svg" xmlns:xlink="http://www.w3.org/1999/xlink" x="0px" y="0px"
	 width="79.37px" height="79.37px" viewBox="0 0 79.37 79.37" enable-background="new 0 0 79.37 79.37" xml:space="preserve">
<path fill="#095EAA" d="M39.967,62.825c-13.014,0-23.6-10.587-23.6-23.6c0-13.01,10.588-23.597,23.6-23.597
	c13.013,0,23.6,10.587,23.6,23.597C63.566,52.238,52.979,62.825,39.967,62.825L39.967,62.825z M75.342,35.657
	c-0.955,0-1.852,0.373-2.526,1.046c-0.291,0.292-0.523,0.632-0.695,0.994h-5.537c-0.354-6.198-2.836-11.835-6.721-16.195
	l3.925-3.926c0.379,0.136,0.781,0.209,1.197,0.209c0.952,0,1.848-0.37,2.522-1.045c1.395-1.391,1.395-3.658,0.002-5.05
	c-0.677-0.674-1.572-1.046-2.524-1.046c-0.957,0-1.854,0.373-2.527,1.046c-0.672,0.675-1.045,1.572-1.045,2.525
	c0,0.417,0.072,0.817,0.208,1.197l-3.924,3.925c-4.36-3.887-9.996-6.368-16.198-6.723V7.078c1.206-0.577,2.041-1.803,2.041-3.222
	c0-1.97-1.6-3.572-3.572-3.572c-1.967,0-3.567,1.602-3.567,3.572c0,1.419,0.834,2.646,2.038,3.222v5.537
	c-6.197,0.353-11.836,2.833-16.197,6.723l-3.925-3.926c0.444-1.258,0.17-2.717-0.835-3.721c-0.673-0.674-1.57-1.045-2.528-1.045
	c-0.951,0-1.848,0.371-2.522,1.045c-1.393,1.392-1.393,3.659,0.002,5.05c0.672,0.675,1.57,1.045,2.521,1.045
	c0.415,0,0.819-0.074,1.198-0.209l3.925,3.926c-3.888,4.357-6.368,9.997-6.721,16.195H7.813C7.24,36.494,6.015,35.66,4.595,35.66
	c-1.97,0-3.572,1.602-3.572,3.57c0,1.964,1.603,3.57,3.572,3.57c1.42,0,2.646-0.835,3.219-2.038h5.541
	c0.353,6.194,2.833,11.833,6.721,16.192l-3.925,3.924c-0.379-0.13-0.784-0.205-1.198-0.205c-0.951,0-1.848,0.37-2.521,1.044
	c-0.676,0.674-1.047,1.571-1.047,2.522c0,0.955,0.371,1.855,1.045,2.529c0.674,0.674,1.574,1.044,2.522,1.044
	c0.958,0,1.855-0.37,2.528-1.044c1.005-1.007,1.279-2.464,0.835-3.722l3.925-3.928c4.36,3.89,9.996,6.37,16.197,6.725v5.534
	c-1.204,0.575-2.038,1.805-2.038,3.221c0,1.971,1.601,3.573,3.567,3.573c0.957,0,1.852-0.368,2.526-1.047
	c0.677-0.674,1.045-1.569,1.045-2.526c0-0.95-0.368-1.852-1.045-2.521c-0.295-0.295-0.629-0.527-0.995-0.699v-5.534
	c6.201-0.354,11.838-2.835,16.198-6.725l3.924,3.928c-0.442,1.258-0.167,2.715,0.837,3.722c0.675,0.674,1.57,1.044,2.527,1.044
	c0.952,0,1.848-0.37,2.522-1.044c0.674-0.674,1.047-1.574,1.047-2.529c0-0.951-0.373-1.849-1.047-2.522
	c-0.675-0.674-1.57-1.047-2.523-1.047c-0.415,0-0.821,0.074-1.196,0.208l-3.925-3.924c3.885-4.358,6.367-9.995,6.721-16.192h5.538
	c0.574,1.203,1.803,2.038,3.222,2.038c1.971,0,3.571-1.605,3.571-3.57C78.912,37.262,77.312,35.657,75.342,35.657L75.342,35.657z"/>
<path fill="#095EAA" d="M56.491,51.674c-7.207-0.28-10.894-0.314-18.209-0.23c0.024,1.097,0.039,1.644,0.065,2.706
	c7.506-0.007,11.258-0.007,18.76,0.002C56.856,53.167,56.736,52.674,56.491,51.674L56.491,51.674z"/>
<path fill="#095EAA" d="M55.322,46.876c-6.633-0.855-10.187-0.991-17.129-0.814c0.014,1.154,0.022,1.726,0.041,2.849
	c7.141-0.139,10.767-0.062,17.701,0.485C55.689,48.391,55.566,47.886,55.322,46.876L55.322,46.876z"/>
<path fill="#095EAA" d="M54.167,42.05c-6.049-1.493-9.469-1.757-16.03-1.555c0.008,1.176,0.015,1.764,0.025,2.932
	c6.76-0.198,10.253-0.003,16.609,1.151C54.525,43.568,54.406,43.061,54.167,42.05L54.167,42.05z"/>
<path fill="#095EAA" d="M53.032,37.236c-5.465-2.165-8.743-2.574-14.921-2.368c0.002,1.174,0.003,1.765,0.012,2.942
	c6.377-0.206,9.732,0.127,15.499,1.941C53.386,38.741,53.267,38.239,53.032,37.236L53.032,37.236z"/>
<path fill="#095EAA" d="M51.931,32.481c-4.886-2.834-8.033-3.389-13.834-3.186c0.001,1.149,0.001,1.733,0.005,2.9
	c5.999-0.2,9.208,0.277,14.396,2.763C52.271,33.961,52.155,33.466,51.931,32.481L51.931,32.481z"/>
<path fill="#095EAA" d="M50.867,27.831c-4.321-3.469-7.342-4.152-12.781-3.916c0.003,1.097,0.003,1.658,0.006,2.787
	c5.625-0.212,8.713,0.405,13.323,3.547C51.192,29.275,51.085,28.791,50.867,27.831L50.867,27.831z"/>
<path fill="#095EAA" d="M49.852,23.332c-3.782-4.039-6.687-4.816-11.786-4.484c0.006,1.02,0.009,1.542,0.015,2.607
	c5.27-0.271,8.234,0.461,12.293,4.21C50.161,24.722,50.057,24.253,49.852,23.332L49.852,23.332z"/>
<path fill="#095EAA" d="M35.046,27.124c-0.387,10.703-0.68,17.316-0.795,27.166c0.823,0,1.233,0,2.054,0
	c-0.087-10.006,0.08-16.586,0.26-27.359C35.954,26.991,35.649,27.03,35.046,27.124L35.046,27.124z"/>
<path fill="#095EAA" d="M32.304,27.712c-0.797,10.482-1.335,17.113-1.853,26.577c0.82,0,1.229,0,2.052,0
	c0.294-9.685,0.699-16.316,1.269-26.933C33.179,27.482,32.886,27.554,32.304,27.712L32.304,27.712z"/>
<path fill="#095EAA" d="M29.697,28.589c-1.26,10.144-2.072,16.738-3.043,25.701c0.821,0,1.231,0,2.054,0
	c0.717-9.25,1.377-15.868,2.381-26.209C30.521,28.267,30.243,28.367,29.697,28.589L29.697,28.589z"/>
<path fill="#095EAA" d="M27.276,29.744c-1.797,9.697-2.922,16.19-4.422,24.546c0.822,0,1.232,0,2.052,0
	c1.204-8.697,2.156-15.25,3.652-25.204C28.033,29.333,27.777,29.463,27.276,29.744L27.276,29.744z"/>
</svg>
