<?xml version="1.0" encoding="utf-8"?>
<!-- Generator: Adobe Illustrator 16.0.0, SVG Export Plug-In . SVG Version: 6.00 Build 0)  -->
<!DOCTYPE svg PUBLIC "-//W3C//DTD SVG 1.1//EN" "http://www.w3.org/Graphics/SVG/1.1/DTD/svg11.dtd">
<svg version="1.1" id="Layer_1" xmlns="http://www.w3.org/2000/svg" xmlns:xlink="http://www.w3.org/1999/xlink" x="0px" y="0px"
	 width="79.37px" height="56.693px" viewBox="0 0 79.37 56.693" enable-background="new 0 0 79.37 56.693" xml:space="preserve">
<path fill="#095EAA" d="M76.449,56.46H2.729c-0.724,0-1.31-0.584-1.31-1.31V6.673c0-0.723,0.586-1.31,1.31-1.31h73.721
	c0.723,0,1.311,0.587,1.311,1.31v48.478C77.76,55.876,77.172,56.46,76.449,56.46z M4.039,53.844h71.104V7.986H4.039V53.844z"/>
<path fill="#095EAA" d="M33.476,46.446c-0.188,0-0.376-0.039-0.554-0.128c-0.501-0.256-0.768-0.815-0.646-1.363l2.857-12.811h-4.312
	c-0.429,0-0.829-0.226-1.051-0.593c-0.224-0.362-0.238-0.822-0.041-1.202l7.382-14.307c0.211-0.405,0.631-0.66,1.09-0.66h10.151
	c0.442,0,0.851,0.233,1.069,0.621c0.218,0.385,0.211,0.858-0.017,1.24l-5.806,9.676h4.753c0.48,0,0.918,0.281,1.119,0.722
	c0.198,0.438,0.122,0.95-0.193,1.317L34.404,46.033C34.164,46.3,33.822,46.446,33.476,46.446z M32.84,29.687h3.83
	c0.373,0,0.725,0.168,0.958,0.459c0.234,0.289,0.323,0.67,0.24,1.032l-2.136,9.588l9.927-11.396h-4.219
	c-0.444,0-0.851-0.235-1.069-0.623c-0.22-0.384-0.213-0.857,0.015-1.236l5.802-9.68h-7.232L32.84,29.687z M17.157,37.902
	c-0.679,0-1.227-0.553-1.227-1.229v-4.529H11.4c-0.681,0-1.228-0.553-1.228-1.229c0-0.681,0.55-1.229,1.228-1.229h4.53v-4.529
	c0-0.681,0.549-1.228,1.227-1.228c0.678,0,1.229,0.547,1.229,1.228v4.529h4.53c0.68,0,1.228,0.548,1.228,1.229
	c0,0.676-0.549,1.229-1.228,1.229h-4.53v4.529C18.387,37.349,17.837,37.902,17.157,37.902z M67.779,32.144H56.261
	c-0.679,0-1.227-0.553-1.227-1.229c0-0.681,0.548-1.229,1.227-1.229h11.519c0.679,0,1.228,0.548,1.228,1.229
	C69.007,31.591,68.458,32.144,67.779,32.144z M68.749,7.903c-0.681,0-1.229-0.552-1.229-1.23V3.391c0-0.42-0.541-0.893-1.32-0.893
	h-12.72c-0.778,0-1.32,0.473-1.32,0.893v3.282c0,0.679-0.549,1.23-1.228,1.23c-0.678,0-1.228-0.552-1.228-1.23V3.391
	c0-1.845,1.693-3.348,3.775-3.348h12.72c2.081,0,3.777,1.503,3.777,3.348v3.282C69.977,7.352,69.425,7.903,68.749,7.903z
	 M28.249,7.903c-0.679,0-1.228-0.552-1.228-1.23V3.391c0-0.42-0.543-0.893-1.322-0.893H12.983c-0.779,0-1.322,0.473-1.322,0.893
	v3.282c0,0.679-0.552,1.23-1.23,1.23c-0.678,0-1.228-0.552-1.228-1.23V3.391c0-1.845,1.697-3.348,3.78-3.348h12.716
	c2.085,0,3.779,1.503,3.779,3.348v3.282C29.477,7.352,28.927,7.903,28.249,7.903z"/>
</svg>
