<?xml version="1.0" encoding="utf-8"?>
<!-- Generator: Adobe Illustrator 16.0.0, SVG Export Plug-In . SVG Version: 6.00 Build 0)  -->
<!DOCTYPE svg PUBLIC "-//W3C//DTD SVG 1.1//EN" "http://www.w3.org/Graphics/SVG/1.1/DTD/svg11.dtd">
<svg version="1.1" id="Layer_1" xmlns="http://www.w3.org/2000/svg" xmlns:xlink="http://www.w3.org/1999/xlink" x="0px" y="0px"
	 width="79.37px" height="79.37px" viewBox="0 0 79.37 79.37" enable-background="new 0 0 79.37 79.37" xml:space="preserve">
<path fill="#095EAA" d="M3.172,79.516l-2.151-40.64l37.427-1.596l-9.577,10.943c1.199,1.93,5.36,6.941,16.257,6.941c0,0,0,0,0.002,0
	c6.777,0,14.957-1.959,24.314-5.818l4.303-1.775l-2.586,3.871c-0.611,0.918-15.252,22.445-37.726,22.445
	c-6.965,0-13.961-2.119-20.798-6.305l-0.252-0.201l-0.73-0.717L3.172,79.516z M14.252,65.248c6.339,3.854,12.793,5.807,19.183,5.807
	c15.257-0.004,26.96-11.096,32.259-17.229c-7.723,2.768-14.627,4.162-20.562,4.162c0,0,0,0-0.002,0
	c-15.216,0-19.118-9.041-19.275-9.424l-0.335-0.811l6.443-7.365L3.999,41.578l1.545,29.199l5.641-8.539L14.252,65.248z
	 M38.619,42.936l9.357-11.132c-1.211-1.866-5.32-6.615-15.701-6.615c-6.914,0-15.287,2.123-24.891,6.312l-4.265,1.86l2.507-3.918
	C6.234,28.493,20.728,6.231,43.595,6.231c6.732,0,13.537,1.982,20.223,5.891l0.256,0.194l0.746,0.701L73.038,0l2.977,40.585
	L38.619,42.936z M32.277,22.356c14.603,0,18.548,8.678,18.708,9.045l0.354,0.803l-6.295,7.491l27.938-1.755L70.845,8.779
	l-5.465,8.653l-3.125-2.948c-6.201-3.598-12.48-5.424-18.656-5.424c-15.546,0-27.281,11.553-32.538,17.88
	C19.047,23.896,26.167,22.356,32.277,22.356z"/>
</svg>
