<?xml version="1.0" encoding="utf-8"?>
<!-- Generator: Adobe Illustrator 16.0.0, SVG Export Plug-In . SVG Version: 6.00 Build 0)  -->
<!DOCTYPE svg PUBLIC "-//W3C//DTD SVG 1.1//EN" "http://www.w3.org/Graphics/SVG/1.1/DTD/svg11.dtd">
<svg version="1.1" id="Layer_1" xmlns="http://www.w3.org/2000/svg" xmlns:xlink="http://www.w3.org/1999/xlink" x="0px" y="0px"
	 width="79.37px" height="79.37px" viewBox="0 0 79.37 79.37" enable-background="new 0 0 79.37 79.37" xml:space="preserve">
<path fill="#095EAA" d="M51.669,12.452c1.34,0.501,2.346,1.077,3.018,1.718c0.67,0.642,1.006,1.607,1.006,2.893
	c0,1.062-0.252,2.482-0.756,4.271c-0.502,1.79-0.963,3.033-1.383,3.729c-0.418,0.698-0.906,1.229-1.467,1.593
	c-0.559,0.362-1.229,0.547-2.01,0.547c-0.393,0-0.883-0.073-1.467-0.209c-0.586-0.141-1.074-0.297-1.465-0.464
	c1.73-2.18,2.932-4.552,3.6-7.121c0.283-1.176,0.504-2.362,0.674-3.563C51.587,14.645,51.669,13.515,51.669,12.452L51.669,12.452z
	 M9.015,61.894c-2.682-2.965-4.666-6.371-5.951-10.227c-1.286-3.855-1.929-7.934-1.929-12.233c0-5.139,0.978-10.083,2.936-14.833
	c1.955-4.75,4.72-8.912,8.297-12.489c2.849-2.852,5.935-5.151,9.259-6.915c3.324-1.758,6.803-2.948,10.434-3.559
	c2.18-0.339,4.443-0.504,6.789-0.504c5.639,0,10.781,0.863,15.418,2.596c3.406,1.285,6.648,3.226,9.719,5.823
	c3.072,2.601,5.629,5.474,7.668,8.635c2.041,3.152,3.646,6.549,4.82,10.177c1.17,3.636,1.758,7.32,1.758,11.065
	c0,3.963-0.684,7.917-2.053,11.854c-1.371,3.938-3.17,7.527-5.404,10.77c-2.014,2.74-4.457,5.264-7.334,7.584
	c-2.875,2.316-5.938,4.121-9.178,5.406c-4.748,1.898-9.637,2.85-14.664,2.85c-3.129,0-6.086-0.32-8.883-0.963
	c-2.791-0.643-5.125-1.455-6.996-2.432c-1.873-0.977-3.338-2.275-4.4-3.898c-1.061-1.619-1.593-3.377-1.593-5.279
	c0-1.229,0.21-2.375,0.628-3.436c0.42-1.061,1.049-2.096,1.887-3.104c-0.391-0.947-0.656-1.816-0.795-2.598
	c-0.143-0.783-0.211-1.789-0.211-3.018c0-1.678,0.238-3.604,0.711-5.783c0.477-2.176,1.049-4.327,1.721-6.448
	c1.115-3.912,3.045-8.184,5.781-12.82c2.348-3.971,5.029-7.851,8.045-11.649c1.117-1.398,2.611-2.601,4.484-3.604
	c1.87-1.004,3.865-1.505,5.99-1.505c1.174,0,2.402,0.167,3.686,0.501c0,1.175-0.057,2.32-0.166,3.438
	c-0.115,1.118-0.35,2.319-0.713,3.601c-0.363,1.285-0.811,2.533-1.34,3.734c-0.533,1.198-1.188,2.305-1.971,3.306
	c-0.279,0-0.697-0.027-1.256-0.083c-1.008,0-1.943,0.196-2.807,0.586c-0.865,0.396-1.633,1.092-2.305,2.097l-2.766,4.442
	l-1.674,3.018c-1.061,2.067-1.873,3.938-2.434,5.615c-0.555,1.677-0.836,3.268-0.836,4.773c0,1.008,0.166,1.83,0.5,2.471
	c0.336,0.645,0.896,1.301,1.678,1.971c-0.393,2.127-1.424,4.219-3.098,6.285c-0.672,1.061-1.623,2.18-2.852,3.354
	c-1.23,1.172-2.234,1.9-3.018,2.176c-0.336-0.109-0.711-0.348-1.131-0.709c-0.42-0.363-0.795-0.711-1.131-1.049
	c-0.561,0.727-0.936,1.357-1.133,1.889c-0.195,0.529-0.291,1.158-0.291,1.887c0,2.904,1.674,5.264,5.027,7.076
	c3.35,1.82,7.904,2.727,13.658,2.727c6.982,0,13.504-2.039,19.566-6.117c6.064-4.076,10.352-9.273,12.865-15.59
	c1.566-3.963,2.346-8.238,2.346-12.813c0-4.695-0.877-9.277-2.639-13.747c-1.76-4.469-4.244-8.324-7.457-11.563
	c-3.213-3.241-7.012-5.714-11.398-7.419c-4.385-1.702-9.006-2.556-13.865-2.556c-4.527,0-8.801,0.801-12.824,2.389
	c-4.021,1.592-7.791,4.15-11.313,7.667c-3.52,3.522-6.048,7.31-7.585,11.357C5.76,30.12,4.991,34.544,4.991,39.35
	c0,4.411,0.613,8.437,1.844,12.067c0.334,1.229,0.907,2.584,1.719,4.062c0.809,1.482,1.773,3.033,2.892,4.652
	c0,0.504-0.14,0.951-0.42,1.342c-0.279,0.391-0.671,0.586-1.174,0.586C9.517,62.06,9.238,62.005,9.015,61.894L9.015,61.894z
	 M35.078,51.671c0.895,0.609,1.51,1.145,1.844,1.588c0.611,0.729,0.922,1.482,0.922,2.264c0,0.783-0.252,1.746-0.754,2.893
	c-0.502,1.145-1.074,2.178-1.717,3.102c-0.643,0.918-1.471,1.746-2.475,2.469c-1.004,0.725-1.871,1.092-2.598,1.092
	s-1.396-0.125-2.012-0.379c-0.615-0.25-1.285-0.572-2.012-0.961c1.006-0.559,2.068-1.369,3.186-2.432
	c1.117-1.061,2.053-2.148,2.807-3.271c0.756-1.113,1.328-2.121,1.719-3.014S34.744,53.009,35.078,51.671L35.078,51.671z"/>
</svg>
