<?xml version="1.0" encoding="utf-8"?>
<!-- Generator: Adobe Illustrator 16.0.0, SVG Export Plug-In . SVG Version: 6.00 Build 0)  -->
<!DOCTYPE svg PUBLIC "-//W3C//DTD SVG 1.1//EN" "http://www.w3.org/Graphics/SVG/1.1/DTD/svg11.dtd">
<svg version="1.1" id="Layer_1" xmlns="http://www.w3.org/2000/svg" xmlns:xlink="http://www.w3.org/1999/xlink" x="0px" y="0px"
	 width="79.37px" height="56.693px" viewBox="0 0 79.37 56.693" enable-background="new 0 0 79.37 56.693" xml:space="preserve">
<path fill="#095EAA" d="M2.852,7.134h29.61c0.518,0,0.94-0.421,0.94-0.939c0-0.52-0.422-0.94-0.94-0.94H2.852
	c-0.52,0-0.94,0.42-0.94,0.94C1.912,6.715,2.333,7.134,2.852,7.134L2.852,7.134z"/>
<path fill="#095EAA" d="M3.726,31.737c2.958-4.848,8.168-7.802,13.931-7.802c5.765,0,10.974,2.955,13.933,7.802H3.726L3.726,31.737z
	 M17.656,37.915c-2.575,0-4.72-1.859-5.165-4.303H22.82C22.376,36.053,20.232,37.915,17.656,37.915L17.656,37.915z M13.986,11.314
	h7.344l-1.254,2.82h-4.837L13.986,11.314L13.986,11.314z M34.02,32.262c-2.949-6.013-8.8-9.848-15.422-10.181v-6.066h2.09
	c0.372,0,0.709-0.218,0.86-0.558l1.841-4.141h6.341c0.519,0,0.938-0.423,0.938-0.941s-0.42-0.939-0.938-0.939H5.588
	c-0.52,0-0.942,0.42-0.942,0.939s0.422,0.941,0.942,0.941h6.339l1.84,4.141c0.151,0.34,0.488,0.558,0.859,0.558h2.09v6.066
	C10.094,22.415,4.242,26.25,1.294,32.262c-0.143,0.287-0.126,0.633,0.045,0.906c0.173,0.277,0.473,0.443,0.797,0.443h8.452
	c0.462,3.482,3.453,6.18,7.066,6.18c3.614,0,6.606-2.697,7.067-6.18h8.452c0.326,0,0.627-0.168,0.799-0.443
	C34.146,32.895,34.163,32.549,34.02,32.262L34.02,32.262z"/>
<path fill="#095EAA" d="M17.656,42.825c-0.521,0-0.939,0.42-0.939,0.938v3.695c0,0.52,0.421,0.939,0.939,0.939
	c0.518,0,0.94-0.42,0.94-0.939v-3.695C18.596,43.243,18.177,42.825,17.656,42.825L17.656,42.825z"/>
<path fill="#095EAA" d="M26.171,39.846c-0.367-0.363-0.961-0.363-1.328,0c-0.365,0.367-0.367,0.963,0,1.328l2.612,2.613
	c0.185,0.182,0.424,0.273,0.664,0.273c0.242,0,0.484-0.092,0.666-0.273c0.368-0.365,0.368-0.961,0-1.332L26.171,39.846
	L26.171,39.846z"/>
<path fill="#095EAA" d="M9.14,39.846l-2.611,2.609c-0.368,0.369-0.368,0.961,0,1.33c0.181,0.184,0.424,0.273,0.664,0.273
	s0.48-0.09,0.664-0.273l2.614-2.611c0.367-0.367,0.367-0.963,0-1.33C10.103,39.483,9.505,39.483,9.14,39.846L9.14,39.846z"/>
<g>
	<path fill="#095EAA" d="M59.628,37.915c2.574,0,4.72-1.859,5.163-4.303H54.465C54.909,36.053,57.056,37.915,59.628,37.915z"/>
	<path fill="#095EAA" d="M43.071,0.567L32.11,55.331h47.26V0.567H43.071z M44.823,5.255h29.61c0.519,0,0.94,0.42,0.94,0.94
		c0,0.519-0.422,0.939-0.94,0.939h-29.61c-0.521,0-0.941-0.421-0.941-0.939C43.884,5.675,44.305,5.255,44.823,5.255z M75.946,33.168
		c-0.173,0.277-0.475,0.443-0.799,0.443h-8.452c-0.463,3.482-3.455,6.18-7.065,6.18c-3.614,0-6.606-2.697-7.065-6.18H44.11
		c-0.325,0-0.627-0.168-0.797-0.443c-0.173-0.273-0.19-0.619-0.047-0.906c2.949-6.013,8.8-9.848,15.425-10.181v-6.066h-2.093
		c-0.37,0-0.706-0.218-0.858-0.558l-1.84-4.141h-6.342c-0.518,0-0.94-0.423-0.94-0.941s0.423-0.939,0.94-0.939h24.141
		c0.521,0,0.943,0.42,0.943,0.939s-0.423,0.941-0.943,0.941h-6.338l-1.843,4.141c-0.15,0.34-0.487,0.558-0.858,0.558h-2.088v6.066
		c6.624,0.333,12.474,4.168,15.421,10.181C76.134,32.549,76.117,32.895,75.946,33.168z"/>
	<polygon fill="#095EAA" points="63.302,11.314 55.955,11.314 57.21,14.134 62.047,14.134 	"/>
	<path fill="#095EAA" d="M59.628,23.935c-5.764,0-10.976,2.955-13.933,7.802h27.862C70.602,26.889,65.392,23.935,59.628,23.935z"/>
</g>
</svg>
