<?xml version="1.0" encoding="utf-8"?>
<!-- Generator: Adobe Illustrator 16.0.0, SVG Export Plug-In . SVG Version: 6.00 Build 0)  -->
<!DOCTYPE svg PUBLIC "-//W3C//DTD SVG 1.1//EN" "http://www.w3.org/Graphics/SVG/1.1/DTD/svg11.dtd">
<svg version="1.1" id="Layer_1" xmlns="http://www.w3.org/2000/svg" xmlns:xlink="http://www.w3.org/1999/xlink" x="0px" y="0px"
	 width="79.37px" height="79.37px" viewBox="0 0 79.37 79.37" enable-background="new 0 0 79.37 79.37" xml:space="preserve">
<g>
	<path fill="#49C8F5" d="M68.396,43.007l-3.542-3.732L50.406,23.811l-2.022,1.843l18.023,19.245
		c0.896,0.946,1.396,2.173,1.366,3.364c-0.027,0.951-0.387,1.806-1.019,2.408c-1.451,1.374-3.995,1.116-5.668-0.578
		c-0.01-0.007-0.021-0.007-0.03-0.019l-9.12-9.228c-0.532-0.538-1.403-0.546-1.94-0.014c-0.538,0.533-0.546,1.402-0.012,1.94
		l9.366,9.48c1.679,1.769,1.875,4.319,0.439,5.683c-1.314,1.248-3.579,1.076-5.271-0.398c-0.054-0.046-0.118-0.064-0.178-0.104
		l-9.096-9.211c-0.534-0.538-1.403-0.543-1.945-0.011c-0.538,0.534-0.543,1.402-0.009,1.94l9.385,9.502
		c0.031,0.028,0.066,0.04,0.1,0.067c1.385,1.697,1.46,4.023,0.109,5.312c-1.407,1.339-3.877,1.084-5.506-0.563
		c-0.531-0.535-1.395-0.547-1.935-0.022c-0.539,0.524-0.558,1.389-0.036,1.935l0.229,0.241c1.633,1.718,1.851,4.172,0.488,5.471
		c-0.557,0.528-1.296,0.786-2.083,0.786c-1.14,0-2.387-0.534-3.357-1.554c0,0-0.585-0.616-1.476-1.555
		c-0.725,0.762-1.421,1.498-1.91,2.015l1.396,1.432c1.501,1.579,3.476,2.394,5.356,2.394c1.47,0,2.884-0.5,3.966-1.525l0,0
		c1.514-1.439,1.9-3.577,1.451-5.666c0.383,0.064,0.76,0.236,1.145,0.236c1.53,0,3.012-0.538,4.167-1.636
		c1.571-1.489,2.017-3.635,1.598-5.74c0.406,0.071,0.81,0.229,1.213,0.229c1.518,0,2.977-0.523,4.093-1.583
		c1.571-1.492,1.975-3.705,1.509-5.859c0.406,0.076,0.81,0.254,1.218,0.254c1.556,0,3.063-0.548,4.236-1.656
		c1.166-1.109,1.83-2.645,1.874-4.328C70.565,46.415,69.792,44.475,68.396,43.007L68.396,43.007z"/>
	<path fill="#49C8F5" d="M14.601,43.603l-5.119-5.472c-3.691-3.57-5.701-8.295-5.701-13.342c0-10.201,8.3-18.496,18.496-18.496
		c5.439,0,10.584,2.391,14.11,6.555l2.867,3.062l1.653-2.228l-2.455-2.67c-4.021-4.722-9.927-7.463-16.174-7.463
		c-11.712,0-21.242,9.53-21.242,21.241c0,5.8,2.305,11.221,6.49,15.265c0,0,2.159,2.311,5.076,5.425L14.601,43.603L14.601,43.603z"
		/>
</g>
<path fill="#095EAA" d="M38.898,55.616L38.898,55.616L38.898,55.616L38.898,55.616z M32.565,65.97l8.293-8.432
	c0.537-0.545,1.271-0.848,2.065-0.854c0.892-0.009,1.747,0.349,2.407,0.996c0.662,0.65,1.03,1.497,1.037,2.387
	c0.01,0.801-0.286,1.536-0.822,2.081l-8.293,8.433c-0.534,0.545-1.269,0.846-2.063,0.857c-0.891,0.008-1.747-0.349-2.409-0.997
	C31.489,69.167,31.393,67.163,32.565,65.97L32.565,65.97z M49.113,60.047c-0.015-1.626-0.675-3.162-1.857-4.324
	c-1.169-1.155-2.697-1.787-4.306-1.787c-0.015,0-0.035,0-0.05,0c-1.529,0.012-2.949,0.607-4.001,1.675l-8.293,8.43
	c-2.233,2.275-2.123,6.024,0.25,8.356c1.182,1.163,2.729,1.798,4.354,1.787c1.531-0.016,2.946-0.61,4-1.679l8.294-8.433
	C48.555,63.006,49.128,61.576,49.113,60.047L49.113,60.047z"/>
<path fill="#095EAA" d="M25.95,59.964l8.295-8.429c0.56-0.571,1.311-0.885,2.119-0.894c0.83-0.008,1.614,0.312,2.213,0.9
	c0.595,0.589,0.932,1.371,0.939,2.196c0.005,0.808-0.299,1.567-0.86,2.139l-8.293,8.431c-1.174,1.189-3.117,1.186-4.332-0.01
	C24.812,63.104,24.776,61.16,25.95,59.964L25.95,59.964z M42.263,53.72c-0.013-1.566-0.638-3.034-1.759-4.136
	c-1.123-1.102-2.6-1.701-4.166-1.691c-1.538,0.012-2.977,0.621-4.056,1.72l0,0l-8.293,8.428c-2.233,2.275-2.184,5.96,0.113,8.217
	c2.296,2.26,5.982,2.25,8.218-0.024l8.294-8.428C41.69,56.709,42.277,55.261,42.263,53.72L42.263,53.72z"/>
<path fill="#095EAA" d="M25.272,43.598L25.272,43.598L25.272,43.598L25.272,43.598z M19.108,53.778l8.12-8.256
	c0.52-0.527,1.233-0.818,2.004-0.824c0.865-0.011,1.693,0.333,2.337,0.965c1.253,1.234,1.348,3.178,0.21,4.335l-8.12,8.255
	c-1.141,1.158-3.087,1.096-4.343-0.136C18.065,56.885,17.968,54.937,19.108,53.778L19.108,53.778z M33.495,43.708
	c-1.154-1.136-2.657-1.759-4.237-1.759c-0.017,0-0.033,0-0.05,0c-1.503,0.015-2.905,0.6-3.936,1.649l-8.122,8.257
	c-2.199,2.235-2.091,5.925,0.242,8.221c2.333,2.292,6.025,2.34,8.223,0.107l8.122-8.256C35.938,49.687,35.828,46.004,33.495,43.708
	L33.495,43.708z"/>
<path fill="#095EAA" d="M22.833,38.777c0.762,0,1.533,0.29,2.125,0.875c1.181,1.162,1.216,3.047,0.078,4.202l-8.122,8.256
	c-0.543,0.552-1.273,0.86-2.058,0.869c-0.805,0.007-1.567-0.302-2.146-0.876c-1.184-1.159-1.215-3.043-0.078-4.206
	c0,0,8.118-8.252,8.12-8.252C21.317,39.067,22.073,38.777,22.833,38.777L22.833,38.777z M26.884,37.689
	c-2.261-2.22-5.888-2.21-8.09,0.025l-8.121,8.256c-2.2,2.239-2.149,5.871,0.108,8.091c1.102,1.085,2.558,1.678,4.095,1.662
	c1.517-0.015,2.937-0.613,3.994-1.687l8.12-8.256C29.191,43.545,29.141,39.914,26.884,37.689L26.884,37.689z"/>
<path fill="#095EAA" d="M51.313,24.636l-0.815-0.854L48.4,25.565c0,0,0.002,0.003,0.004,0.007c-1.357,1.372-5.338,5.4-5.338,5.4
	c-2.508,2.536-5.856,3.942-9.425,3.963c-0.026,0-0.05,0-0.076,0c-3.539,0-6.868-1.366-9.384-3.853c0,0-0.05-0.054-0.056-0.065
	c1.564-1.554,13.474-13.388,15.136-15.038c0,0,0,0,0.001,0l1.914-1.973l-0.896-0.936c-0.253-0.269-0.606-0.421-0.975-0.423
	c-0.372-0.007-0.723,0.136-0.989,0.395L21.252,29.997c-0.52,0.52-0.584,1.309-0.087,1.855l1.083,1.184
	c3.058,3.025,7.11,4.675,11.411,4.65c4.3-0.025,8.334-1.726,11.358-4.787l6.276-6.351C51.816,26.025,51.824,25.174,51.313,24.636
	L51.313,24.636z"/>
<path fill="#095EAA" d="M77.988,23.807C77.581,12.104,67.729,2.909,56.022,3.315c-5.794,0.198-11.133,2.691-15.031,7.012
	L21.083,30.291l1.941,1.94c8.224-8.245,19.959-20.017,19.959-20.017c3.442-3.814,8.09-5.982,13.134-6.158
	c0.216-0.006,0.433-0.01,0.648-0.01c9.906,0,18.133,7.879,18.477,17.854c0.189,5.437-2.022,10.662-6.063,14.334
	c0,0-1.058,1.063-2.74,2.75l1.952,1.952l2.697-2.705C75.666,36.052,78.202,30.049,77.988,23.807L77.988,23.807z"/>
</svg>
