<?xml version="1.0" encoding="utf-8"?>
<!-- Generator: Adobe Illustrator 16.0.0, SVG Export Plug-In . SVG Version: 6.00 Build 0)  -->
<!DOCTYPE svg PUBLIC "-//W3C//DTD SVG 1.1//EN" "http://www.w3.org/Graphics/SVG/1.1/DTD/svg11.dtd">
<svg version="1.1" id="Layer_1" xmlns="http://www.w3.org/2000/svg" xmlns:xlink="http://www.w3.org/1999/xlink" x="0px" y="0px"
	 width="192.76px" height="189.92px" viewBox="0 0 192.76 189.92" enable-background="new 0 0 192.76 189.92" xml:space="preserve">
<path fill="#FFFFFF" d="M53.625,86.911c-6.556,0-12.956-3.017-17.559-8.277c-4.651-5.315-6.795-12.274-5.882-19.093
	c2.048-15.29,14.187-26.82,28.234-26.82c14.15,0,25.233,11.928,25.233,27.154c0,15.21-8.111,23.447-26.3,26.705
	C56.126,86.8,54.873,86.911,53.625,86.911z M58.419,37.759c-11.535,0-21.525,9.651-23.24,22.45
	c-0.721,5.378,0.985,10.885,4.679,15.107c4.324,4.942,10.659,7.369,16.605,6.304c18.383-3.293,22.15-11.075,22.15-21.745
	C78.614,47.267,69.932,37.759,58.419,37.759z"/>
<path fill="#FFFFFF" d="M137.07,86.62c-14.747,0-26.744-11.997-26.744-26.745S122.323,33.13,137.07,33.13
	c14.748,0,26.745,11.997,26.745,26.745S151.818,86.62,137.07,86.62z M137.07,38.169c-11.969,0-21.705,9.738-21.705,21.706
	s9.736,21.706,21.705,21.706s21.706-9.738,21.706-21.706S149.039,38.169,137.07,38.169z"/>
<path fill="#FFFFFF" d="M137.07,86.62c-14.747,0-26.744-11.997-26.744-26.745c0-14.805,11.055-26.851,24.643-26.851
	c0.777,0,1.569,0.04,2.353,0.118c13.671,1.371,23.558,11.186,26.449,26.258c1.458,7.606,0.219,13.859-3.685,18.582
	C153.875,85.498,143,86.62,137.07,86.62z M134.969,38.063c-10.627,0-19.604,9.988-19.604,21.812
	c0,11.968,9.736,21.706,21.705,21.706c8.582,0,15.556-2.481,19.131-6.808c2.901-3.51,3.783-8.363,2.62-14.424
	c-2.483-12.951-10.503-21.041-22.002-22.192C136.202,38.095,135.579,38.063,134.969,38.063z"/>
<path fill="#FFFFFF" d="M61.898,161.049c-1.826,0-3.722-0.257-5.635-0.762c-16.831-4.454-26.1-13.922-26.1-26.662
	c0-13.256,10.317-23.737,26.285-26.703c1.459-0.271,2.914-0.408,4.325-0.408c14.322,0,22.88,13.785,22.88,27.111
	C83.652,147.105,75.516,161.049,61.898,161.049z M60.772,111.553c-1.103,0-2.248,0.109-3.405,0.324
	c-10.715,1.99-22.166,8.748-22.166,21.748c0,7.243,3.878,16.902,22.351,21.79c1.492,0.396,2.954,0.595,4.346,0.595
	c8.217,0,16.716-8.373,16.716-22.385C78.614,122.775,71.94,111.553,60.772,111.553z"/>
<path fill="#FFFFFF" d="M137.07,160.37c-14.747,0-26.744-11.998-26.744-26.745c0-14.748,11.997-26.745,26.744-26.745
	c14.748,0,26.745,11.997,26.745,26.745C163.815,148.372,151.818,160.37,137.07,160.37z M137.07,111.919
	c-11.969,0-21.705,9.737-21.705,21.706s9.736,21.707,21.705,21.707s21.706-9.738,21.706-21.707S149.039,111.919,137.07,111.919z"/>
<path fill="#FFFFFF" d="M133.958,159.968c-7.431,0-14.882-3.522-19.446-9.194c-4.057-5.041-5.521-11.322-4.127-17.688
	c3.111-14.207,12.164-23.251,26.175-26.153c2.085-0.433,4.101-0.651,5.993-0.651c10.279,0,21.263,7.184,21.263,27.344
	c0,13.967-8.584,22.693-25.514,25.935C136.89,159.83,135.428,159.968,133.958,159.968z M142.553,111.32
	c-1.549,0-3.222,0.184-4.971,0.547c-12.089,2.504-19.583,10.005-22.275,22.297c-1.361,6.209,0.951,10.742,3.131,13.45
	c3.631,4.513,9.578,7.315,15.521,7.315c1.153,0,2.296-0.107,3.396-0.318c14.615-2.799,21.423-9.467,21.423-20.986
	C158.776,128.393,157.606,111.32,142.553,111.32z"/>
<path fill="#FFFFFF" d="M27.428,188.005c-12.943,0-14.973-4.33-16.403-10.7c-0.249-1.107-0.505-2.251-0.899-3.357
	C7.582,166.805,9.558,36.854,9.98,10.875c0.022-1.377,1.146-2.478,2.519-2.478c0.013,0,0.027,0,0.042,0
	c1.391,0.022,2.5,1.169,2.478,2.56c-1,61.62-1.862,155.435-0.136,161.329c0.486,1.364,0.791,2.719,1.059,3.914
	c1.09,4.854,1.691,7.531,15.954,6.607c19.745-1.271,138.731-5.107,139.931-5.146l0.391-0.012l0.375,0.105
	c0.031,0.009,4.438,1.16,7.723-1.311c2.682-2.02,4.089-5.967,4.184-11.738c0.321-19.611,2.572-148.853,2.572-148.853l0.066-0.533
	c0.006-0.039,0.359-1.935-1.143-3.763c-1.525-1.857-5.265-4.071-14.409-4.071H2.48c-1.392,0-2.52-1.128-2.52-2.519
	c0-1.392,1.128-2.52,2.52-2.52h169.104c9.04,0,15.238,2.04,18.425,6.062c2.555,3.225,2.273,6.563,2.094,7.644
	c-0.101,5.816-2.254,129.487-2.568,148.637c-0.121,7.439-2.223,12.729-6.246,15.723c-4.592,3.41-10.076,2.541-11.641,2.196
	c-7.09,0.229-120.285,3.894-139.429,5.128C30.475,187.949,28.882,188.005,27.428,188.005z"/>
<path fill="#FFFFFF" d="M59.232,34.523C46.7,41.617,38.374,53.018,30.376,64.666c-1.01,1.471,1.317,3.271,2.473,1.908
	C44.07,53.337,58.762,43.69,74.325,36.278c-0.771-0.593-1.542-1.186-2.313-1.779c-1.908,8.714-10.083,15.226-15.336,22.129
	c-3.379,4.442-6.635,8.979-9.903,13.502c-3.212,4.445-5.113,9.198-9.077,13.184c0.743,0.742,1.484,1.484,2.227,2.227
	c11.569-12.486,23.262-34.2,42.288-35.225c-0.453-0.79-0.907-1.58-1.359-2.369c-6.74,11.081-17.948,20.351-18.219,34.23
	c-0.026,1.338,1.758,2.134,2.688,1.113c4.964-5.45,7.393-12.643,12.859-17.683c1.497-1.379-0.736-3.601-2.227-2.227
	c-5.497,5.067-7.887,12.222-12.859,17.683c0.896,0.371,1.792,0.742,2.688,1.113c0.256-13.085,11.433-22.192,17.788-32.641
	c0.599-0.984-0.164-2.434-1.359-2.369c-20.324,1.095-32.174,22.827-44.515,36.147c-1.376,1.485,0.789,3.672,2.227,2.227
	c3.05-3.067,5.31-6.485,7.479-10.219c3.101-5.338,6.864-10.223,10.544-15.175c5.721-7.7,14.968-15.063,17.104-24.81
	c0.309-1.411-1.057-2.377-2.313-1.779c-15.779,7.516-30.738,17.369-42.113,30.789c0.824,0.636,1.648,1.272,2.473,1.908
	C40.8,55.035,48.746,44.078,60.822,37.243C62.589,36.243,61.002,33.521,59.232,34.523L59.232,34.523z"/>
<path fill="#FFFFFF" d="M138.266,91.117c-0.375,0-0.751-0.111-1.076-0.336c-0.704-0.488-0.992-1.388-0.702-2.193
	c0.897-2.496,2.368-4.639,3.788-6.712c0.015-0.021,0.029-0.041,0.042-0.062c0.288-0.699,0.587-1.398,0.911-2.05
	c0.396-0.799,0.797-1.614,1.201-2.438c1.807-3.685,3.781-7.709,6.082-11.396c0.008-0.018,0.017-0.037,0.025-0.056
	c1.521-3.36,3.094-6.835,4.797-10.199c0.281-0.554,0.595-1.128,0.918-1.718c0.083-0.152,0.166-0.304,0.25-0.458
	c-1.454,1.355-2.787,2.942-4.159,4.576l-0.141,0.167c-3.866,4.602-7.339,8.754-10.696,12.974c-0.426,0.535-1.036,1.483-1.684,2.488
	c-2.703,4.197-4.812,7.207-7.321,7.69c-0.849,0.166-1.706-0.272-2.071-1.061c-0.365-0.787-0.147-1.722,0.528-2.267
	c0.435-0.35,0.835-0.966,1.122-1.666c-0.506-0.74-0.424-1.752,0.227-2.402c0.164-0.164,0.315-0.337,0.468-0.511l0.231-0.259
	c0.205-0.229,0.458-0.398,0.734-0.502c2.643-2.576,4.486-5.871,6.424-9.332c0.532-0.952,1.064-1.903,1.613-2.837l2.377-4.063
	c2.235-3.825,4.542-7.774,6.895-11.638c-3.318,1.613-6.486,3.86-8.726,5.795c-8.626,7.453-17.058,17.497-22.989,27.317
	c-0.475,0.926-1,1.848-1.607,2.752c-0.563,0.841-1.695,1.087-2.558,0.558c-0.865-0.531-1.155-1.649-0.66-2.534
	c0.487-0.87,0.995-1.743,1.522-2.619c0.652-1.284,1.213-2.617,1.795-3.997c1.176-2.792,2.393-5.678,4.484-8.378
	c6.078-7.846,12.968-15.741,20.529-23.53c-0.139,0.025-0.277,0.051-0.414,0.08c-1.891,0.4-3.647,1.362-5.507,2.381
	c-0.544,0.298-1.094,0.599-1.655,0.893c-4.472,2.332-8.503,5.037-12.771,7.9c-1.69,1.135-3.388,2.273-5.116,3.39
	c-0.223,0.144-0.471,0.317-0.737,0.504c-1.858,1.296-4.663,3.255-7.312,1.774c-0.911-0.51-1.236-1.662-0.727-2.572
	c0.51-0.911,1.663-1.233,2.572-0.727c0.59,0.329,2.558-1.054,3.301-1.573c0.307-0.215,0.595-0.415,0.852-0.582
	c1.711-1.104,3.389-2.23,5.062-3.353c4.165-2.794,8.472-5.684,13.128-8.113c0.539-0.281,1.066-0.569,1.588-0.855
	c2.018-1.105,4.104-2.248,6.539-2.764c0.868-0.184,1.705-0.275,2.514-0.362c1.34-0.146,2.497-0.271,3.539-0.769
	c0.836-0.397,1.83-0.136,2.359,0.618c0.531,0.754,0.439,1.78-0.215,2.429c-2.143,2.126-4.236,4.26-6.277,6.402
	c3.214-2.24,7.114-4.382,10.855-5.384c0.607-0.165,1.254-0.014,1.729,0.398c0.473,0.412,0.712,1.032,0.637,1.655
	c-0.193,1.595-0.965,2.792-1.71,3.951c-0.153,0.238-0.31,0.479-0.462,0.729c-2.223,3.638-4.414,7.373-6.543,11.016
	c0.408-0.488,0.822-0.98,1.24-1.478l0.141-0.167c2.859-3.405,5.814-6.924,10.259-8.728c0.622-0.252,1.331-0.156,1.862,0.253
	c0.532,0.409,0.807,1.07,0.723,1.735c-0.307,2.421-1.562,4.738-2.685,6.789c1.118-0.538,2.331-0.763,3.603-0.422
	c2.318,0.619,3.121,1.889,3.387,2.846c0.729,2.62-1.775,5.214-3.432,6.931L161,65.221c-0.734,0.765-1.595,1.602-2.514,2.495
	c-3.05,2.968-7.049,6.857-8.541,10.43c0.023,0.03,0.045,0.061,0.066,0.093c0.543,0.817,0.365,1.903-0.381,2.511
	c-0.498,0.701-1.186,1.033-2.111,1.035c0,0-0.002,0-0.003,0c-0.542,0-1.056-0.232-1.415-0.637c-0.185-0.208-0.318-0.454-0.396-0.715
	c-0.633,1.106-1.342,2.16-2.042,3.185c-0.042,0.104-0.085,0.208-0.128,0.312c-0.961,2.363-2.051,5.042-4.046,6.738
	C139.138,90.965,138.702,91.117,138.266,91.117z M151.863,67.69c-0.402,0.887-0.807,1.78-1.216,2.676
	c1.662-1.913,3.515-3.716,5.204-5.359c0.886-0.862,1.717-1.669,2.426-2.406l0.17-0.176c1.535-1.591,2.37-2.677,2.486-3.232
	c-0.104-0.064-0.314-0.167-0.697-0.27c-1.477-0.392-4.103,2.938-5.087,4.193l-0.447,0.565
	C153.697,64.93,152.756,66.277,151.863,67.69z"/>
<path fill="#FFFFFF" d="M59.642,162.828c-0.236,0-0.477-0.045-0.709-0.139c-0.941-0.382-1.412-1.438-1.067-2.393
	c0.465-1.287,0.94-2.551,1.424-3.791c0.722-2.321,1.242-4.734,1.781-7.239c0.699-3.243,1.421-6.595,2.64-9.841
	c2.228-5.934,6-11.799,10.91-16.963c0.32-0.338,0.865-0.762,1.879-1.544c0.956-0.736,3.11-2.397,4.265-3.585
	c-1.12,0.033-3.324,0.449-7.434,2.261c-1.81,0.798-3.199,1.825-4.58,3.222c-3.258,5.907-7.141,11.486-10.945,16.951
	c-2.146,3.081-4.334,6.225-6.39,9.408c-0.137,0.304-0.281,0.635-0.429,0.973c-1.158,2.647-2.47,5.648-4.513,6.619
	c-0.741,0.353-1.624,0.184-2.187-0.414c-0.562-0.598-0.674-1.49-0.277-2.207c1.264-2.291,2.643-4.554,4.083-6.789
	c0.171-0.374,0.339-0.719,0.501-1.018c3.978-7.312,8.853-15.787,14.856-23.206c0.718-0.886,1.445-1.758,2.235-2.59
	c0.671-1.233,1.312-2.48,1.917-3.741c-0.486,0.371-0.972,0.738-1.454,1.104c-2.335,1.767-4.75,3.594-6.907,5.585
	c-5.752,5.311-10.641,10.647-14.946,16.315c-0.515,0.678-1.235,2.019-1.998,3.439c-2.166,4.029-4.62,8.598-7.827,9.234
	c-0.674,0.133-1.367-0.107-1.81-0.631c-0.444-0.522-0.569-1.246-0.327-1.889c1.764-4.678,5.454-9.755,8.709-14.234
	c1.054-1.45,2.062-2.837,2.936-4.119c4.584-6.721,9.696-13.08,14.125-18.442c-1.439,1.192-2.908,2.374-4.394,3.431
	c-0.821,0.584-1.652,1.143-2.48,1.699c-1.852,1.246-3.601,2.422-5.188,3.842c-3.202,2.863-5.493,6.385-7.919,10.113
	c-1.621,2.492-3.298,5.07-5.261,7.405c-0.672,0.797-1.862,0.901-2.663,0.229c-0.798-0.672-0.902-1.863-0.231-2.662
	c1.814-2.157,3.355-4.525,4.987-7.033c2.454-3.771,4.991-7.672,8.567-10.871c1.782-1.592,3.723-2.897,5.599-4.159
	c0.802-0.538,1.605-1.079,2.398-1.644c1.891-1.345,3.816-2.958,5.679-4.519c2.658-2.228,5.407-4.53,8.273-6.26
	c0.692-0.418,1.571-0.349,2.19,0.17c0.619,0.519,0.839,1.374,0.549,2.128c-1.354,3.513-3.983,6.672-6.302,9.46l-0.661,0.795
	c-1.287,1.558-2.635,3.201-4.012,4.915c2.135-1.912,4.417-3.639,6.63-5.312c2.512-1.9,4.885-3.694,7.062-5.737
	c0.634-0.594,1.589-0.681,2.317-0.21c0.729,0.471,1.044,1.376,0.764,2.197c-0.562,1.647-1.194,3.264-1.884,4.854
	c6.474-2.81,10.414-3.177,12.385-1.159c0.517,0.53,0.772,1.235,0.72,1.989c-0.135,1.917-2.179,3.812-6.424,7.086
	c-0.572,0.441-1.286,0.992-1.451,1.157c-3.427,3.605-6.253,7.564-8.316,11.628c0.832-1.33,1.682-2.61,2.545-3.839
	c0.236-0.335,0.477-0.696,0.724-1.068c1.284-1.928,2.738-4.113,4.917-5.063c0.601-0.26,1.29-0.193,1.828,0.178
	c0.538,0.37,0.846,0.992,0.814,1.646c-0.041,0.856-0.011,1.64,0.089,2.34c0.638,0.249,1.104,0.83,1.19,1.53
	c0.694,5.661-1.629,10.396-3.876,14.973c-1.634,3.33-3.178,6.477-3.474,9.787c-0.09,1.014-0.96,1.758-1.984,1.719
	c-1.016-0.055-1.807-0.904-1.788-1.921c0.002-0.122-0.001-0.245-0.005-0.368c-0.009-0.336-0.012-0.673,0.021-0.999
	c0.032-0.317,0.14-0.608,0.306-0.856c0.668-3.193,2.12-6.149,3.531-9.025c1.881-3.833,3.669-7.477,3.612-11.471
	c-0.418-0.232-0.745-0.616-0.891-1.092c-0.068-0.223-0.13-0.451-0.185-0.687c-0.331,0.46-0.651,0.942-0.96,1.405
	c-0.266,0.4-0.525,0.789-0.779,1.15c-4.379,6.218-8.351,13.859-11.83,22.753c-0.417,1.326-0.9,2.64-1.48,3.927
	C61.051,162.412,60.364,162.828,59.642,162.828z"/>
<path fill="#FFFFFF" d="M137.863,161.203c-0.381,0-0.762-0.115-1.088-0.345c-0.605-0.427-0.906-1.169-0.769-1.897
	c0.354-1.869,1.429-3.355,2.376-4.668c0.273-0.379,0.547-0.756,0.797-1.137c4.127-6.319,7.236-11.521,9.786-16.371l0.138-0.26
	c6.245-11.806,5.791-14.959,5.628-15.487c-0.317,0.03-0.794,0.14-1.433,0.599c-0.418,1.086-0.863,2.114-1.273,3.057
	c-3.357,7.723-8.125,14.77-12.736,21.584l-1.253,1.855c-1.095,1.622-2.33,3.229-3.524,4.781c-1.653,2.15-3.215,4.18-4.442,6.254
	c-0.464,0.787-1.423,1.131-2.282,0.81c-0.856-0.315-1.363-1.2-1.205-2.1c0.771-4.364,3.479-8.464,5.869-12.081
	c0.482-0.729,0.953-1.441,1.391-2.131c1.455-2.293,2.884-4.761,4.266-7.146c2.701-4.662,5.494-9.484,8.836-13.693
	c0.725-0.913,1.828-2.303,3.161-3.465c0.548-1.575,0.969-3.219,1.013-4.775c-1.73,1.565-3.574,3.96-5.039,5.862
	c-0.824,1.071-1.604,2.083-2.312,2.905c-4.395,5.088-8.303,10.93-12.084,16.58c-1.451,2.17-2.896,4.33-4.365,6.444
	c-0.713,1.027-1.43,2.43-2.189,3.915c-1.429,2.791-2.905,5.677-4.955,7.355c-0.67,0.552-1.627,0.574-2.322,0.057
	c-0.695-0.514-0.952-1.437-0.623-2.237c1.568-3.808,3.767-7.471,5.894-11.014l0.8-1.333c4.422-7.41,8.236-15.07,11.662-23.419
	c0.25-0.61,0.609-1.38,1.016-2.251c0.777-1.663,1.949-4.173,2.617-6.418c-0.128,0.102-0.256,0.203-0.383,0.306
	c-1.595,1.273-3.102,2.477-4.23,4.109l-2.088,3.03c-3.939,5.722-8.012,11.64-12.479,17.305c-0.495,0.628-1.297,1.442-2.225,2.386
	c-1.039,1.054-2.971,3.018-3.242,3.673c-0.238,1.017-1.245,1.608-2.26,1.369c-1.016-0.238-1.635-1.293-1.396-2.31
	c0.318-1.36,1.801-2.941,4.205-5.384c0.814-0.828,1.584-1.608,1.95-2.074c4.392-5.568,8.249-11.174,12.333-17.107l2.094-3.037
	c1.444-2.09,3.24-3.525,4.979-4.913c1.268-1.012,2.464-1.968,3.449-3.121c0.439-0.515,1.123-0.754,1.787-0.63
	c0.665,0.126,1.213,0.598,1.435,1.238c1.294,3.729-1.259,9.189-3.122,13.178c-0.377,0.808-0.711,1.521-0.943,2.086
	c-0.58,1.414-1.171,2.809-1.774,4.188c1.163-1.52,2.361-3.006,3.601-4.441c0.641-0.741,1.389-1.713,2.18-2.74
	c2.623-3.406,5.596-7.268,8.77-8.521c0.48-0.19,1.016-0.175,1.485,0.041c0.469,0.217,0.829,0.615,0.996,1.104
	c0.729,2.127,0.688,4.341,0.273,6.482c0.132-0.002,0.269,0.002,0.404,0.012c1.325,0.104,2.39,0.768,2.997,1.871
	c0.92,1.673,1.428,5.164-4.015,16.139c1.311-0.721,2.89-1.379,4.12-1.893l0.521-0.217c0.963-0.402,2.069,0.048,2.473,1.01
	c0.404,0.963-0.047,2.07-1.01,2.475l-0.53,0.222c-1.46,0.608-3.458,1.441-4.552,2.198c-3.023,2.093-5.036,5.973-7.168,10.08
	c-2.38,4.588-4.842,9.332-9.027,11.798C138.525,161.117,138.194,161.203,137.863,161.203z"/>
</svg>
