<?xml version="1.0" encoding="utf-8"?>
<!-- Generator: Adobe Illustrator 16.0.0, SVG Export Plug-In . SVG Version: 6.00 Build 0)  -->
<!DOCTYPE svg PUBLIC "-//W3C//DTD SVG 1.1//EN" "http://www.w3.org/Graphics/SVG/1.1/DTD/svg11.dtd">
<svg version="1.1" id="Layer_1" xmlns="http://www.w3.org/2000/svg" xmlns:xlink="http://www.w3.org/1999/xlink" x="0px" y="0px"
	 width="201.26px" height="249.45px" viewBox="0 0 201.26 249.45" enable-background="new 0 0 201.26 249.45" xml:space="preserve">
<g>
	<path fill="#FFFFFF" d="M25.082,241.114c-0.418,0-0.84-0.13-1.2-0.4c-0.883-0.664-1.061-1.918-0.397-2.801
		c7.623-10.145,12.191-22.732,16.609-34.905c2.256-6.216,4.574-12.604,7.292-18.632c-1.69,0.795-3.388,1.95-5.053,3.084
		c-3.176,2.162-6.18,4.201-9.306,3.877c-0.917-0.098-1.65-0.809-1.773-1.723c-0.705-5.23-4.228-8.772-7.958-12.522
		c-1.26-1.267-2.562-2.575-3.767-3.966c-3.657-4.22-6.02-10.22-6.654-16.895c-0.293-3.098-0.131-6.439,0.025-9.672
		c0.216-4.454,0.439-9.061-0.489-13.193c-1.156-5.146-3.043-10.04-5.041-15.219c-2.817-7.306-5.73-14.86-6.425-23.195
		c-1.31-15.72,6.171-27.082,13.405-38.07c2.684-4.075,5.458-8.29,7.766-12.692c1.029-1.962,2.021-3.944,3.009-5.919
		c6.368-12.724,12.953-25.88,28.759-31.753c21-7.801,51.056-4.72,69.894,2.357c7.11,2.671,13.862,6.311,20.393,9.83
		c5.944,3.204,12.092,6.517,18.418,9.039c4.715,1.879,19.602,7.47,31.074,8.068c1.418-0.033,2.869-0.041,4.365-0.041
		c1.074,0,1.956,0.848,1.998,1.921c0.043,1.073-0.77,1.988-1.84,2.073c-1.463,0.116-3.009,0.125-4.604,0.048
		c-5.467,0.129-10.216,0.636-15.516,2.529c-9.22,3.292-12.184,7.107-17.563,14.035c-0.521,0.671-1.063,1.368-1.632,2.093
		c-0.684,0.869-1.941,1.019-2.809,0.338c-0.868-0.682-1.02-1.939-0.338-2.808c0.564-0.719,1.102-1.411,1.619-2.077
		c5.455-7.024,9.06-11.665,19.377-15.348c1.06-0.378,2.1-0.705,3.128-0.989c-7.684-1.911-14.839-4.571-18.74-6.126
		c-6.541-2.607-12.791-5.976-18.835-9.233c-6.413-3.457-13.045-7.03-19.901-9.607c-18.145-6.816-47.016-9.812-67.094-2.352
		c-14.328,5.324-20.277,17.21-26.575,29.793c-1,1.998-2.003,4.002-3.043,5.987c-2.4,4.578-5.23,8.877-7.968,13.034
		c-7.177,10.9-13.956,21.196-12.76,35.538c0.647,7.763,3.456,15.045,6.171,22.088c1.961,5.087,3.99,10.348,5.21,15.781
		c1.047,4.662,0.811,9.543,0.583,14.264c-0.157,3.234-0.305,6.289-0.039,9.102c0.555,5.852,2.578,11.056,5.694,14.651
		c1.116,1.287,2.369,2.547,3.581,3.765c3.625,3.646,7.361,7.4,8.721,12.892c1.528-0.489,3.402-1.765,5.229-3.009
		c3.206-2.184,6.84-4.656,10.875-4.789c0.703-0.015,1.367,0.325,1.748,0.918c0.381,0.592,0.422,1.342,0.108,1.972
		c-3.444,6.921-6.248,14.647-8.959,22.118c-4.518,12.449-9.19,25.322-17.171,35.944C26.289,240.839,25.689,241.114,25.082,241.114z"
		/>
	<path fill="#FFFFFF" d="M94.88,249.167c-0.403,0-0.811-0.121-1.164-0.374c-0.898-0.644-1.104-1.893-0.46-2.79
		c3.37-4.703,5.624-10.492,8.01-16.619c2.824-7.255,5.745-14.757,10.737-20.457c5.66-6.463,14.02-7.626,22.103-8.75
		c2.633-0.366,5.119-0.712,7.487-1.234c16.475-3.628,18.581-9.58,18.403-15.473c-0.047-1.543-0.292-3.17-0.551-4.893
		c-0.791-5.254-1.688-11.209,3.298-15.961c0.417-0.396,0.988-0.594,1.556-0.545c0.87,0.078,1.381,0,1.623-0.073
		c-0.149-0.722-1.378-2.446-3.027-3.057c-0.844-0.313-1.375-1.151-1.297-2.05c0.078-0.896,0.746-1.631,1.632-1.793
		c1.903-0.348,3.156-0.933,3.439-1.604c0.565-1.34-1.6-4.562-3.032-6.693c-0.798-1.188-1.552-2.31-2.128-3.391
		c-0.348-0.652-0.308-1.442,0.104-2.056c3.222-4.8,9.295-3.872,14.173-3.126c3.312,0.504,6.735,1.027,8.303-0.265
		c0.852-0.702,1.326-2.099,1.411-4.153c0.503-12.23-7.119-20.791-14.642-27.551c-5.309-4.771-10.298-10.093-10.856-16.677
		c-0.44-5.189,1.411-7.855,3.202-10.433c0.814-1.174,1.657-2.388,2.353-3.929c2.196-4.868,2.006-10.685-0.483-14.819
		c-1.33-2.209-3.897-4.904-8.573-5.199c-1.103-0.069-1.939-1.02-1.87-2.122c0.069-1.102,1.008-1.931,2.122-1.87
		c4.997,0.315,9.17,2.846,11.748,7.127c3.195,5.306,3.465,12.405,0.703,18.527c-0.846,1.876-1.839,3.305-2.714,4.566
		c-1.637,2.357-2.82,4.06-2.501,7.813c0.44,5.197,4.848,9.819,9.544,14.04c8.215,7.383,16.535,16.803,15.964,30.69
		c-0.135,3.285-1.071,5.6-2.864,7.076c-2.948,2.429-7.271,1.769-11.449,1.131c-4.399-0.67-7.583-1.002-9.453,0.523
		c0.37,0.59,0.792,1.217,1.227,1.865c2.252,3.35,4.804,7.146,3.398,10.478c-0.462,1.095-1.274,1.978-2.456,2.657
		c1.439,1.578,2.338,3.564,1.942,5.321c-0.217,0.966-1.125,3.075-4.889,3.075c-0.006,0-0.012,0-0.018,0
		c-2.837,3.225-2.23,7.255-1.534,11.879c0.266,1.764,0.54,3.586,0.594,5.367c0.442,14.659-14.962,18.052-21.541,19.5
		c-2.521,0.557-5.203,0.93-7.797,1.29c-7.357,1.022-14.966,2.081-19.644,7.423c-4.529,5.172-7.321,12.34-10.021,19.273
		c-2.37,6.089-4.822,12.385-8.486,17.498C96.117,248.878,95.503,249.167,94.88,249.167z"/>
</g>
<path fill="#FFD400" d="M104.917,139.386c-1.033,0-1.908-0.795-1.992-1.842c-0.669-8.393-0.01-16.861,0.627-25.051
	c0.547-7.042,1.113-14.324,0.82-21.466l-0.687-16.658c-0.443-10.758-0.886-21.483-1.323-32.263c-0.045-1.104,0.813-2.035,1.917-2.08
	c1.095-0.039,2.035,0.813,2.079,1.917c0.438,10.778,0.88,21.503,1.324,32.26l0.686,16.658c0.304,7.379-0.272,14.782-0.829,21.94
	c-0.624,8.035-1.271,16.344-0.626,24.423c0.087,1.101-0.734,2.064-1.835,2.152C105.023,139.384,104.97,139.386,104.917,139.386z"/>
<path fill="#FFD400" d="M111.794,45.064c-0.131,0-0.263-0.013-0.396-0.04c-9.59-1.926-20.249-1.588-30.559-1.261
	c-2.699,0.085-5.378,0.17-8.017,0.215c-1.098,0.025-2.015-0.861-2.033-1.966c-0.019-1.104,0.861-2.015,1.966-2.033
	c2.619-0.044,5.278-0.129,7.958-0.214c10.537-0.335,21.431-0.68,31.473,1.337c1.083,0.218,1.785,1.272,1.567,2.355
	C113.562,44.408,112.728,45.064,111.794,45.064z"/>
<path fill="#FFD400" d="M80.109,140.405c-0.052,0-0.105-0.002-0.159-0.007c-1.101-0.087-1.924-1.05-1.837-2.15
	c0.923-11.732-0.638-24.056-2.147-35.973c-1.05-8.288-2.135-16.857-2.396-25.239c-0.189-6.047,0.579-12.177,1.322-18.104
	c0.803-6.41,1.562-12.464,1.21-18.396c-0.065-1.103,0.776-2.049,1.878-2.115c1.09-0.065,2.049,0.775,2.115,1.878
	c0.373,6.3-0.444,12.822-1.234,19.13c-0.724,5.775-1.472,11.747-1.292,17.482c0.256,8.192,1.329,16.666,2.367,24.861
	c1.535,12.118,3.121,24.649,2.166,36.79C82.019,139.609,81.143,140.405,80.109,140.405z"/>
<path fill="#FFD400" d="M109.528,137.181c-0.388,0-0.779-0.113-1.124-0.348c-5.563-3.788-21.003-4.084-29.687-3.092
	c-1.101,0.125-2.089-0.662-2.214-1.76c-0.125-1.098,0.663-2.089,1.76-2.215c5.971-0.68,24.734-1.454,32.393,3.76
	c0.913,0.622,1.148,1.866,0.527,2.779C110.797,136.874,110.168,137.181,109.528,137.181z"/>
<g>
	<path fill="#FFD400" d="M83.587,150.112c-0.91,0-1.733-0.625-1.947-1.551c-0.249-1.076,0.422-2.149,1.499-2.398
		c4.602-1.064,19.046-3.072,24.876-0.135c0.986,0.496,1.383,1.699,0.886,2.686s-1.696,1.384-2.687,0.887
		c-4.166-2.102-16.652-0.816-22.175,0.46C83.888,150.096,83.736,150.112,83.587,150.112z"/>
	<path fill="#FFD400" d="M89.306,171.979c-3.117,0-7.022-0.277-9.984-0.487c-1.404-0.1-2.622-0.187-3.479-0.224
		c-1.104-0.049-1.958-0.983-1.91-2.087c0.048-1.104,0.972-1.97,2.086-1.909c0.884,0.039,2.139,0.127,3.585,0.23
		c3.346,0.237,7.926,0.562,10.99,0.457c2.259-0.078,4.725-0.725,7.111-1.349c2.9-0.76,5.896-1.545,8.688-1.349
		c1.102,0.078,1.932,1.035,1.854,2.137c-0.079,1.103-1.049,1.934-2.137,1.854c-2.129-0.152-4.685,0.52-7.391,1.229
		c-2.597,0.68-5.283,1.383-7.986,1.477C90.281,171.973,89.803,171.979,89.306,171.979z"/>
	<path fill="#FFD400" d="M79.893,172.788c-0.428,0-0.859-0.137-1.224-0.419c-6.117-4.743-3.077-20.64-0.917-25.279
		c0.467-1.001,1.657-1.436,2.657-0.969c1.001,0.466,1.435,1.655,0.969,2.657c-2.205,4.734-3.771,17.707-0.258,20.43
		c0.873,0.677,1.032,1.934,0.355,2.807C81.081,172.522,80.49,172.788,79.893,172.788z"/>
	<path fill="#FFD400" d="M101.901,176.454c-0.512,0-1.023-0.194-1.413-0.584c-0.782-0.781-0.783-2.047-0.002-2.828
		c1.625-1.627,1.742-6.369,1.845-10.551c0.098-3.953,0.19-7.687,1.398-10.23c0.475-0.997,1.667-1.421,2.665-0.947
		s1.422,1.667,0.948,2.664c-0.844,1.775-0.93,5.251-1.013,8.611c-0.128,5.173-0.261,10.521-3.014,13.279
		C102.926,176.259,102.414,176.454,101.901,176.454z"/>
	<path fill="#FFD400" d="M103.076,165.087c-0.914,0-1.74-0.631-1.949-1.561c-0.672-2.986-3.848-4.705-6.918-6.367
		c-2.691-1.457-5.234-2.834-6.47-5.156c-0.519-0.976-0.149-2.187,0.826-2.705c0.976-0.52,2.186-0.149,2.705,0.826
		c0.669,1.258,2.697,2.355,4.843,3.518c3.495,1.891,7.844,4.246,8.917,9.006c0.242,1.077-0.435,2.147-1.512,2.391
		C103.369,165.071,103.222,165.087,103.076,165.087z"/>
	<path fill="#FFD400" d="M86.78,169.065c-0.624,0-1.238-0.291-1.629-0.838c-1.099-1.537-2.949-2.652-4.739-3.73
		c-0.414-0.248-0.816-0.49-1.197-0.731c-0.935-0.589-1.214-1.823-0.625-2.759c0.587-0.934,1.823-1.216,2.758-0.625
		c0.359,0.227,0.739,0.455,1.128,0.689c2.039,1.228,4.35,2.619,5.93,4.831c0.642,0.898,0.434,2.147-0.465,2.79
		C87.589,168.944,87.182,169.065,86.78,169.065z"/>
	<path fill="#FFD400" d="M100.188,169.662c-0.223,0-0.449-0.038-0.67-0.116c-5.626-2.002-18.666-8.712-20.762-15.607
		c-0.321-1.057,0.275-2.174,1.332-2.495c1.058-0.323,2.174,0.274,2.495,1.332c1.352,4.448,11.727,10.671,18.275,13.002
		c1.041,0.37,1.584,1.515,1.213,2.555C101.78,169.151,101.01,169.662,100.188,169.662z"/>
</g>
<path fill="#FFD400" d="M105.39,52.715c-0.561,0-1.117-0.234-1.513-0.69c-2.514-2.901-7.013-5.718-11.398-5.495
	c-1.128,0.051-2.045-0.79-2.103-1.892c-0.058-1.103,0.789-2.044,1.892-2.103c6.144-0.33,11.712,3.499,14.633,6.87
	c0.724,0.835,0.633,2.098-0.202,2.821C106.32,52.555,105.854,52.715,105.39,52.715z"/>
<path fill="#FFD400" d="M103.846,64.198c-0.808,0-1.567-0.493-1.87-1.292c-1.554-4.105-7.26-6.66-12.778-9.132
	c-3.206-1.436-6.233-2.792-8.608-4.492c-0.898-0.643-1.104-1.892-0.461-2.791c0.643-0.898,1.891-1.105,2.791-0.461
	c2.047,1.466,4.897,2.742,7.914,4.093c6.265,2.805,12.742,5.707,14.884,11.366c0.392,1.033-0.129,2.188-1.162,2.579
	C104.32,64.156,104.081,64.198,103.846,64.198z"/>
<path fill="#FFD400" d="M107.913,81.495c-0.411,0-0.825-0.126-1.183-0.388c-1.476-1.084-2.965-2.199-4.468-3.323
	C94.227,71.77,85.917,65.552,76.79,61.767c-1.021-0.423-1.504-1.593-1.082-2.614c0.424-1.021,1.594-1.503,2.614-1.082
	c9.59,3.977,18.104,10.348,26.337,16.509c1.494,1.118,2.973,2.225,4.44,3.302c0.89,0.654,1.081,1.906,0.427,2.796
	C109.135,81.213,108.528,81.495,107.913,81.495z"/>
<path fill="#FFD400" d="M106.342,92.307c-0.423,0-0.851-0.134-1.213-0.411c-1.981-1.515-3.099-3.576-4.18-5.568
	c-0.913-1.684-1.775-3.274-3.098-4.422c-3.572-3.106-16.083-9.69-20.316-9.239c-1.093,0.11-2.083-0.682-2.198-1.78
	c-0.115-1.098,0.682-2.083,1.78-2.198c5.998-0.627,19.485,6.831,23.358,10.199c1.869,1.624,2.996,3.701,3.99,5.534
	c0.921,1.698,1.791,3.302,3.094,4.298c0.877,0.671,1.045,1.926,0.374,2.804C107.539,92.036,106.944,92.307,106.342,92.307z"/>
<path fill="#FFD400" d="M106.758,102.366c-0.179,0-0.36-0.024-0.541-0.075c-2.336-0.656-4.252-2.853-6.104-4.977
	c-1.211-1.389-2.464-2.826-3.663-3.627c-1.06-0.709-2.971-1.702-4.995-2.752c-7.548-3.921-12.949-6.972-13.689-10.547
	c-0.224-1.082,0.471-2.14,1.553-2.364c1.08-0.225,2.14,0.471,2.364,1.553c0.412,1.99,7.979,5.92,11.617,7.809
	c2.216,1.151,4.13,2.146,5.374,2.977c1.641,1.097,3.072,2.737,4.455,4.323c1.398,1.604,2.984,3.422,4.17,3.755
	c1.063,0.299,1.684,1.403,1.386,2.466C108.435,101.789,107.632,102.366,106.758,102.366z"/>
<path fill="#FFD400" d="M105.857,113.15c-0.539,0-1.076-0.216-1.471-0.644c-2.805-3.038-7.28-5.171-12.019-7.43
	c-6.39-3.045-12.997-6.195-15.946-12.041c-0.498-0.986-0.102-2.189,0.885-2.687c0.987-0.499,2.189-0.102,2.687,0.885
	c2.333,4.625,8.047,7.348,14.096,10.231c4.873,2.322,9.911,4.724,13.238,8.328c0.749,0.812,0.698,2.077-0.113,2.826
	C106.828,112.975,106.342,113.15,105.857,113.15z"/>
<path fill="#FFD400" d="M106.354,125.221c-0.612,0-1.216-0.28-1.608-0.809c-2.814-3.794-7.433-5.696-12.323-7.709
	c-5.022-2.067-10.214-4.205-13.816-8.604c-0.699-0.855-0.574-2.115,0.281-2.815c0.855-0.699,2.115-0.574,2.815,0.281
	c2.962,3.618,7.47,5.474,12.243,7.439c5.18,2.132,10.537,4.337,14.013,9.025c0.658,0.887,0.472,2.14-0.415,2.798
	C107.186,125.092,106.769,125.221,106.354,125.221z"/>
<path fill="#FFD400" d="M98.717,135.609c-0.369,0-0.742-0.103-1.076-0.315c-1.504-0.963-3.195-1.951-4.985-2.998
	c-4.189-2.447-8.52-4.979-11.831-7.933c-0.824-0.735-0.896-2-0.161-2.824c0.736-0.824,2-0.896,2.824-0.161
	c3.011,2.687,7.167,5.116,11.186,7.464c1.826,1.067,3.551,2.075,5.124,3.082c0.93,0.595,1.202,1.832,0.606,2.762
	C100.021,135.283,99.376,135.609,98.717,135.609z"/>
</svg>
