<?xml version="1.0" encoding="utf-8"?>
<!-- Generator: Adobe Illustrator 16.0.0, SVG Export Plug-In . SVG Version: 6.00 Build 0)  -->
<!DOCTYPE svg PUBLIC "-//W3C//DTD SVG 1.1//EN" "http://www.w3.org/Graphics/SVG/1.1/DTD/svg11.dtd">
<svg version="1.1" id="Layer_1" xmlns="http://www.w3.org/2000/svg" xmlns:xlink="http://www.w3.org/1999/xlink" x="0px" y="0px"
	 width="167.24px" height="240.94px" viewBox="0 0 167.24 240.94" enable-background="new 0 0 167.24 240.94" xml:space="preserve">
<path fill="#FFFFFF" d="M81.133,240.645c-1.076,0-1.965-0.855-1.998-1.939c-0.383-12.58-2.629-25.961-4.777-37.392
	c-0.385-2.055-0.656-4.298-0.918-6.468c-1.361-11.284-2.831-18.157-11.7-17.975c-3.355,0.057-6.823,0.685-10.494,1.35
	c-8.759,1.588-17.814,3.229-25.708-3.117c-4.146-3.331-4.029-7.362-3.937-10.602c0.087-2.997,0.04-4.833-1.858-6.435
	c-1.681-0.408-2.836-1.244-3.438-2.49c-1.188-2.458,0.361-5.353,1.606-7.678c0.39-0.728,0.757-1.413,0.923-1.876
	c0.436-1.209,1.068-1.952,1.487-2.443c0.132-0.154,0.312-0.365,0.343-0.438l0,0c0,0,0.053-0.301-0.305-1.27
	c-0.284-0.772-0.725-0.967-2.016-1.369c-1.086-0.338-2.436-0.758-3.315-2.07c-3.05-4.554-0.388-8.778,1.751-12.173
	c1.943-3.084,3.155-5.273,2.545-7.539c-9.908,0.666-15.566-1.179-17.273-5.625c-3.989-10.388,18.352-28.762,21.115-30.976
	c2.906-4.336,1.537-7.918-0.189-12.434c-0.449-1.177-0.915-2.393-1.316-3.667c-1.957-6.211-1.369-14.791,1.432-20.863
	c1.82-3.947,4.655-5.885,7.156-7.595c1.67-1.141,3.111-2.126,4.137-3.578c1.385-1.957,1.203-2.134,0.02-3.283
	c-1.271-1.235-3.4-3.302-2.354-7.459c1.386-5.508,8.61-8.91,13.392-11.161c0.441-0.208,0.86-0.405,1.251-0.593
	C65.667,2.363,85.498,1.09,104.102,1.075c0.025,0,0.051,0,0.076,0c20.484,0,42.613,7.026,43.385,26.754
	c0.043,1.104-0.816,2.034-1.92,2.077c-1.096,0.043-2.033-0.816-2.076-1.92c-0.852-21.782-32.861-22.91-39.412-22.91
	c-0.018,0-0.033,0-0.049,0C85.975,5.09,66.68,6.314,48.426,15.093c-0.399,0.192-0.829,0.395-1.281,0.607
	c-3.85,1.812-10.293,4.846-11.216,8.518c-0.482,1.92,0.138,2.522,1.263,3.614c1.849,1.795,3.561,4.078,0.459,8.462
	c-1.441,2.038-3.324,3.325-5.145,4.57c-2.275,1.555-4.424,3.024-5.782,5.968c-2.381,5.162-2.905,12.726-1.248,17.985
	c0.365,1.16,0.809,2.319,1.237,3.441c1.83,4.785,3.902,10.209-0.43,16.388c-0.12,0.172-0.267,0.324-0.434,0.45
	c-2.747,2.068-8.553,7.15-13.289,12.671c-5.316,6.198-7.787,11.262-6.775,13.895c1.018,2.65,6.221,3.699,14.654,2.959
	c0.795-0.07,1.555,0.339,1.934,1.04c2.686,4.961-0.028,9.269-2.209,12.73c-2.182,3.461-3.342,5.531-1.812,7.813
	c0.094,0.14,0.801,0.359,1.182,0.479c1.43,0.444,3.589,1.117,4.58,3.803c1.143,3.101,0.299,4.459-0.747,5.687
	c-0.323,0.38-0.58,0.681-0.769,1.205c-0.266,0.737-0.7,1.549-1.16,2.408c-0.502,0.937-1.834,3.425-1.531,4.05
	c0.021,0.046,0.281,0.262,1.066,0.404c0.307,0.055,0.596,0.181,0.844,0.368c3.984,2.988,3.873,6.881,3.783,10.008
	c-0.086,2.951-0.152,5.283,2.443,7.369c6.473,5.202,14.252,3.793,22.489,2.299c3.667-0.664,7.459-1.352,11.14-1.414
	c0.119-0.002,0.238-0.003,0.354-0.003c12.792,0,14.229,11.91,15.385,21.498c0.266,2.203,0.518,4.283,0.879,6.209
	c2.176,11.581,4.453,25.154,4.844,38.009c0.033,1.104-0.834,2.026-1.938,2.06C81.174,240.645,81.154,240.645,81.133,240.645z"/>
<path fill="#FFFFFF" d="M152.273,197.021c-0.389,0-0.779-0.112-1.125-0.347c-0.803-0.547-1.082-1.575-0.715-2.437
	c0.062-2.502-4.998-14.225-6.922-18.682c-0.816-1.893-1.408-3.261-1.684-3.989c-0.422-1.119-0.914-2.322-1.432-3.587
	c-2.793-6.833-6.271-15.337-4.008-22.491c1.523-4.815,5.113-6.837,8.281-8.619c1.6-0.901,3.111-1.752,4.457-2.933
	c3.637-3.189,4.094-6.259,4.85-11.343c0.113-0.77,0.232-1.57,0.369-2.407c0.988-6.063,2.346-12.126,3.66-17.99
	c2.799-12.497,5.693-25.419,5.039-38.721c-0.633-12.855-7.59-31.694-24.096-30.887c-1.062,0.035-2.041-0.797-2.096-1.9
	c-0.053-1.104,0.799-2.041,1.902-2.095c0.42-0.021,0.838-0.031,1.248-0.031c18.555,0,26.34,20.569,27.037,34.717
	c0.68,13.843-2.275,27.034-5.133,39.791c-1.301,5.808-2.645,11.812-3.615,17.76c-0.133,0.817-0.248,1.599-0.359,2.351
	c-0.799,5.366-1.428,9.604-6.17,13.763c-1.658,1.454-3.424,2.448-5.131,3.41c-3.008,1.692-5.383,3.029-6.43,6.341
	c-1.828,5.773,1.346,13.534,3.896,19.771c0.531,1.3,1.037,2.537,1.471,3.687c0.242,0.643,0.848,2.044,1.613,3.818
	c7.195,16.667,8.023,20.3,6.744,22.176C153.541,196.715,152.912,197.021,152.273,197.021z"/>
<path fill="#FFD400" d="M69.056,60.779c-0.063,0-0.128-0.003-0.192-0.009c-1.1-0.105-1.906-1.082-1.801-2.181
	c0.184-1.92-3.222-9.482-7.771-14.076c-2.449-2.472-3.804-2.563-4.16-2.533c-1.097,0.088-2.069-0.72-2.164-1.821
	c-0.095-1.101,0.721-2.069,1.821-2.164c2.247-0.194,4.719,1.053,7.345,3.704c4.336,4.377,9.3,13.207,8.911,17.271
	C70.945,60.004,70.074,60.779,69.056,60.779z"/>
<path fill="#FFD400" d="M111.334,129.236c-0.848,0-1.635-0.545-1.904-1.396c-3.156-9.951-5.42-27.292-3.404-39.829
	c0.779-4.861,2.82-12.05,5.453-16.348c1.109-1.81,2.336-3.167,3.523-4.479c1.539-1.703,2.994-3.311,4.027-5.815
	c2.551-6.176,2.529-12.145-0.059-17.26c-3.105-6.137-9.744-10.858-18.217-12.953c-8.09-2-15.73-1.633-21.514,1.033
	c-1.428,0.658-3.904,2.321-6.526,4.082c-8.102,5.439-13.669,8.908-17.12,7.6c-1.033-0.391-1.554-1.546-1.162-2.579
	c0.391-1.033,1.544-1.553,2.578-1.162c1.858,0.616,9.999-4.847,13.475-7.18c2.877-1.933,5.363-3.601,7.08-4.394
	c8.465-3.903,17.805-2.853,24.15-1.283c9.604,2.375,17.193,7.854,20.824,15.03c3.131,6.187,3.195,13.307,0.188,20.592
	c-1.297,3.146-3.057,5.091-4.758,6.972c-1.113,1.23-2.164,2.393-3.08,3.886c-2.244,3.664-4.172,10.266-4.914,14.893
	c-1.918,11.928,0.252,28.474,3.268,37.985c0.334,1.053-0.25,2.177-1.303,2.511C111.738,129.206,111.535,129.236,111.334,129.236z"/>
<path fill="#FFD400" d="M84.492,130.578c-0.092,0-0.184-0.006-0.277-0.019c-1.094-0.152-1.857-1.162-1.707-2.257
	c0.709-5.102,0.58-10.227,0.443-15.652c-0.158-6.333-0.322-12.881,0.949-19.448c1.572-8.109,5.23-13.718,9.102-19.657
	c1.324-2.032,2.693-4.132,4.004-6.378c2.668-4.573,3.309-10.118,1.557-13.483c-1.131-2.175-3.213-3.403-6.186-3.65
	c-5.92-0.492-10.518,2.71-15.381,6.102c-4.354,3.037-8.855,6.178-14.486,6.649c-1.092,0.086-2.068-0.725-2.16-1.826
	c-0.092-1.101,0.725-2.068,1.826-2.16c4.559-0.381,8.432-3.083,12.533-5.944c5.229-3.647,10.631-7.42,18-6.808
	c5.52,0.459,8.16,3.402,9.402,5.79c2.389,4.589,1.725,11.56-1.65,17.345c-1.361,2.332-2.758,4.474-4.109,6.546
	c-3.809,5.845-7.1,10.894-8.523,18.234c-1.189,6.14-1.031,12.467-0.877,18.586c0.133,5.347,0.271,10.877-0.48,16.302
	C86.332,129.854,85.475,130.578,84.492,130.578z"/>
<path fill="#FFD400" d="M78.959,128.564c-0.16,0-0.32-0.02-0.477-0.057c-0.383,0.059-0.914,0.049-1.463-0.264
	c-0.592-0.336-0.989-0.904-1.183-1.69c-0.21-0.853,0.161-1.742,0.913-2.194c6.977-4.183,15.166-2.707,23.088-1.279
	c6.268,1.129,12.189,2.193,16.771,0.295c1.023-0.426,2.189,0.061,2.613,1.081s-0.061,2.19-1.08,2.613
	c-5.67,2.351-12.451,1.128-19.014-0.052c-6.32-1.139-12.832-2.312-18.178-0.268c-0.037,0.399-0.193,0.791-0.475,1.117
	C80.08,128.328,79.521,128.564,78.959,128.564z"/>
<path fill="#FFD400" d="M109.322,144.673c-0.178,0-0.357-0.024-0.537-0.074c-5.459-1.522-17.869-3.357-22.133-1.445
	c-1.006,0.45-2.191,0.004-2.645-1.005c-0.453-1.007-0.002-2.19,1.006-2.644c5.955-2.678,20.295-0.028,24.846,1.24
	c1.062,0.297,1.686,1.399,1.389,2.464C111.002,144.093,110.197,144.672,109.322,144.673z"/>
<path fill="#FFD400" d="M106.102,166.33c-1.785,0-3.521-0.039-4.973-0.153c-2.697-0.214-5.35-1.035-7.914-1.83
	c-2.672-0.828-5.201-1.611-7.33-1.555c-1.094,0.059-2.023-0.843-2.051-1.946c-0.029-1.104,0.842-2.023,1.945-2.052
	c2.809-0.078,5.756,0.845,8.621,1.732c2.355,0.729,4.791,1.484,7.043,1.662c3.057,0.242,7.656,0.119,11.012,0.031
	c1.445-0.038,2.697-0.071,3.578-0.071c1.105,0,2,0.896,2,2s-0.895,2-2,2c-0.855,0-2.07,0.032-3.471,0.069
	C110.646,166.269,108.336,166.33,106.102,166.33z"/>
<path fill="#FFD400" d="M112.008,167.49c-0.627,0-1.244-0.294-1.635-0.846c-0.637-0.901-0.424-2.149,0.479-2.787
	c3.631-2.567,2.643-15.596,0.648-20.422c-0.422-1.021,0.064-2.19,1.086-2.612c1.023-0.425,2.191,0.065,2.611,1.085
	c1.953,4.729,4.285,20.744-2.037,25.215C112.811,167.371,112.406,167.49,112.008,167.49z"/>
<path fill="#FFD400" d="M89.859,170.175c-0.543,0-1.082-0.219-1.477-0.65c-2.629-2.877-2.523-8.227-2.422-13.399
	c0.066-3.361,0.135-6.838-0.629-8.649c-0.43-1.018,0.047-2.191,1.064-2.62c1.02-0.432,2.191,0.048,2.621,1.065
	c1.094,2.596,1.02,6.329,0.943,10.283c-0.082,4.184-0.176,8.925,1.375,10.621c0.744,0.815,0.688,2.081-0.127,2.826
	C90.824,170.002,90.342,170.175,89.859,170.175z"/>
<path fill="#FFD400" d="M67.714,59.438c-0.118,0-0.237-0.011-0.356-0.032c-1.088-0.196-1.811-1.235-1.614-2.323
	c0.445-2.475,1.286-5.119,2.177-7.918c1.463-4.597,2.976-9.351,2.506-12.945c-0.143-1.095,0.63-2.099,1.725-2.242
	c1.102-0.138,2.1,0.63,2.242,1.725c0.584,4.477-1.064,9.661-2.66,14.675c-0.85,2.672-1.653,5.196-2.053,7.415
	C69.506,58.759,68.663,59.438,67.714,59.438z"/>
<path fill="#FFD400" d="M79.117,50.712c-0.982,0-1.84-0.726-1.979-1.728c-0.47-3.422,0.977-6.701,2.252-9.594
	c1.477-3.346,2.303-5.496,1.357-7.121c-0.557-0.955-0.232-2.179,0.723-2.735c0.953-0.555,2.178-0.232,2.734,0.722
	c2.039,3.505,0.342,7.353-1.154,10.748c-1.113,2.525-2.266,5.136-1.949,7.436c0.15,1.094-0.615,2.104-1.709,2.254
	C79.301,50.706,79.209,50.712,79.117,50.712z"/>
<path fill="#FFD400" d="M85.832,50.712c-0.51,0-1.02-0.193-1.408-0.581c-0.785-0.778-0.789-2.045-0.01-2.829
	c2.822-2.841,5.881-10.388,4.889-13.4c-0.346-1.049,0.223-2.18,1.273-2.526c1.045-0.345,2.18,0.225,2.525,1.273
	c1.637,4.962-2.422,14.02-5.85,17.472C86.861,50.515,86.346,50.712,85.832,50.712z"/>
<path fill="#FFD400" d="M93.887,52.054c-0.506,0-1.014-0.191-1.402-0.573c-0.787-0.774-0.799-2.041-0.025-2.829
	c1.076-1.095,2.018-3.256,2.926-5.346c1.783-4.097,3.805-8.74,8.309-9.329c1.084-0.148,2.1,0.627,2.242,1.723
	c0.145,1.095-0.629,2.1-1.723,2.243c-2.26,0.296-3.734,3.683-5.16,6.959c-1.102,2.535-2.145,4.93-3.74,6.554
	C94.922,51.854,94.404,52.054,93.887,52.054z"/>
<path fill="#FFD400" d="M97.914,56.753c-0.717,0-1.41-0.386-1.77-1.064c-0.576-1.089-0.693-2.275-0.334-3.428
	c0.971-3.135,5.248-5.372,9.385-7.535c1.939-1.015,3.945-2.064,4.77-2.84c0.805-0.757,2.07-0.718,2.828,0.087
	c0.756,0.805,0.717,2.07-0.088,2.827c-1.225,1.152-3.279,2.226-5.656,3.47c-2.764,1.445-6.939,3.629-7.418,5.175
	c-0.033,0.105-0.047,0.188,0.049,0.371c0.518,0.976,0.146,2.187-0.83,2.704C98.551,56.678,98.23,56.753,97.914,56.753z"/>
<path fill="#FFD400" d="M95.227,66.819c-0.465,0-0.932-0.161-1.309-0.489c-0.836-0.724-0.924-1.987-0.201-2.822
	c5.094-5.869,10.707-6.962,16.65-8.119c2.486-0.484,5.059-0.984,7.723-1.865c1.055-0.346,2.18,0.222,2.527,1.271
	s-0.223,2.18-1.271,2.527c-2.906,0.961-5.605,1.486-8.215,1.994c-5.699,1.109-10.203,1.986-14.393,6.814
	C96.344,66.586,95.787,66.819,95.227,66.819z"/>
<path fill="#FFD400" d="M93.889,76.887c-0.07,0-0.141-0.003-0.213-0.011c-1.098-0.116-1.895-1.1-1.779-2.199
	c0.533-5.048,7.459-6.461,14.158-7.827c3.305-0.674,6.723-1.372,8.201-2.354c0.92-0.612,2.162-0.361,2.773,0.559
	s0.361,2.162-0.561,2.773c-2.127,1.414-5.764,2.156-9.615,2.941c-4.281,0.873-10.754,2.193-10.979,4.328
	C95.768,76.124,94.898,76.887,93.889,76.887z"/>
<path fill="#FFD400" d="M88.518,90.31c-0.184,0-0.371-0.025-0.557-0.079c-1.061-0.307-1.672-1.416-1.365-2.477
	c1.625-5.617,7.959-7.275,13.547-8.738c3.076-0.806,6.258-1.639,7.912-2.993c0.857-0.7,2.115-0.573,2.814,0.281
	c0.699,0.855,0.574,2.115-0.281,2.814c-2.33,1.907-5.779,2.81-9.434,3.766c-4.779,1.252-9.723,2.546-10.717,5.98
	C90.186,89.741,89.387,90.31,88.518,90.31z"/>
<path fill="#FFD400" d="M83.148,109.102c-0.74,0-1.453-0.414-1.799-1.126c-0.482-0.993-0.07-2.19,0.924-2.673
	c1.338-0.65,2.232-2.103,3.268-3.784c0.834-1.355,1.697-2.756,2.934-3.968c1.824-1.79,5.012-3.159,8.387-4.607
	c2.359-1.013,6.75-2.898,7.115-3.958c-0.049-1.104,0.803-1.996,1.906-2.044c1.1-0.056,2.033,0.849,2.082,1.952
	c0.156,3.569-4.33,5.496-9.525,7.727c-2.754,1.182-5.875,2.522-7.164,3.788c-0.887,0.87-1.588,2.007-2.328,3.21
	c-1.191,1.933-2.541,4.125-4.924,5.284C83.74,109.037,83.443,109.102,83.148,109.102z"/>
<path fill="#FFD400" d="M85.16,119.84c-0.277,0-0.561-0.058-0.828-0.18c-1.006-0.458-1.449-1.644-0.992-2.649
	c2.5-5.488,8.059-8.613,13.434-11.636c2.982-1.677,5.799-3.26,7.848-5.123c0.818-0.743,2.082-0.682,2.824,0.135
	c0.744,0.817,0.684,2.082-0.133,2.825c-2.385,2.167-5.533,3.938-8.578,5.649c-4.816,2.708-9.795,5.508-11.754,9.808
	C86.645,119.405,85.92,119.84,85.16,119.84z"/>
<path fill="#FFD400" d="M90.531,123.867c-0.641,0-1.27-0.308-1.656-0.877c-0.621-0.914-0.383-2.158,0.531-2.778
	c0.92-0.625,2.016-1.476,3.174-2.377c3.971-3.088,8.469-6.587,12.666-6.693c1.107-0.02,2.021,0.846,2.049,1.949
	c0.027,1.104-0.846,2.022-1.949,2.05c-2.879,0.072-7,3.276-10.311,5.852c-1.211,0.942-2.355,1.832-3.383,2.529
	C91.309,123.755,90.918,123.867,90.531,123.867z"/>
<path fill="#FFD400" d="M100.598,125.209c-0.787,0-1.533-0.468-1.852-1.242c-0.418-1.021,0.07-2.189,1.094-2.608
	c2.967-1.216,5.488-1.9,7.936-2.152c1.098-0.116,2.08,0.686,2.193,1.784s-0.684,2.082-1.783,2.195
	c-2.084,0.216-4.189,0.794-6.83,1.875C101.107,125.161,100.85,125.209,100.598,125.209z"/>
<path fill="#FFD400" d="M89.189,158.767c-0.174,0-0.352-0.023-0.527-0.071c-1.064-0.29-1.693-1.39-1.404-2.455
	c1.281-4.708,5.732-6.867,9.307-8.602c2.197-1.065,4.27-2.072,4.996-3.299c0.561-0.951,1.789-1.271,2.738-0.705
	c0.951,0.562,1.268,1.787,0.705,2.738c-1.338,2.266-3.939,3.528-6.693,4.864c-3.141,1.524-6.389,3.1-7.193,6.054
	C90.875,158.181,90.068,158.767,89.189,158.767z"/>
<path fill="#FFD400" d="M105.295,163.464c-0.432,0-0.867-0.139-1.232-0.426c-0.869-0.681-1.023-1.938-0.342-2.808
	c1.674-2.137,4.041-3.424,6.129-4.559c0.402-0.219,0.795-0.432,1.166-0.644c0.959-0.549,2.18-0.213,2.729,0.746
	c0.547,0.959,0.213,2.181-0.746,2.729c-0.395,0.225-0.811,0.451-1.238,0.684c-1.832,0.996-3.727,2.026-4.891,3.511
	C106.475,163.201,105.887,163.464,105.295,163.464z"/>
<path fill="#FFD400" d="M91.871,163.465c-0.855,0-1.646-0.554-1.91-1.415c-0.324-1.056,0.27-2.175,1.326-2.498
	c6.645-2.037,17.285-7.793,18.834-12.177c0.367-1.041,1.506-1.59,2.551-1.22c1.041,0.367,1.588,1.51,1.221,2.552
	c-2.398,6.795-15.725,12.919-21.434,14.669C92.264,163.436,92.066,163.465,91.871,163.465z"/>
</svg>
