<?xml version="1.0" encoding="utf-8"?>
<!-- Generator: Adobe Illustrator 16.0.0, SVG Export Plug-In . SVG Version: 6.00 Build 0)  -->
<!DOCTYPE svg PUBLIC "-//W3C//DTD SVG 1.1//EN" "http://www.w3.org/Graphics/SVG/1.1/DTD/svg11.dtd">
<svg version="1.1" id="Layer_1" xmlns="http://www.w3.org/2000/svg" xmlns:xlink="http://www.w3.org/1999/xlink" x="0px" y="0px"
	 width="374.173px" height="65.197px" viewBox="0 0 374.173 65.197" enable-background="new 0 0 374.173 65.197"
	 xml:space="preserve">
<path d="M252.756,44.094h17.257c4.089,0,6.754-0.406,7.995-1.217c1.244-0.809,1.861-2.356,1.861-4.638
	c0-1.903-0.428-3.211-1.289-3.918c-0.859-0.709-2.633-1.063-5.307-1.063h-9.538c-4.032,0-6.862-0.628-8.489-1.878
	c-1.636-1.253-2.449-3.397-2.449-6.438c0-3.111,0.932-5.289,2.791-6.541c1.861-1.253,5.268-1.877,10.226-1.877h17.838v3.238h-18.959
	c-3.153,0-5.271,0.36-6.354,1.074c-1.097,0.719-1.643,2.036-1.643,3.954c0,1.945,0.533,3.283,1.596,4.011
	c1.064,0.729,3.279,1.1,6.643,1.1h7.625c2.363,0,4.148,0.093,5.341,0.278c1.2,0.19,2.156,0.504,2.872,0.933
	c1.042,0.614,1.779,1.466,2.223,2.558c0.436,1.098,0.657,2.688,0.657,4.78c0,3.351-0.901,5.688-2.712,7.014
	c-1.809,1.326-5.061,1.988-9.766,1.988h-18.418V44.094z"/>
<path d="M179.689,16.548h7.674l0.004,18.205c0,2.082,0.389,3.483,1.156,4.192c0.774,0.712,2.45,1.07,5.04,1.07h13.305v7.373h-15.076
	c-4.608,0-7.772-0.725-9.5-2.186c-1.732-1.451-2.595-4.072-2.595-7.855L179.689,16.548z"/>
<path d="M324.83,44.043h17.254c4.09,0,6.758-0.404,7.998-1.219c1.24-0.812,1.864-2.354,1.864-4.636c0-1.906-0.437-3.211-1.299-3.919
	c-0.86-0.715-2.63-1.068-5.304-1.068h-9.537c-4.035,0-6.865-0.621-8.491-1.874c-1.632-1.251-2.451-3.398-2.451-6.44
	c0-3.105,0.938-5.29,2.792-6.539c1.858-1.249,5.271-1.875,10.23-1.875h17.839v3.237h-18.962c-3.147,0-5.269,0.358-6.363,1.075
	c-1.091,0.717-1.636,2.035-1.636,3.952c0,1.946,0.536,3.283,1.601,4.015c1.058,0.726,3.273,1.092,6.642,1.092h7.622
	c2.36,0,4.149,0.098,5.343,0.283c1.196,0.19,2.152,0.502,2.871,0.936c1.041,0.609,1.782,1.46,2.218,2.556
	c0.441,1.098,0.658,2.687,0.658,4.781c0,3.35-0.898,5.688-2.703,7.011c-1.811,1.328-5.064,1.99-9.771,1.99H324.83V44.043z"/>
<polygon points="316.838,16.608 304.672,31.237 292.612,16.608 288.004,16.608 302.69,34.45 302.69,47.451 306.65,47.451 
	306.65,34.45 321.481,16.608 "/>
<path d="M102.082,40.689c-0.089,0-11.563,0.007-13.961,0.013v-4.984h13.961c1.379,0,2.488,1.118,2.488,2.485
	C104.57,39.578,103.461,40.689,102.082,40.689 M102.066,23.409v0.008c0,0,0.01-0.005,0.014-0.005c1.372,0,2.489,1.113,2.489,2.485
	c0,1.377-1.117,2.49-2.489,2.49c-0.026,0-13.959-0.029-13.959-0.029v-4.939L102.066,23.409z M109.667,32.064
	c1.346-1.677,2.155-3.812,2.155-6.134c0-5.412-4.382-9.798-9.797-9.798c-0.075,0-21.559,0.007-21.559,0.007V47.98l22.141-0.027
	c5.149-0.303,9.224-4.551,9.224-9.762C111.831,35.875,111.02,33.745,109.667,32.064"/>
<path d="M143.528,34.867c0,2-0.367,3.378-1.098,4.13c-0.731,0.753-2.173,1.13-4.326,1.13h-4.351c-2.591,0-4.268-0.353-5.044-1.067
	c-0.768-0.715-1.153-2.107-1.153-4.192V16.549h-7.675v21.233c0,3.787,0.866,6.405,2.592,7.862c1.73,1.455,4.897,2.184,9.504,2.184
	h8.577c3.934,0,6.698-0.766,8.296-2.291c1.599-1.523,2.4-4.107,2.4-7.755V16.549h-7.722V34.867z"/>
<path d="M236.838,34.896c0,1.74-0.381,3.016-1.138,3.831c-0.752,0.813-1.948,1.22-3.589,1.22h-11.21V24.195h10.248
	c1.95,0,3.387,0.425,4.308,1.274c0.92,0.853,1.381,2.184,1.381,3.996V34.896z M241.889,19.036c-1.747-1.656-4.541-2.487-8.385-2.487
	h-20.232v30.918l22.48-0.512c3.045,0,5.264-0.273,6.662-1.861c1.396-1.588,2.094-4.094,2.094-7.525V26.953
	C244.508,23.329,243.639,20.691,241.889,19.036"/>
<rect x="161.256" y="16.549" width="7.721" height="30.918"/>
<path d="M362.113,16.81c0-1.565,0.553-2.901,1.661-4.006c1.106-1.104,2.443-1.657,4.01-1.657s2.901,0.553,4.006,1.657
	c1.105,1.104,1.658,2.44,1.658,4.006c0,1.566-0.553,2.903-1.658,4.011c-1.104,1.107-2.439,1.661-4.006,1.661
	s-2.903-0.554-4.01-1.661C362.666,19.713,362.113,18.376,362.113,16.81 M363.471,16.81c0,1.188,0.423,2.204,1.266,3.048
	c0.844,0.845,1.859,1.266,3.048,1.266c1.188,0,2.202-0.42,3.044-1.261s1.262-1.859,1.262-3.053c0-1.188-0.42-2.201-1.262-3.044
	c-0.842-0.841-1.856-1.262-3.044-1.262c-1.194,0-2.21,0.421-3.052,1.262C363.892,14.608,363.471,15.622,363.471,16.81
	 M369.09,19.987l-1.522-2.621h-0.529v2.621h-1.294v-6.504h1.76c1.584,0,2.376,0.633,2.376,1.898c0,0.781-0.354,1.363-1.064,1.744
	l1.728,2.861H369.09z M367.503,14.651h-0.465v1.609c0.503,0,0.843-0.013,1.022-0.041c0.179-0.026,0.311-0.102,0.396-0.224
	c0.085-0.123,0.128-0.311,0.128-0.561C368.585,14.913,368.225,14.651,367.503,14.651"/>
<path fill="#095EAA" d="M49.892,7.281H7.24c-2.077,0-3.757,1.682-3.757,3.767v3.994c2.936-0.002,18.826-0.008,18.904-0.008
	c5.878,0,10.644,4.764,10.644,10.642c0,2.522-0.885,4.84-2.348,6.657c1.47,1.826,2.351,4.144,2.351,6.662
	c0,5.666-4.426,10.291-10.019,10.613L3.483,49.643v4.055c0,2.08,1.68,3.758,3.757,3.758h42.651c2.08,0,3.767-1.678,3.767-3.758
	v-42.65C53.658,8.962,51.971,7.281,49.892,7.281"/>
<path fill="#095EAA" d="M22.447,41.717c0.373,0,0.728-0.074,1.052-0.211c0.162-0.068,0.315-0.152,0.459-0.25
	c0.432-0.291,0.775-0.703,0.981-1.188c0.136-0.324,0.212-0.68,0.212-1.055c0-0.559-0.17-1.078-0.462-1.51
	c-0.097-0.143-0.208-0.277-0.33-0.4c-0.49-0.488-1.166-0.791-1.912-0.791H3.483v5.43C5.468,41.738,22.347,41.717,22.447,41.717"/>
<path fill="#095EAA" d="M22.44,28.341c1.495,0,2.705-1.208,2.705-2.702c0-0.744-0.303-1.419-0.792-1.908
	c-0.49-0.489-1.166-0.792-1.914-0.792c0,0-0.007,0.003-0.015,0.003v-0.007l-18.941,0.01v5.365c0,0,0.02,0,0.036,0
	C3.52,28.31,22.425,28.341,22.44,28.341"/>
</svg>
