<?xml version="1.0" encoding="utf-8"?>
<!-- Generator: Adobe Illustrator 16.0.0, SVG Export Plug-In . SVG Version: 6.00 Build 0)  -->
<!DOCTYPE svg PUBLIC "-//W3C//DTD SVG 1.1//EN" "http://www.w3.org/Graphics/SVG/1.1/DTD/svg11.dtd">
<svg version="1.1" id="Layer_1" xmlns="http://www.w3.org/2000/svg" xmlns:xlink="http://www.w3.org/1999/xlink" x="0px" y="0px"
	 width="374.173px" height="65.197px" viewBox="0 0 374.173 65.197" enable-background="new 0 0 374.173 65.197"
	 xml:space="preserve">
<path fill="#FFFFFF" d="M252.756,35.881h17.257c4.089,0,6.754-0.406,7.995-1.217c1.244-0.809,1.861-2.36,1.861-4.645
	c0-1.906-0.428-3.216-1.289-3.925c-0.859-0.709-2.633-1.063-5.307-1.063h-9.538c-4.032,0-6.862-0.628-8.489-1.878
	c-1.636-1.253-2.449-3.397-2.449-6.438c0-3.111,0.932-5.289,2.791-6.541c1.861-1.253,5.268-1.877,10.226-1.877h17.838v3.238h-18.959
	c-3.153,0-5.271,0.36-6.354,1.074c-1.097,0.719-1.643,2.036-1.643,3.954c0,1.945,0.533,3.283,1.596,4.011
	c1.064,0.729,3.279,1.1,6.643,1.1h7.625c2.363,0,4.148,0.093,5.341,0.278c1.2,0.19,2.156,0.504,2.872,0.933
	c1.042,0.614,1.779,1.466,2.223,2.558c0.436,1.099,0.657,2.691,0.657,4.788c0,3.356-0.901,5.694-2.712,7.02
	c-1.809,1.326-5.061,1.988-9.766,1.988h-18.418V35.881z"/>
<path fill="#FFFFFF" d="M179.689,8.321h7.674l0.004,18.206c0,2.086,0.389,3.489,1.156,4.2c0.774,0.713,2.45,1.071,5.04,1.071h13.305
	v7.377h-15.076c-4.608,0-7.772-0.725-9.5-2.186c-1.732-1.451-2.595-4.075-2.595-7.864L179.689,8.321z"/>
<path fill="#FFFFFF" d="M324.83,35.83h17.254c4.09,0,6.758-0.404,7.998-1.219c1.24-0.812,1.864-2.358,1.864-4.643
	c0-1.909-0.437-3.216-1.299-3.926c-0.86-0.715-2.63-1.068-5.304-1.068h-9.537c-4.035,0-6.865-0.621-8.491-1.874
	c-1.632-1.251-2.451-3.398-2.451-6.44c0-3.105,0.938-5.29,2.792-6.539c1.858-1.249,5.271-1.875,10.23-1.875h17.839v3.237h-18.962
	c-3.147,0-5.269,0.358-6.363,1.075c-1.091,0.717-1.636,2.035-1.636,3.952c0,1.946,0.536,3.283,1.601,4.015
	c1.058,0.726,3.273,1.092,6.642,1.092h7.622c2.36,0,4.149,0.098,5.343,0.283c1.196,0.19,2.152,0.502,2.871,0.936
	c1.041,0.609,1.782,1.46,2.218,2.556c0.441,1.099,0.658,2.69,0.658,4.789c0,3.355-0.898,5.695-2.703,7.017
	c-1.811,1.328-5.064,1.99-9.771,1.99H324.83V35.83z"/>
<polygon fill="#FFFFFF" points="316.838,8.381 304.672,23.01 292.612,8.381 288.004,8.381 302.69,26.224 302.69,39.238 
	306.65,39.238 306.65,26.224 321.481,8.381 "/>
<path fill="#FFFFFF" d="M102.082,32.474c-0.089,0-11.563,0.007-13.961,0.013v-4.993h13.961c1.379,0,2.488,1.12,2.488,2.489
	C104.57,31.361,103.461,32.474,102.082,32.474 M102.066,15.182v0.008c0,0,0.01-0.005,0.014-0.005c1.372,0,2.489,1.113,2.489,2.485
	c0,1.377-1.117,2.49-2.489,2.49c-0.026,0-13.959-0.029-13.959-0.029v-4.939L102.066,15.182z M109.667,23.837
	c1.346-1.677,2.155-3.812,2.155-6.134c0-5.412-4.382-9.798-9.797-9.798c-0.075,0-21.559,0.007-21.559,0.007v31.855l22.141-0.027
	c5.149-0.303,9.224-4.551,9.224-9.769C111.831,27.651,111.02,25.518,109.667,23.837"/>
<path fill="#FFFFFF" d="M143.528,26.641c0,2.004-0.367,3.384-1.098,4.138s-2.173,1.132-4.326,1.132h-4.351
	c-2.591,0-4.268-0.354-5.044-1.069c-0.768-0.716-1.153-2.111-1.153-4.2V8.322h-7.675v21.24c0,3.793,0.866,6.413,2.592,7.87
	c1.73,1.455,4.897,2.184,9.504,2.184h8.577c3.934,0,6.698-0.766,8.296-2.291c1.599-1.523,2.4-4.109,2.4-7.762V8.322h-7.722V26.641z"
	/>
<path fill="#FFFFFF" d="M236.838,26.67c0,1.744-0.381,3.021-1.138,3.838c-0.752,0.815-1.948,1.222-3.589,1.222h-11.21V15.968h10.248
	c1.95,0,3.387,0.425,4.308,1.274c0.92,0.853,1.381,2.184,1.381,3.996V26.67z M241.889,10.809c-1.747-1.656-4.541-2.487-8.385-2.487
	h-20.232v30.932l22.48-0.512c3.045,0,5.264-0.273,6.662-1.861c1.396-1.588,2.094-4.096,2.094-7.534V18.726
	C244.508,15.102,243.639,12.464,241.889,10.809"/>
<rect x="161.256" y="8.322" fill="#FFFFFF" width="7.721" height="30.932"/>
<path fill="#FFFFFF" d="M362.113,8.583c0-1.565,0.553-2.901,1.661-4.006c1.106-1.104,2.443-1.657,4.01-1.657
	s2.901,0.553,4.006,1.657c1.105,1.104,1.658,2.44,1.658,4.006c0,1.566-0.553,2.903-1.658,4.011
	c-1.104,1.107-2.439,1.661-4.006,1.661s-2.903-0.554-4.01-1.661C362.666,11.486,362.113,10.149,362.113,8.583 M363.471,8.583
	c0,1.188,0.423,2.204,1.266,3.048c0.844,0.845,1.859,1.266,3.048,1.266c1.188,0,2.202-0.42,3.044-1.261s1.262-1.859,1.262-3.053
	c0-1.188-0.42-2.201-1.262-3.044c-0.842-0.841-1.856-1.262-3.044-1.262c-1.194,0-2.21,0.421-3.052,1.262
	C363.892,6.381,363.471,7.395,363.471,8.583 M369.09,11.76l-1.522-2.621h-0.529v2.621h-1.294V5.256h1.76
	c1.584,0,2.376,0.633,2.376,1.898c0,0.781-0.354,1.363-1.064,1.744l1.728,2.861H369.09z M367.503,6.424h-0.465v1.609
	c0.503,0,0.843-0.013,1.022-0.041c0.179-0.026,0.311-0.102,0.396-0.224c0.085-0.123,0.128-0.311,0.128-0.561
	C368.585,6.686,368.225,6.424,367.503,6.424"/>
<path fill="#FFFFFF" d="M49.892,7.281H7.24c-2.077,0-3.757,1.682-3.757,3.767v3.994c2.936-0.002,18.826-0.008,18.904-0.008
	c5.878,0,10.644,4.764,10.644,10.642c0,2.522-0.885,4.84-2.348,6.657c1.47,1.826,2.351,4.144,2.351,6.662
	c0,5.666-4.426,10.291-10.019,10.613L3.483,49.643v4.055c0,2.08,1.68,3.758,3.757,3.758h42.651c2.08,0,3.767-1.678,3.767-3.758
	v-42.65C53.658,8.962,51.971,7.281,49.892,7.281"/>
<path fill="#FFFFFF" d="M22.447,41.717c0.373,0,0.728-0.074,1.052-0.211c0.162-0.068,0.315-0.152,0.459-0.25
	c0.432-0.291,0.775-0.703,0.981-1.188c0.136-0.324,0.212-0.68,0.212-1.055c0-0.559-0.17-1.078-0.462-1.51
	c-0.097-0.143-0.208-0.277-0.33-0.4c-0.49-0.488-1.166-0.791-1.912-0.791H3.483v5.43C5.468,41.738,22.347,41.717,22.447,41.717"/>
<path fill="#FFFFFF" d="M22.44,28.341c1.495,0,2.705-1.208,2.705-2.702c0-0.744-0.303-1.419-0.792-1.908
	c-0.49-0.489-1.166-0.792-1.914-0.792c0,0-0.007,0.003-0.015,0.003v-0.007l-18.941,0.01v5.365c0,0,0.02,0,0.036,0
	C3.52,28.31,22.425,28.341,22.44,28.341"/>
<path fill="#FFFFFF" d="M84.744,56.631c0.753,0,1.367-0.26,1.782-0.705l0.722,0.721c-0.63,0.646-1.506,1.029-2.566,1.029
	c-2.104,0-3.532-1.443-3.532-3.578c0-2.121,1.428-3.564,3.532-3.564c1.06,0,1.936,0.385,2.566,1.045l-0.722,0.707
	c-0.415-0.445-1.029-0.723-1.782-0.723c-1.428,0-2.411,1.029-2.411,2.535C82.333,55.602,83.315,56.631,84.744,56.631"/>
<path fill="#FFFFFF" d="M93.837,46.033v5.191c0.538-0.445,1.229-0.691,2.027-0.691c1.567,0,2.596,1.152,2.596,2.842v4.178h-1.152
	v-4.178c0-1.076-0.691-1.812-1.72-1.812c-0.722,0-1.336,0.262-1.751,0.691v5.299h-1.152v-11.52H93.837z"/>
<polygon fill="#FFFFFF" points="105.726,61.393 104.45,61.393 106.371,57.553 103.36,50.641 104.65,50.641 106.908,56.17 
	109.182,50.641 110.457,50.641 "/>
<path fill="#FFFFFF" d="M114.911,50.641h0.891v-1.535h1.182v1.535h1.844v0.922h-1.844v3.84c0,0.752,0.492,1.275,1.229,1.275
	c0.215,0,0.446-0.047,0.615-0.154v0.998c-0.246,0.107-0.538,0.154-0.815,0.154c-1.351,0-2.211-0.906-2.211-2.273v-3.84h-0.891
	V50.641z"/>
<path fill="#FFFFFF" d="M127.767,50.578v1.014c-0.169-0.029-0.353-0.045-0.538-0.045c-0.737,0-1.398,0.369-1.812,0.951v5.055h-1.152
	v-6.912h1.152v0.846c0.507-0.584,1.167-0.938,1.874-0.938C127.46,50.549,127.613,50.564,127.767,50.578 M124.096,47.77l0.599-0.6
	l1.336,1.336l1.336-1.336l0.6,0.6l-1.936,1.934L124.096,47.77z"/>
<path fill="#FFFFFF" d="M133.696,53.576h4.086c-0.138-1.246-0.83-2.029-1.966-2.029C134.664,51.547,133.833,52.33,133.696,53.576
	 M133.696,54.42c0.108,1.336,1.014,2.211,2.427,2.211c0.768,0,1.397-0.262,1.828-0.707l0.691,0.723
	c-0.63,0.645-1.506,1.029-2.596,1.029c-2.12,0-3.563-1.428-3.563-3.609c0-2.09,1.305-3.533,3.333-3.533
	c2.058,0,3.118,1.506,3.118,3.887H133.696z"/>
<path fill="#FFFFFF" d="M145.078,47.799c0.43,0,0.768,0.338,0.768,0.768c0,0.432-0.338,0.77-0.768,0.77
	c-0.43,0-0.768-0.338-0.768-0.77C144.31,48.137,144.647,47.799,145.078,47.799 M143.496,60.625c0.615,0,0.998-0.309,0.998-0.969
	v-9.016h1.152v9.047c0,1.121-0.629,1.781-1.612,1.781c-0.185,0-0.43-0.029-0.538-0.076V60.625z"/>
<path fill="#FFFFFF" d="M151.452,47.77l0.599-0.6l1.336,1.336l1.336-1.336l0.599,0.6l-1.935,1.934L151.452,47.77z M154.876,52.039
	c-0.292-0.322-0.891-0.537-1.352-0.537c-0.737,0-1.029,0.537-1.029,0.967c0,0.613,0.615,0.844,1.429,1.182
	c0.906,0.385,1.812,0.816,1.812,1.936c0,1.029-0.753,2.09-2.304,2.09c-0.891,0-1.735-0.354-2.273-0.938l0.676-0.676
	c0.353,0.414,0.983,0.645,1.52,0.645c0.907,0,1.229-0.613,1.229-1.074c0-0.553-0.491-0.768-1.367-1.137
	c-0.967-0.385-1.874-0.814-1.874-1.998c0-0.996,0.661-1.965,2.089-1.965c0.799,0,1.598,0.291,2.12,0.83L154.876,52.039z"/>
<path fill="#FFFFFF" d="M161.328,50.641h1.152v6.912h-1.152V50.641z M162.879,47.17l0.599,0.6l-1.935,1.934l-0.599-0.598
	L162.879,47.17z"/>
<path fill="#FFFFFF" d="M178.731,51.562c-0.692,0-1.321,0.246-1.751,0.736v3.842c0.461,0.352,1.106,0.49,1.689,0.49
	c1.566,0,2.457-1.029,2.457-2.504C181.126,52.592,180.159,51.562,178.731,51.562 M175.828,56.707V46.033h1.152v5.068
	c0.522-0.367,1.182-0.568,1.92-0.568c2.027,0,3.41,1.445,3.41,3.58c0,2.119-1.336,3.562-3.733,3.562
	C177.64,57.676,176.565,57.445,175.828,56.707"/>
<path fill="#FFFFFF" d="M193.828,54.711c0,1.766-1.198,2.965-2.965,2.965c-1.765,0-2.961-1.199-2.961-2.965v-4.07h1.197v4.07
	c0,1.137,0.722,1.92,1.795,1.92c1.06,0,1.798-0.783,1.798-1.92v-4.07h1.137V54.711z"/>
<path fill="#FFFFFF" d="M203.014,56.631c0.721,0,1.336-0.244,1.75-0.66v-3.748c-0.414-0.414-1.014-0.66-1.75-0.66
	c-1.43,0-2.412,1.029-2.412,2.535C200.602,55.602,201.584,56.631,203.014,56.631 M204.764,57.553V57
	c-0.553,0.43-1.244,0.676-2.027,0.676c-1.98,0-3.318-1.443-3.318-3.578c0-2.119,1.414-3.564,3.503-3.564
	c0.692,0,1.321,0.184,1.843,0.492v-4.992h1.152v11.52H204.764z"/>
<path fill="#FFFFFF" d="M215.039,56.631c1.384,0,2.351-1.029,2.351-2.535c0-1.504-0.967-2.533-2.351-2.533
	c-1.396,0-2.35,1.029-2.35,2.533C212.689,55.602,213.643,56.631,215.039,56.631 M215.039,50.533c2.104,0,3.549,1.443,3.549,3.562
	c0,2.135-1.444,3.58-3.549,3.58c-2.104,0-3.532-1.445-3.532-3.58C211.507,51.977,212.936,50.533,215.039,50.533"/>
<polygon fill="#FFFFFF" points="227.066,57.553 225.992,57.553 222.98,50.641 224.271,50.641 226.529,56.125 228.802,50.641 
	230.076,50.641 "/>
<polygon fill="#FFFFFF" points="236.712,61.393 235.438,61.393 237.358,57.553 234.348,50.641 235.637,50.641 237.895,56.17 
	240.168,50.641 241.443,50.641 "/>
</svg>
