<?xml version="1.0" encoding="utf-8"?>
<!-- Generator: Adobe Illustrator 16.0.0, SVG Export Plug-In . SVG Version: 6.00 Build 0)  -->
<!DOCTYPE svg PUBLIC "-//W3C//DTD SVG 1.1//EN" "http://www.w3.org/Graphics/SVG/1.1/DTD/svg11.dtd">
<svg version="1.1" id="Layer_1" xmlns="http://www.w3.org/2000/svg" xmlns:xlink="http://www.w3.org/1999/xlink" x="0px" y="0px"
	 width="1544.882px" height="240.945px" viewBox="0 0 1544.882 240.945" enable-background="new 0 0 1544.882 240.945"
	 xml:space="preserve">
<path fill="#0064B0" d="M973.331,237.114v-1.682h-0.762V45.481h0.762v-6.323h-3.295V28.859h-3.671v-6.975h-2.194
	c-0.354-3.176-2.7-5.834-5.822-6.58V0h-3.546v15.304c-3.117,0.746-5.461,3.404-5.815,6.58h-2.202v6.975h-3.672v10.299h-3.294v6.323
	h0.771v189.951h-0.771v1.682h-2.751v-1.682h-1.345v-40.504h-7.241v-24.545h-4.422V96.927h-1.749v-5.155l-8.436-7.439V71.845h-2.751
	V84.33l-8.453,7.441v5.155h-1.747v73.457h-4.423v24.545h-7.249v40.504h-1.338v1.682h-0.344v-1.682h-0.761V71.148h0.761v-6.32h-5.501
	v-2.683h-6.413v-0.056h4.1l-8.938-7.742l-8.941,7.742h4.1v0.056h-6.414v2.683h-5.501v6.32h0.76v164.284h-0.76v1.682h-2.006v-0.643
	l-1.641-0.002v-89.336h-3.336v-4.943h2.074v-3.863h-43.622v3.863h2.068v4.943h-3.331v89.307h-1.636v0.674h-3.018v-1.682h-1.461
	V108.885l-27.716,18.77v107.777h-1.463v1.682H-2.866v1.672h773.513v-1.682h1.462V128.542l24.373-16.505v125.068h1.461v1.682h6.362
	v-0.672h1.634v-89.309h3.331v-8.287h-2.067v-0.52h40.278v0.52h-2.074v8.287h3.336v89.334l1.64,0.002v0.645h5.351v-1.682h0.76V69.476
	h-0.76V66.5h5.501v-2.683h6.413v-3.4h-1.285l4.454-3.856l4.454,3.856h-1.285v3.4h6.413V66.5h5.501v2.976h-0.76v167.628h0.76v1.682
	h3.688v-1.682h1.338V196.6h7.249v-24.545h4.424V98.599h1.746v-6.071l8.155-7.18l8.142,7.179v6.072h1.748v73.457h4.422V196.6h7.24
	v40.504h1.346v1.682h6.095v-1.682h0.771V43.809h-0.771V40.83h3.294v-10.3h3.672v-6.974h2.156V22.72c0-2.954,2.21-5.489,5.141-5.896
	l0.722-0.1V1.672h0.2v15.052l0.721,0.1c2.936,0.408,5.149,2.942,5.149,5.896v0.836h2.147v6.974h3.671v10.3h3.295v2.979h-0.762
	v193.295h0.762v1.682h569.472v-1.672H973.331z"/>
</svg>
