<?xml version="1.0" encoding="utf-8"?>
<!-- Generator: Adobe Illustrator 16.0.0, SVG Export Plug-In . SVG Version: 6.00 Build 0)  -->
<!DOCTYPE svg PUBLIC "-//W3C//DTD SVG 1.1//EN" "http://www.w3.org/Graphics/SVG/1.1/DTD/svg11.dtd">
<svg version="1.1" id="Vrstva_2" xmlns="http://www.w3.org/2000/svg" xmlns:xlink="http://www.w3.org/1999/xlink" x="0px" y="0px"
	 width="342.992px" height="153.071px" viewBox="0 0 342.992 153.071" enable-background="new 0 0 342.992 153.071"
	 xml:space="preserve">
<path fill="#E52528" d="M232.519,124.373c-4.76-6.083-16.296-8.255-16.296-8.255c-8.66-2.732-16.517-5.843-19.184-7.673
	c0,0-0.46,0.608-1.243,1.519c-1.995,2.311-6.164,6.634-10.766,8.316c0,0-0.232-4.332-2.331-7.959l-2.097-0.706l-2.097,0.706
	c-2.1,3.627-2.332,7.959-2.332,7.959c-4.602-1.682-8.773-6.005-10.767-8.316c-0.784-0.91-1.241-1.519-1.241-1.519
	c-2.667,1.831-10.524,4.941-19.185,7.673c0,0-11.533,2.173-16.293,8.255c0,0-4.399,3.665-5.983,28.125h116.024
	C237.148,134.674,232.519,124.373,232.519,124.373L232.519,124.373z"/>
<path fill="#E52528" d="M211.051,59.316c-14.726-1.118-25.128,2.354-28.812,2.354c-3.685,0-14.086-3.47-28.811-2.354
	c-0.063-7.74,0.249-14.477,2.438-16.586c3.45-3.325,8.964-7.644,13.962-7.644c5,0,7.24,3.656,12.413,3.656
	c5.171,0,7.412-3.656,12.412-3.656c4.999,0,10.515,4.319,13.961,7.644C210.803,44.839,211.115,51.576,211.051,59.316z
	 M185.731,65.908c0-1.51,7.068-4.139,13.417-4.6c6.348-0.46,9.621-0.46,10.014,0.788c0.243,0.773,0.479,9.588-4.286,12.258
	c-3.403,1.907-11.292,2.203-14.171,0.493C188.456,73.512,185.731,67.685,185.731,65.908z M155.314,62.096
	c0.393-1.248,3.666-1.248,10.014-0.788c6.348,0.461,13.416,3.09,13.416,4.6c0,1.776-2.725,7.604-4.974,8.939
	c-2.878,1.71-10.766,1.414-14.167-0.493C154.835,71.685,155.071,62.87,155.314,62.096z M209.968,82.423l-0.014,0.083
	c-0.175,0.429-1.615,2.177-3.652,4.034c-3.196,2.983-7.98,6.796-12.724,9.836c-0.877,0.567-1.758,1.106-2.627,1.608
	c0.041-2.764,0.055-5.744-0.051-6.957c-0.221-2.514-4.861-4.733-9.058-4.733c-4.198,0-6.04,0.96-7.512,2.588
	c-0.896,0.991-1.083,6.248-1.092,10.216c-2.563-1.292-5.234-2.939-7.644-4.611c-2.655-1.819-5.039-3.648-6.757-5.019
	c-1.235-0.984-2.116-1.726-2.516-2.065c-3.278-8.124-2.619-8.394-2.611-16.344l-0.107-1.717c1.56,3.602,3.949,6.914,7.342,7.806
	c6.949,1.829,13.045,0.792,14.949-1.119c1.902-1.91,2.93-8.218,6.346-8.218c3.415,0,4.443,6.308,6.345,8.218
	c1.903,1.911,8,2.948,14.951,1.119c3.396-0.893,5.789-4.216,7.351-7.826c-0.019,1.231-0.032,2.452-0.032,3.647
	c0.016-0.002,0.029-0.006,0.043-0.008C210.195,78.295,209.968,82.414,209.968,82.423z M188.233,95.549c0,0-1.863,0.662-4.915,0.979
	c-3.052,0.318-5.692-0.238-5.692-0.238l-1.707-0.74c0,0-0.311-4.713,0.724-5.296c1.036-0.583,2.329-0.927,5.278-0.927
	c2.949,0,6.208,0.795,6.364,1.695C188.439,91.922,188.233,95.549,188.233,95.549z M219.819,28.108
	c-2.588-17.612-22.584-30.739-37.064-28.413c0,12.794-33.096,15.786-38.095,28.413c-5.762,14.556-2.356,37.136,5.413,43.299
	c0.564,5.843,1.709,11.981,3.905,17.317l0.12,0.291l0.239,0.208c0.025,0.021,4.301,3.735,9.752,7.476
	c2.892,1.959,6.061,3.945,9.171,5.399c0.017,0.969,0.038,1.578,0.038,1.578l2.431,2.071c0,0,3.755,1.553,8.101,0.666
	c4.345-0.887,6.997-2.738,6.997-2.738s0.031-1.068,0.064-2.594c3.172-1.722,6.468-3.946,9.565-6.23
	c3.209-2.398,6.13-4.871,8.289-6.942c1.079-1.037,1.964-1.969,2.617-2.772c0.601-0.812,1.066-1.289,1.226-2.252l0.006,0.001
	c0.002-0.021,0.896-5.134,1.701-11.482C221.31,65.353,222.076,43.498,219.819,28.108L219.819,28.108z"/>
<path fill="#28ABE3" d="M180.715,109.651l-0.114-0.038l-2.097,0.706c-2.1,3.627-2.332,7.959-2.332,7.959
	c-4.602-1.684-8.773-6.005-10.767-8.316c-0.784-0.91-1.241-1.519-1.241-1.519c-2.667,1.831-10.524,4.94-19.184,7.672
	c0,0-11.534,2.174-16.294,8.256c0,0-4.399,3.665-5.983,28.125h58.012V109.651L180.715,109.651z"/>
<path fill="#28ABE3" d="M155.314,62.096c0.393-1.248,3.666-1.248,10.013-0.788c6.349,0.461,13.417,3.09,13.417,4.6
	c0,1.776-2.725,7.604-4.974,8.939c-2.878,1.71-10.766,1.414-14.167-0.493C154.835,71.685,155.071,62.87,155.314,62.096z
	 M180.715,96.615c-1.807-0.055-3.089-0.325-3.089-0.325l-1.707-0.74c0,0-0.311-4.713,0.724-5.296
	c0.88-0.496,1.958-0.815,4.072-0.901v-3.029c-3.412,0.162-5.053,1.086-6.386,2.559c-0.896,0.991-1.084,6.248-1.093,10.216
	c-2.562-1.292-5.234-2.939-7.644-4.611c-2.654-1.819-5.039-3.648-6.756-5.019c-1.235-0.984-2.116-1.726-2.516-2.065
	c-3.279-8.124-2.619-8.394-2.611-16.344l-0.107-1.717c1.56,3.602,3.949,6.914,7.341,7.806c6.949,1.829,13.046,0.792,14.948-1.119
	c1.586-1.591,2.568-6.221,4.825-7.727v-6.759c-4.591-0.606-14.235-3.216-27.288-2.227c-0.064-7.74,0.249-14.477,2.437-16.586
	c3.45-3.325,8.965-7.644,13.963-7.644c4.477,0,6.749,2.925,10.889,3.536V4.854c-7.27,8.747-31.806,12.521-36.055,23.253
	c-5.763,14.556-2.356,37.136,5.413,43.299c0.564,5.843,1.709,11.981,3.904,17.317l0.121,0.291l0.239,0.208
	c0.025,0.021,4.3,3.735,9.752,7.476c2.891,1.959,6.061,3.945,9.171,5.399c0.017,0.97,0.038,1.578,0.038,1.578l2.431,2.072
	c0,0,2.105,0.869,4.986,0.933V96.615L180.715,96.615z"/>
<path fill="#28ABE3" d="M72.336,84.276h-1.728v-1.134c0-4.236-3.429-7.678-7.65-7.678H16.933c-4.217,0-7.647,3.442-7.647,7.678
	v1.134H7.558c-2.09-4.338-3.263-8.971-3.506-13.795h71.79C75.602,75.305,74.428,79.938,72.336,84.276z M66.887,84.276H56.094V79.2
	h6.864c2.169,0,3.929,1.77,3.929,3.942V84.276z M23.799,84.276H13.006v-1.134c0-2.173,1.762-3.942,3.927-3.942h6.866V84.276z
	 M38.086,84.276 M38.086,84.276H27.521V79.2h10.566V84.276z M52.373,79.2 M41.808,79.2h10.565v5.077H41.808V79.2z M52.373,79.2
	 M7.558,52.948h64.778c2.092,4.339,3.266,8.972,3.505,13.796H4.052C4.295,61.919,5.468,57.287,7.558,52.948z M75.133,50.215
	c-0.322-0.617-0.955-1.004-1.651-1.004H6.413c-0.695,0-1.332,0.387-1.652,1.004c-2.928,5.638-4.477,11.998-4.477,18.397
	c0,6.399,1.548,12.759,4.477,18.396c0.32,0.617,0.957,1.007,1.652,1.007h67.07c0.696,0,1.329-0.39,1.651-1.007
	c2.928-5.638,4.48-11.998,4.48-18.396C79.613,62.213,78.062,55.852,75.133,50.215L75.133,50.215z"/>
<path fill="#28ABE3" d="M19.297,57.976h-5.839c-1.028,0-1.858,0.838-1.858,1.868c0,1.032,0.83,1.869,1.858,1.869h5.839
	c1.027,0,1.861-0.836,1.861-1.869C21.158,58.814,20.324,57.976,19.297,57.976L19.297,57.976z"/>
<path fill="#28ABE3" d="M58.403,112.632c-5.461,3.723-11.842,5.693-18.455,5.693c-6.61,0-12.992-1.97-18.455-5.693
	c-0.85-0.58-2.006-0.358-2.583,0.497c-0.577,0.851-0.357,2.014,0.494,2.594c6.083,4.146,13.186,6.336,20.545,6.336
	c7.357,0,14.463-2.191,20.544-6.336c0.851-0.58,1.07-1.743,0.492-2.594C60.408,112.274,59.251,112.052,58.403,112.632
	L58.403,112.632z"/>
<path fill="#28ABE3" d="M23.501,105.148c-0.599,0.84-0.406,2.007,0.428,2.608c4.705,3.38,10.243,5.17,16.019,5.17
	c5.773,0,11.312-1.791,16.018-5.17c0.834-0.601,1.027-1.768,0.429-2.608c-0.602-0.84-1.76-1.034-2.598-0.431
	c-4.066,2.93-8.855,4.473-13.849,4.473c-4.994,0-9.783-1.543-13.849-4.473C25.261,104.114,24.097,104.308,23.501,105.148
	L23.501,105.148z"/>
<path fill="#28ABE3" d="M39.947,103.794c4.23,0,8.215-1.403,11.521-4.056c0.801-0.643,0.937-1.818,0.292-2.627
	c-0.641-0.804-1.81-0.935-2.613-0.291c-2.639,2.116-5.821,3.237-9.199,3.237c-3.377,0-6.559-1.121-9.2-3.237
	c-0.802-0.644-1.972-0.513-2.612,0.291c-0.643,0.81-0.512,1.984,0.289,2.627C31.731,102.391,35.717,103.794,39.947,103.794
	L39.947,103.794z"/>
<path fill="#E52528" d="M334.128,94.444l2.974,2.966c0.28,0.282,0.662,0.438,1.059,0.438h2.115v3.159h-2.115
	c-0.396,0-0.778,0.156-1.059,0.437l-2.974,2.972h-1.706v-9.972H334.128z M320.858,114.32h-26.8c-4.723,0-8.565-3.856-8.565-8.602
	V68.368c0-4.742,3.843-8.597,8.565-8.597h26.8c4.723,0,8.567,3.855,8.567,8.597v37.351
	C329.425,110.464,325.581,114.32,320.858,114.32z M337.102,72.645c0.28,0.282,0.662,0.438,1.059,0.438h2.115v3.156h-2.115
	c-0.396,0-0.778,0.159-1.059,0.439l-2.974,2.968h-1.706v-9.971h1.706L337.102,72.645z M334.747,82.657
	c0.396,0,0.777-0.159,1.057-0.438l2.972-2.966h3c0.826,0,1.498-0.677,1.498-1.508v-6.168c0-0.832-0.672-1.505-1.498-1.505h-3
	l-2.972-2.967c-0.279-0.281-0.661-0.438-1.057-0.438h-2.449c-0.822-5.6-5.641-9.91-11.439-9.91h-26.8
	c-6.373,0-11.561,5.212-11.561,11.612v37.351c0,6.405,5.188,11.616,11.561,11.616h26.8c5.802,0,10.617-4.313,11.439-9.909h2.449
	c0.396,0,0.777-0.158,1.057-0.44l2.972-2.968h3c0.826,0,1.498-0.672,1.498-1.505v-6.168c0-0.828-0.672-1.506-1.498-1.506h-3
	l-2.972-2.966c-0.279-0.283-0.661-0.439-1.057-0.439h-2.324v-8.775H334.747L334.747,82.657z"/>
<path fill="#E52528" d="M293.376,51.625c-0.384,0-0.771-0.109-1.115-0.34c-6.16-4.124-3.609-8.594-1.921-11.552
	c1.766-3.094,2.737-4.799-0.713-7.571c-0.869-0.699-1.01-1.972-0.314-2.844c0.695-0.874,1.965-1.014,2.831-0.315
	c6.146,4.937,3.465,9.635,1.691,12.744c-1.722,3.017-2.366,4.146,0.661,6.173c0.926,0.62,1.176,1.876,0.559,2.805
	C294.667,51.31,294.028,51.625,293.376,51.625z"/>
<path fill="#E52528" d="M306.296,51.625c-0.384,0-0.772-0.109-1.115-0.34c-6.16-4.124-3.609-8.594-1.922-11.552
	c1.766-3.094,2.739-4.799-0.711-7.571c-0.87-0.699-1.011-1.972-0.314-2.844c0.694-0.874,1.964-1.014,2.831-0.315
	c6.146,4.937,3.465,9.635,1.69,12.744c-1.722,3.017-2.366,4.146,0.66,6.173c0.926,0.62,1.176,1.876,0.56,2.805
	C307.586,51.31,306.948,51.625,306.296,51.625z"/>
<path fill="#E52528" d="M320.99,51.625c-0.384,0-0.772-0.109-1.116-0.34c-6.16-4.124-3.609-8.594-1.921-11.552
	c1.766-3.094,2.738-4.799-0.712-7.571c-0.87-0.699-1.011-1.972-0.315-2.844c0.695-0.874,1.965-1.014,2.832-0.315
	c6.146,4.937,3.464,9.635,1.69,12.744c-1.722,3.017-2.365,4.146,0.661,6.173c0.926,0.62,1.176,1.876,0.559,2.805
	C322.279,51.31,321.641,51.625,320.99,51.625z"/>
<path fill="#E52528" d="M292.517,67.819c-0.825,0-1.499,0.672-1.499,1.505v35.443c0,0.829,0.674,1.505,1.499,1.505
	c0.83,0,1.502-0.676,1.502-1.505V69.325C294.019,68.492,293.347,67.819,292.517,67.819L292.517,67.819z"/>
<path fill="#E52528" d="M299.991,67.819c-0.829,0-1.501,0.672-1.501,1.505v35.443c0,0.829,0.672,1.505,1.501,1.505
	c0.826,0,1.496-0.676,1.496-1.505V69.325C301.487,68.492,300.817,67.819,299.991,67.819L299.991,67.819z"/>
<path fill="#E52528" d="M307.458,67.819c-0.826,0-1.5,0.672-1.5,1.505v35.443c0,0.829,0.674,1.505,1.5,1.505
	c0.83,0,1.499-0.676,1.499-1.505V69.325C308.958,68.492,308.289,67.819,307.458,67.819L307.458,67.819z"/>
<path fill="#E52528" d="M314.928,67.819c-0.826,0-1.498,0.672-1.498,1.505v35.443c0,0.829,0.672,1.505,1.498,1.505
	c0.827,0,1.5-0.676,1.5-1.505V69.325C316.428,68.492,315.755,67.819,314.928,67.819L314.928,67.819z"/>
<path fill="#E52528" d="M322.398,67.819c-0.825,0-1.494,0.672-1.494,1.505v35.443c0,0.829,0.669,1.505,1.494,1.505
	c0.83,0,1.501-0.676,1.501-1.505V69.325C323.899,68.492,323.228,67.819,322.398,67.819L322.398,67.819z"/>
</svg>
