<?xml version="1.0" encoding="utf-8"?>
<!-- Generator: Adobe Illustrator 16.0.0, SVG Export Plug-In . SVG Version: 6.00 Build 0)  -->
<!DOCTYPE svg PUBLIC "-//W3C//DTD SVG 1.1//EN" "http://www.w3.org/Graphics/SVG/1.1/DTD/svg11.dtd">
<svg version="1.1" id="Layer_1" xmlns="http://www.w3.org/2000/svg" xmlns:xlink="http://www.w3.org/1999/xlink" x="0px" y="0px"
	 width="422.362px" height="124.724px" viewBox="0 0 422.362 124.724" enable-background="new 0 0 422.362 124.724"
	 xml:space="preserve">
<path fill-rule="evenodd" clip-rule="evenodd" fill="#5ECBF1" d="M15.809,58.556c14.83,0.052,29.832-0.348,45.378,4.408
	c16.038,4.904,32.575,12.758,44.634,30.986v27.907H20.256l-4.448-3.684V58.556z"/>
<path fill-rule="evenodd" clip-rule="evenodd" fill="#5ECBF1" d="M406.562,58.388c-14.83,0.051-29.831-0.347-45.377,4.395
	c-16.039,4.891-32.576,12.722-44.634,30.899v27.829h85.564l4.446-3.673V58.388z"/>
<path fill-rule="evenodd" clip-rule="evenodd" fill="#5ECBF1" d="M174.48,4.56c-18.754,1.068-37.478,0.111-51.592,14.905
	C103.01,40.302,94.127,41.636,60.591,49.748v72.11h146.081c0.009-0.034,0.016-0.066,0.016-0.104V121c0-0.162-0.108-0.3-0.271-0.346
	c-8.196-2.352-15.662-4.572-26.653-6.157V110.7c9.013,1.383,22.581,1.307,26.54,1.349c0.104,0.003,0.198-0.032,0.272-0.104
	c0.074-0.07,0.112-0.157,0.112-0.256v-0.695c0-0.165-0.114-0.306-0.281-0.35c-9.052-2.297-17.647-4.99-26.643-7.34v-4.166
	c8.291,2.096,22.575,2.773,26.538,2.842c0.105,0.003,0.199-0.031,0.272-0.103c0.076-0.071,0.114-0.157,0.114-0.258v-0.658
	c0-0.161-0.106-0.298-0.265-0.346c-9.062-2.738-17.646-5.895-26.659-8.677v-3.956c8.363,2.409,22.665,3.751,26.529,3.911
	c0.106,0.005,0.201-0.029,0.278-0.1c0.076-0.072,0.117-0.16,0.117-0.262v-0.615c0-0.154-0.098-0.284-0.248-0.339l-26.676-9.37
	v-4.854c8.316,2.899,22.624,5.184,26.519,5.452c0.107,0.007,0.204-0.026,0.283-0.097c0.081-0.07,0.122-0.161,0.122-0.264v-0.57
	c0-0.15-0.088-0.275-0.231-0.332c-9.006-3.615-17.709-7.821-26.691-11.478v-3.684c8.286,3.303,22.59,5.94,26.506,6.333
	c0.109,0.01,0.208-0.02,0.292-0.092c0.083-0.072,0.126-0.162,0.126-0.27v-0.521c0-0.143-0.083-0.265-0.218-0.326
	c-8.952-4.05-17.762-8.715-26.706-12.806v-3.853c8.334,3.647,22.616,7.249,26.492,7.778c0.113,0.015,0.214-0.014,0.3-0.085
	c0.087-0.07,0.132-0.164,0.132-0.273v-0.472c0-0.138-0.076-0.255-0.203-0.319c-8.973-4.529-17.755-9.674-26.721-14.226v-3.47
	c8.337,4.032,22.586,8.055,26.475,8.748c0.116,0.021,0.223-0.007,0.312-0.078c0.09-0.071,0.137-0.167,0.137-0.278v-0.418
	c0-0.131-0.069-0.246-0.187-0.312c-8.914-4.976-17.825-10.528-26.736-15.522v-3.285c8.653,4.8,15.671,7.336,26.457,9.79
	c0.116,0.026,0.228,0.003,0.321-0.067c0.095-0.072,0.146-0.17,0.146-0.284v-0.359c0-0.128-0.063-0.236-0.176-0.304
	c-8.903-5.458-17.845-11.258-26.748-16.719V19.92c8.753,5.191,15.422,8.252,26.436,11.396c0.118,0.034,0.236,0.015,0.335-0.057
	c0.098-0.07,0.152-0.171,0.152-0.29v-0.293c0-0.122-0.057-0.227-0.162-0.296c-8.787-5.882-17.97-12.221-26.761-18.106V8.409
	c7.834,5.028,21.084,10.885,26.412,12.786c0.121,0.043,0.245,0.029,0.348-0.042c0.105-0.069,0.164-0.175,0.164-0.297v-0.218
	c0-0.118-0.053-0.217-0.15-0.289L180.327,1.301c-2.392-1.537-4.934-1.894-6.233,0.088C173.327,2.562,173.563,3.547,174.48,4.56"/>
<path fill-rule="evenodd" clip-rule="evenodd" fill="#5ECBF1" d="M247.889,4.544c18.753,1.065,37.477,0.111,51.591,14.862
	c19.878,20.777,28.764,22.108,62.297,30.198v71.905H215.699c-0.008-0.033-0.016-0.065-0.016-0.102v-0.754
	c0-0.161,0.108-0.299,0.271-0.345c8.195-2.344,15.659-4.558,26.649-6.139v-3.786c-9.014,1.378-22.579,1.303-26.537,1.346
	c-0.104,0.002-0.197-0.034-0.271-0.104c-0.073-0.069-0.112-0.155-0.112-0.255v-0.693c0-0.165,0.114-0.306,0.281-0.348
	c9.051-2.292,17.646-4.979,26.64-7.32v-4.154c-8.29,2.09-22.573,2.765-26.535,2.834c-0.104,0.001-0.199-0.032-0.271-0.104
	c-0.075-0.071-0.114-0.157-0.114-0.258v-0.655c0-0.159,0.106-0.296,0.266-0.345c9.059-2.73,17.642-5.877,26.655-8.651v-3.945
	c-8.361,2.403-22.664,3.741-26.525,3.899c-0.106,0.006-0.203-0.027-0.277-0.1c-0.077-0.07-0.118-0.158-0.118-0.26v-0.612
	c0-0.155,0.099-0.284,0.248-0.34l26.673-9.343v-4.84c-8.313,2.891-22.623,5.17-26.516,5.436c-0.108,0.008-0.205-0.025-0.283-0.096
	c-0.081-0.07-0.12-0.16-0.12-0.264v-0.568c0-0.149,0.087-0.274,0.23-0.332c9.003-3.605,17.708-7.799,26.688-11.443v-3.673
	c-8.284,3.292-22.589,5.923-26.504,6.314c-0.108,0.01-0.209-0.021-0.291-0.093c-0.083-0.07-0.126-0.16-0.126-0.267V70.63
	c0-0.143,0.082-0.265,0.216-0.325c8.953-4.039,17.762-8.691,26.705-12.769v-3.843c-8.331,3.637-22.614,7.229-26.488,7.756
	c-0.114,0.015-0.217-0.013-0.301-0.084c-0.087-0.071-0.132-0.164-0.132-0.273v-0.47c0-0.137,0.076-0.254,0.202-0.318
	c8.971-4.517,17.754-9.646,26.719-14.185v-3.46c-8.335,4.02-22.583,8.033-26.473,8.722c-0.114,0.02-0.223-0.006-0.311-0.077
	c-0.091-0.071-0.136-0.166-0.136-0.277v-0.417c0-0.131,0.066-0.245,0.185-0.311c8.913-4.962,17.825-10.499,26.734-15.478v-3.275
	c-8.652,4.786-15.67,7.315-26.455,9.761c-0.116,0.026-0.228,0.002-0.32-0.068c-0.095-0.072-0.146-0.169-0.146-0.283v-0.357
	c0-0.129,0.062-0.235,0.175-0.304c8.901-5.443,17.845-11.227,26.746-16.672V19.86c-8.752,5.177-15.422,8.229-26.434,11.364
	c-0.118,0.035-0.235,0.015-0.334-0.055c-0.099-0.071-0.151-0.171-0.151-0.289v-0.293c0-0.121,0.055-0.227,0.161-0.295
	c8.783-5.864,17.967-12.187,26.758-18.056V8.382c-7.832,5.013-21.083,10.853-26.41,12.75c-0.119,0.042-0.243,0.027-0.348-0.042
	c-0.104-0.07-0.163-0.175-0.163-0.296v-0.218c0-0.117,0.053-0.218,0.151-0.287l26.207-18.995c2.392-1.533,4.936-1.888,6.233,0.088
	C249.043,2.551,248.806,3.534,247.889,4.544"/>
<path fill-rule="evenodd" clip-rule="evenodd" fill="#0064B0" d="M177.651,19.258c2.148-0.184,3.742-2.083,3.559-4.244
	c-0.184-2.158-2.076-3.759-4.224-3.575c-10.436,0.353-20.023,1.814-31.452,4.479c-23.7,5.61-27.304,24.635-56.452,34.158
	c-9.493,3.102-18.949,4.253-28.491,6.781v1.175c9.891-1.654,19.691-2.825,29.086-5.032c6.501-1.528,12.899-3.214,18.625-7.289
	c9.934-6.864,21.066-18.274,36.31-23.167C158.317,19.781,167.134,19.622,177.651,19.258 M177.651,99.202
	c-24.033,0.394-48.605,3.112-71.833,5.382C78.227,86.246,52.009,84.539,16.467,83.445c-0.12,0.004-0.239,0-0.358-0.008l-0.002,0.003
	c-3.983,1.773-8.176,3.866-12.159,5.64c-1.077,0.48-2.327,0.229-3.094-0.625c-0.767-0.852-0.813-2.041-0.115-2.942
	c0.398-0.515,0.895-0.979,1.484-1.376c3.731-2.529,7.711-4.806,11.442-7.334c0.689-0.602,1.592-0.982,2.589-1.008
	c36.014,1.834,65.329,4.246,89.563,25.445c13.14-2.203,26.049-6.523,39.454-7.969c10.006-0.957,21.039-1.525,31.713-1.887
	c2.148-0.185,4.04,1.416,4.224,3.575C181.393,97.119,179.799,99.017,177.651,99.202 M177.651,110.614
	c-23.53,0.354-48.398,1.532-71.833,2.621c-28.646-9.124-56.604-9.964-89.222-10.483c-0.166,0.01-0.329,0.007-0.49-0.002h-0.004
	c-4.015,0.967-8.843,2.271-12.858,3.235c-1.069,0.256-2.145-0.115-2.773-0.962c-0.626-0.847-0.616-1.914,0.024-2.753
	c0.462-0.604,1.086-1.108,1.846-1.479c3.674-1.78,8.237-3.375,11.986-5.14c0.152-0.086,0.312-0.161,0.477-0.228l0.006-0.002
	l0.004-0.003c0.412-0.163,0.859-0.264,1.33-0.289c36.056,0.682,62.248,1.898,89.674,13.806c13.158-1.617,26.302-3.563,39.417-4.612
	c9.801-0.715,21.042-1.156,31.75-1.518c2.148-0.185,4.04,1.416,4.224,3.571C181.393,108.535,179.799,110.43,177.651,110.614
	 M105.869,121.857H3.845c-0.825-0.324-1.433-1.032-1.553-1.905c-0.166-1.206,0.649-2.312,1.913-2.626l10.908-2.705
	c0.292-0.087,0.6-0.146,0.92-0.171c36.089-0.466,59.16,0.688,89.785,3.315c22.091-1.453,45.187-2.678,71.167-3.555
	c2.148-0.184,4.04,1.414,4.224,3.568c0.159,1.87-1.02,3.545-2.739,4.078H105.869z M16.368,56.461
	c-1.049-0.003-2.005,0.402-2.722,1.051L1.702,67.659c-0.153,0.13-0.298,0.261-0.435,0.399c-0.892,0.893-0.93,2.244-0.089,3.178
	s2.278,1.137,3.379,0.475l11.55-7.538l0.085-0.037c0.048,0.002,0.097,0.004,0.146,0.004c38.463,1.67,62.943,4.716,89.479,32.251
	v0.002c10.709-1.896,22.779-5.182,34.909-6.754c11.697-1.515,24.517-1.637,36.924-1.857c2.148-0.184,3.742-2.084,3.559-4.242
	c-0.184-2.16-2.076-3.76-4.224-3.577c-10.641,0.36-21.466,1.059-31.675,2.259c-11.489,1.521-18.744,4.977-31.688,8.422
	c-2.497,0.666-5.301,1.309-8.337,1.936c-0.934-1.319-1.89-2.592-2.867-3.811c3.541-0.834,7.207-1.863,11.052-3.161
	c20.027-6.753,41.147-8.796,64.181-9.245c2.148-0.186,3.742-2.086,3.559-4.244c-0.184-2.159-2.076-3.76-4.224-3.576
	c-10.606,0.359-21.226,1.184-31.637,2.629c-12.122,1.871-23.721,7.675-33.235,10.906c-4.037,1.373-8.158,2.527-12.365,3.537
	c-1.099-1.227-2.223-2.399-3.37-3.518c6.554-1.306,12.824-3.081,18.297-5.65c22.426-10.525,37.572-10.956,62.975-11.504
	c2.148-0.185,3.742-2.082,3.559-4.24c-0.184-2.16-2.076-3.761-4.224-3.576c-10.572,0.357-20.985,1.308-31.601,2.997
	c-12.75,2.222-24.266,9.252-33.69,13.668c-5.854,2.25-12.035,3.986-18.431,5.449c-1.249-1.08-2.524-2.105-3.823-3.076
	c5.271-0.852,10.536-2.035,15.828-3.877c13.277-4.967,25.26-13.746,39.417-16.424c9.029-1.71,20.454-2.041,32.965-2.341
	c2.148-0.184,3.742-2.083,3.559-4.243c-0.184-2.158-2.076-3.759-4.224-3.574c-11.242,0.492-25.779,2.44-34.848,5.276
	c-11.656,3.647-18.96,8.787-31.458,15.62c-7.615,3.53-15.981,5.548-24.674,7.153c-2.002-1.316-4.057-2.525-6.159-3.632
	c11.024-1.27,22.149-3.149,30.248-7.97c17.161-9.302,25.368-14.858,38.721-17.623c7.132-1.477,17.26-2.762,28.834-2.429
	c2.148-0.184,3.742-2.083,3.559-4.242c-0.184-2.16-2.076-3.76-4.224-3.576c-11.944,0.404-25.755,2.341-35.571,5.999
	c-11.479,4.276-20.209,10.676-31.834,17.937c-10.086,5.535-21.854,7.713-33.86,9.882c-3.134-1.426-6.365-2.656-9.684-3.728
	c14.863-1.995,31.192-3.439,43.544-10.783c13.082-7.776,21.174-14.457,31.112-18.17c9.334-3.487,22.089-4.292,36.958-4.74
	c2.148-0.184,3.742-2.083,3.559-4.242c-0.184-2.16-2.076-3.76-4.224-3.576c-10.47,0.355-20.262,1.688-31.488,4.108
	c-14.642,3.274-27.215,16.732-36.971,23.229c-12.981,8.642-29.837,9.46-45.664,13.205C48.613,59.287,32.863,57.829,16.368,56.461
	 M177.65,7.835c-9.189,0.37-16.914,0.706-30.246,3.662c-18.879,4.184-28.037,15.858-38.015,23.482
	C94.9,46.052,77.855,47.823,60.59,50.907v-1.159c15.481-4.943,33.064-5.952,45.691-16.696c9.718-8.271,23.386-24.211,39.29-28.186
	c11.633-2.909,21.012-4.497,31.414-4.85c2.148-0.184,4.04,1.417,4.224,3.577C181.393,5.753,179.799,7.652,177.65,7.835"/>
<path fill-rule="evenodd" clip-rule="evenodd" fill="#0064B0" d="M244.717,19.2c-2.146-0.184-3.741-2.079-3.559-4.231
	c0.185-2.153,2.076-3.749,4.224-3.566c10.438,0.352,20.023,1.81,31.453,4.466c23.7,5.595,27.305,24.565,56.453,34.062
	c9.492,3.092,18.948,4.241,28.49,6.762v1.171c-9.891-1.649-19.69-2.817-29.086-5.018c-6.503-1.523-12.901-3.204-18.623-7.268
	c-9.936-6.844-21.069-18.222-36.312-23.102C264.052,19.721,255.236,19.563,244.717,19.2 M244.717,98.918
	c24.033,0.393,48.606,3.103,71.834,5.366c27.59-18.287,53.809-19.988,89.35-21.08c0.12,0.004,0.24,0,0.358-0.007l0.002,0.003
	c3.983,1.769,8.176,3.855,12.159,5.624c1.078,0.479,2.328,0.228,3.094-0.624c0.767-0.849,0.813-2.035,0.117-2.934
	c-0.4-0.514-0.896-0.977-1.486-1.373c-3.729-2.521-7.71-4.791-11.441-7.312c-0.688-0.6-1.591-0.98-2.59-1.004
	c-36.014,1.828-65.329,4.234-89.562,25.373c-13.141-2.197-26.05-6.506-39.454-7.945c-10.009-0.955-21.04-1.523-31.715-1.883
	c-2.147-0.186-4.039,1.411-4.224,3.565C240.976,96.841,242.571,98.734,244.717,98.918 M244.717,110.298
	c23.531,0.352,48.399,1.527,71.834,2.613c28.644-9.1,56.603-9.936,89.221-10.454c0.167,0.009,0.33,0.007,0.491-0.002l0.004,0.001
	c4.015,0.963,8.843,2.263,12.857,3.226c1.07,0.256,2.146-0.114,2.772-0.958c0.628-0.846,0.62-1.91-0.023-2.747
	c-0.462-0.603-1.085-1.104-1.846-1.474c-3.676-1.775-8.237-3.365-11.985-5.125c-0.153-0.086-0.312-0.161-0.478-0.228l-0.006-0.002
	l-0.004-0.003c-0.413-0.162-0.859-0.264-1.331-0.287c-36.055,0.679-62.246,1.891-89.673,13.767
	c-13.158-1.614-26.304-3.554-39.419-4.601c-9.8-0.712-21.041-1.152-31.75-1.513c-2.147-0.185-4.039,1.412-4.224,3.562
	C240.976,108.224,242.571,110.115,244.717,110.298 M316.5,121.509h102.022c0.826-0.322,1.434-1.029,1.554-1.9
	c0.167-1.202-0.649-2.306-1.913-2.618l-10.907-2.696c-0.291-0.087-0.6-0.146-0.921-0.171c-36.09-0.465-59.16,0.686-89.784,3.307
	c-22.092-1.45-45.188-2.671-71.169-3.545c-2.147-0.184-4.039,1.408-4.224,3.557c-0.159,1.865,1.021,3.537,2.739,4.067H316.5z
	 M406.001,56.298c1.048-0.003,2.004,0.401,2.722,1.049l11.945,10.117c0.151,0.13,0.297,0.26,0.433,0.397
	c0.895,0.89,0.93,2.237,0.091,3.169c-0.84,0.932-2.279,1.135-3.381,0.473l-11.55-7.515l-0.085-0.039
	c-0.049,0.004-0.096,0.006-0.146,0.006c-38.465,1.665-62.943,4.7-89.479,32.159v0.002c-10.71-1.893-22.779-5.168-34.91-6.734
	c-11.695-1.512-24.516-1.633-36.924-1.853c-2.146-0.185-3.741-2.078-3.559-4.231c0.185-2.152,2.076-3.75,4.224-3.565
	c10.642,0.358,21.467,1.056,31.678,2.251c11.487,1.519,18.743,4.963,31.688,8.4c2.497,0.661,5.301,1.303,8.335,1.929
	c0.936-1.317,1.89-2.585,2.869-3.801c-3.542-0.831-7.207-1.858-11.053-3.151c-20.027-6.734-41.146-8.771-64.182-9.221
	c-2.146-0.184-3.741-2.077-3.559-4.23c0.185-2.152,2.076-3.75,4.224-3.566c10.608,0.358,21.229,1.18,31.638,2.621
	c12.123,1.865,23.723,7.653,33.235,10.876c4.037,1.368,8.16,2.521,12.364,3.527c1.1-1.224,2.224-2.392,3.37-3.508
	c-6.554-1.302-12.824-3.072-18.297-5.636c-22.426-10.494-37.572-10.924-62.976-11.47c-2.146-0.184-3.741-2.076-3.559-4.229
	c0.185-2.154,2.076-3.75,4.224-3.566c10.573,0.356,20.986,1.305,31.603,2.989c12.75,2.216,24.267,9.226,33.689,13.63
	c5.855,2.243,12.036,3.975,18.431,5.434c1.25-1.077,2.524-2.099,3.822-3.067c-5.27-0.85-10.536-2.029-15.827-3.865
	c-13.276-4.955-25.26-13.708-39.417-16.379c-9.029-1.705-20.454-2.035-32.966-2.333c-2.146-0.184-3.741-2.078-3.559-4.231
	c0.185-2.153,2.076-3.749,4.224-3.565c11.243,0.491,25.78,2.433,34.85,5.262c11.656,3.637,18.961,8.762,31.459,15.576
	c7.613,3.519,15.979,5.532,24.673,7.134c2.002-1.313,4.055-2.52,6.159-3.623c-11.025-1.266-22.149-3.139-30.25-7.948
	c-17.16-9.275-25.368-14.816-38.719-17.573c-7.134-1.473-17.263-2.754-28.837-2.421c-2.146-0.183-3.741-2.077-3.559-4.23
	c0.185-2.152,2.076-3.75,4.224-3.565c11.945,0.403,25.757,2.335,35.573,5.981c11.479,4.264,20.207,10.646,31.834,17.886
	c10.086,5.52,21.854,7.693,33.858,9.855c3.135-1.422,6.367-2.649,9.685-3.717c-14.861-1.99-31.192-3.431-43.545-10.753
	c-13.082-7.753-21.175-14.417-31.113-18.118c-9.332-3.478-22.087-4.279-36.957-4.728c-2.146-0.184-3.741-2.077-3.559-4.23
	c0.185-2.153,2.076-3.75,4.224-3.565c10.471,0.354,20.263,1.684,31.489,4.098c14.643,3.264,27.216,16.685,36.973,23.163
	c12.979,8.617,29.835,9.433,45.664,13.167C373.755,59.116,389.508,57.663,406.001,56.298 M244.719,7.811
	c9.189,0.369,16.913,0.703,30.246,3.65c18.879,4.173,28.036,15.813,38.014,23.417c14.489,11.042,31.533,12.807,48.8,15.882v-1.154
	c-15.48-4.929-33.063-5.935-45.691-16.649c-9.72-8.247-23.386-24.141-39.291-28.106c-11.633-2.899-21.012-4.483-31.414-4.835
	c-2.147-0.183-4.039,1.414-4.224,3.566C240.976,5.733,242.571,7.627,244.719,7.811"/>
</svg>
