<svg width="418" height="121" viewBox="0 0 418 121" fill="none" xmlns="http://www.w3.org/2000/svg">
<path fill-rule="evenodd" clip-rule="evenodd" d="M15.6191 57.9251C30.2801 57.9771 45.1101 57.5811 60.4781 62.2861C76.3331 67.1411 92.6811 74.9101 104.601 92.9431V120.576H20.0161L15.6191 116.928V57.9251Z" fill="#5ECBF1"/>
<path fill-rule="evenodd" clip-rule="evenodd" d="M401.912 57.7581C387.252 57.8091 372.422 57.4151 357.055 62.1061C341.199 66.9481 324.851 74.6951 312.932 92.6771V120.232H397.517L401.913 116.595V57.7581H401.912Z" fill="#5ECBF1"/>
<path fill-rule="evenodd" clip-rule="evenodd" d="M172.477 4.51113C153.937 5.56813 135.428 4.62113 121.475 19.2551C101.824 39.8671 93.0421 41.1871 59.8901 49.2121V120.576H204.3C204.309 120.542 204.316 120.51 204.316 120.473V119.726C204.316 119.565 204.209 119.43 204.048 119.384C195.945 117.054 188.565 114.854 177.7 113.283V109.521C186.61 110.891 200.023 110.815 203.936 110.857C204.039 110.86 204.131 110.825 204.205 110.754C204.278 110.685 204.316 110.599 204.316 110.501V109.812C204.316 109.648 204.203 109.509 204.038 109.466C195.089 107.189 186.592 104.52 177.7 102.195V98.0731C185.896 100.147 200.017 100.817 203.934 100.885C204.038 100.887 204.13 100.853 204.203 100.783C204.278 100.712 204.316 100.627 204.316 100.528V99.8771C204.316 99.7181 204.211 99.5831 204.054 99.5351C195.096 96.8261 186.61 93.7041 177.7 90.9521V87.0381C185.967 89.4221 200.105 90.7491 203.925 90.9071C204.03 90.9121 204.124 90.8791 204.2 90.8081C204.275 90.7381 204.316 90.6511 204.316 90.5501V89.9421C204.316 89.7891 204.219 89.6601 204.071 89.6061L177.7 80.3371V75.5361C185.921 78.4041 200.065 80.6641 203.915 80.9291C204.021 80.9361 204.117 80.9031 204.195 80.8331C204.274 80.7641 204.315 80.6741 204.315 80.5721V80.0081C204.315 79.8601 204.228 79.7361 204.086 79.6791C195.183 76.1031 186.579 71.9431 177.7 68.3261V64.6801C185.891 67.9491 200.031 70.5591 203.903 70.9471C204.011 70.9571 204.109 70.9271 204.191 70.8561C204.273 70.7851 204.316 70.6961 204.316 70.5901V70.0731C204.316 69.9331 204.234 69.8121 204.101 69.7511C195.251 65.7441 186.542 61.1251 177.7 57.0791V53.2681C185.938 56.8761 200.057 60.4391 203.889 60.9621C204 60.9771 204.101 60.9481 204.186 60.8781C204.271 60.8081 204.316 60.7161 204.316 60.6081V60.1411C204.316 60.0051 204.241 59.8891 204.115 59.8251C195.245 55.3451 186.563 50.2561 177.7 45.7531V42.3211C185.941 46.3091 200.027 50.2891 203.872 50.9741C203.986 50.9941 204.092 50.9671 204.18 50.8971C204.269 50.8271 204.315 50.7321 204.315 50.6221V50.2081C204.315 50.0781 204.247 49.9651 204.13 49.9001C195.319 44.9771 186.509 39.4851 177.7 34.5451V31.2961C186.254 36.0441 193.192 38.5531 203.854 40.9801C203.969 41.0061 204.08 40.9831 204.172 40.9131C204.266 40.8421 204.316 40.7451 204.316 40.6321V40.2771C204.316 40.1501 204.253 40.0441 204.142 39.9761C195.341 34.5761 186.501 28.8391 177.7 23.4371V19.7041C186.353 24.8401 192.946 27.8671 203.833 30.9781C203.95 31.0111 204.066 30.9921 204.165 30.9221C204.262 30.8531 204.315 30.7531 204.315 30.6351V30.3451C204.315 30.2251 204.259 30.1211 204.155 30.0521C195.469 24.2341 186.391 17.9631 177.7 12.1411V8.31713C185.444 13.2911 198.543 19.0851 203.81 20.9651C203.929 21.0081 204.052 20.9931 204.154 20.9241C204.258 20.8551 204.316 20.7511 204.316 20.6301V20.4141C204.316 20.2981 204.264 20.1991 204.167 20.1291L178.256 1.28614C175.892 -0.233861 173.378 -0.586871 172.094 1.37313C171.336 2.53413 171.57 3.50913 172.477 4.51113Z" fill="#5ECBF1"/>
<path fill-rule="evenodd" clip-rule="evenodd" d="M245.054 4.49513C263.594 5.54913 282.103 4.60514 296.056 19.1981C315.706 39.7511 324.49 41.0681 357.641 49.0701V120.232H213.231C213.222 120.199 213.215 120.167 213.215 120.131V119.385C213.215 119.225 213.322 119.089 213.483 119.044C221.586 116.721 228.966 114.528 239.83 112.961V109.209C230.92 110.575 217.508 110.5 213.595 110.542C213.492 110.544 213.4 110.509 213.326 110.439C213.253 110.37 213.215 110.285 213.215 110.186V109.499C213.215 109.336 213.328 109.197 213.493 109.155C222.443 106.884 230.939 104.222 239.83 101.904V97.7941C231.635 99.8621 217.514 100.529 213.597 100.598C213.493 100.599 213.401 100.566 213.328 100.495C213.253 100.425 213.215 100.34 213.215 100.241V99.5921C213.215 99.4341 213.32 99.3001 213.477 99.2511C222.435 96.5501 230.92 93.4371 239.83 90.6931V86.7901C231.563 89.1671 217.426 90.4911 213.606 90.6481C213.501 90.6531 213.407 90.6201 213.331 90.5491C213.256 90.4791 213.215 90.3931 213.215 90.2921V89.6861C213.215 89.5331 213.312 89.4051 213.46 89.3501L239.83 80.1081V75.3211C231.61 78.1801 217.466 80.4341 213.616 80.6981C213.51 80.7051 213.414 80.6721 213.336 80.6031C213.256 80.5331 213.216 80.4441 213.216 80.3421V79.7801C213.216 79.6321 213.303 79.5081 213.445 79.4521C222.348 75.8851 230.951 71.7371 239.83 68.1311V64.4951C231.64 67.7541 217.499 70.3571 213.628 70.7441C213.52 70.7541 213.422 70.7231 213.34 70.6531C213.258 70.5831 213.215 70.4941 213.215 70.3891V69.8731C213.215 69.7331 213.297 69.6121 213.43 69.5521C222.281 65.5561 230.99 60.9501 239.83 56.9161V53.1151C231.593 56.7131 217.474 60.2661 213.642 60.7871C213.531 60.8021 213.43 60.7741 213.345 60.7041C213.26 60.6341 213.215 60.5421 213.215 60.4341V59.9691C213.215 59.8331 213.29 59.7181 213.416 59.6541C222.285 55.1861 230.968 50.1121 239.83 45.6221V42.1991C231.59 46.1761 217.504 50.1451 213.659 50.8271C213.545 50.8471 213.439 50.8211 213.351 50.7511C213.262 50.6811 213.216 50.5871 213.216 50.4771V50.0641C213.216 49.9341 213.284 49.8221 213.401 49.7571C222.212 44.8481 231.022 39.3711 239.83 34.4461V31.2061C231.277 35.9401 224.339 38.4421 213.677 40.8621C213.562 40.8881 213.451 40.8641 213.359 40.7951C213.265 40.7241 213.215 40.6271 213.215 40.5151V40.1611C213.215 40.0341 213.278 39.9291 213.389 39.8611C222.19 34.4761 231.031 28.7551 239.83 23.3681V19.6461C231.178 24.7671 224.585 27.7861 213.698 30.8881C213.581 30.9221 213.465 30.9021 213.366 30.8331C213.269 30.7631 213.216 30.6641 213.216 30.5471V30.2571C213.216 30.1371 213.272 30.0331 213.376 29.9651C222.062 24.1641 231.14 17.9101 239.83 12.1041V8.29213C232.087 13.2511 218.988 19.0281 213.721 20.9041C213.602 20.9461 213.479 20.9311 213.377 20.8631C213.273 20.7941 213.215 20.6901 213.215 20.5701V20.3541C213.215 20.2381 213.267 20.1391 213.364 20.0701L239.275 1.28012C241.638 -0.235878 244.154 -0.587872 245.437 1.36713C246.196 2.52313 245.961 3.49613 245.054 4.49513Z" fill="#5ECBF1"/>
<path fill-rule="evenodd" clip-rule="evenodd" d="M175.611 19.0501C177.735 18.8681 179.31 16.9891 179.129 14.8521C178.947 12.7171 177.077 11.1331 174.953 11.3151C164.637 11.6641 155.159 13.1101 143.861 15.7461C120.431 21.2951 116.869 40.1151 88.0541 49.5361C78.6701 52.6041 69.3221 53.7431 59.8891 56.2441V57.4061C69.6671 55.7701 79.3551 54.6121 88.6431 52.4281C95.0701 50.9171 101.395 49.2491 107.054 45.2181C116.875 38.4281 127.88 27.1411 142.949 22.3001C156.498 19.5671 165.215 19.4101 175.611 19.0501ZM175.611 98.1371C151.853 98.5261 127.562 101.216 104.6 103.461C77.3241 85.3201 51.4061 83.6321 16.2711 82.5491C16.1521 82.5531 16.0341 82.5491 15.9171 82.5421L15.9151 82.5451C11.9781 84.2991 7.83208 86.3701 3.89508 88.1241C2.83008 88.6001 1.59407 88.3511 0.836074 87.5061C0.0780737 86.6631 0.0320753 85.4871 0.722075 84.5951C1.11608 84.0861 1.60708 83.6271 2.19008 83.2331C5.87808 80.7311 9.81307 78.4801 13.5011 75.9791C14.1821 75.3841 15.0741 75.0071 16.0611 74.9821C51.6631 76.7961 80.6431 79.1831 104.6 100.153C117.59 97.9741 130.351 93.7001 143.603 92.2711C153.495 91.3241 164.401 90.7611 174.953 90.4031C177.077 90.2211 178.947 91.8041 179.129 93.9401C179.31 96.0761 177.735 97.9551 175.611 98.1371ZM175.611 109.436C152.35 109.787 127.766 110.955 104.6 112.034C76.2821 102.993 48.6441 102.162 16.3991 101.648C16.2351 101.658 16.0741 101.655 15.9141 101.646L15.9101 101.647C11.9411 102.603 7.16807 103.893 3.19907 104.849C2.14207 105.103 1.07808 104.735 0.458075 103.896C-0.160925 103.058 -0.151922 102.002 0.481078 101.172C0.938078 100.574 1.55507 100.076 2.30607 99.7101C5.93907 97.9491 10.4491 96.3711 14.1551 94.6251C14.3061 94.5401 14.4641 94.4661 14.6271 94.4001L14.6331 94.3981L14.6371 94.3951C15.0441 94.2341 15.4861 94.1341 15.9511 94.1101C51.5951 94.7841 77.4871 95.9871 104.6 107.774C117.608 106.171 130.601 104.243 143.567 103.204C153.256 102.497 164.368 102.06 174.953 101.703C177.077 101.52 178.947 103.103 179.129 105.238C179.31 107.376 177.735 109.254 175.611 109.436ZM104.65 120.575H3.79307C2.97807 120.254 2.37708 119.554 2.25808 118.689C2.09408 117.494 2.90008 116.397 4.14908 116.087L14.9321 113.407C15.2211 113.32 15.5251 113.262 15.8421 113.237C51.5191 112.775 74.3261 113.919 104.6 116.523C126.439 115.083 149.27 113.869 174.953 113C177.077 112.818 178.947 114.401 179.129 116.536C179.286 118.389 178.121 120.048 176.422 120.575H104.65V120.575ZM16.1731 55.8531C15.1361 55.8501 14.1911 56.2511 13.4821 56.8931L1.67408 66.9341C1.52308 67.0621 1.38008 67.1921 1.24408 67.3291C0.362078 68.2111 0.325073 69.5481 1.15607 70.4721C1.98707 71.3961 3.40808 71.5971 4.49708 70.9421L15.9151 63.4831L15.9991 63.4461C16.0471 63.4481 16.0951 63.4501 16.1441 63.4501C54.1671 65.1031 78.3671 68.1171 104.6 95.3561V95.3571C115.187 93.4811 127.118 90.2311 139.11 88.6761C150.673 87.1781 163.346 87.0581 175.611 86.8391C177.735 86.6571 179.31 84.7771 179.129 82.6421C178.947 80.5061 177.077 78.9231 174.953 79.1041C164.434 79.4601 153.733 80.1511 143.64 81.3381C132.282 82.8441 125.111 86.2611 112.315 89.6701C109.847 90.3281 107.074 90.9641 104.073 91.5851C103.15 90.2791 102.205 89.0211 101.238 87.8151C104.739 86.9901 108.363 85.9711 112.164 84.6881C131.963 78.0081 152.841 75.9871 175.611 75.5421C177.735 75.3591 179.31 73.4791 179.129 71.3441C178.947 69.2081 177.077 67.6241 174.953 67.8061C164.468 68.1611 153.97 68.9771 143.678 70.4061C131.695 72.2571 120.228 77.9991 110.823 81.1961C106.833 82.5541 102.758 83.6961 98.6001 84.6951C97.5141 83.4811 96.4031 82.3211 95.2691 81.2151C101.748 79.9231 107.946 78.1671 113.357 75.6251C135.526 65.2121 150.499 64.7851 175.611 64.2431C177.735 64.0611 179.31 62.1821 179.129 60.0461C178.947 57.9101 177.077 56.3261 174.953 56.5091C164.502 56.8621 154.208 57.8031 143.714 59.4741C131.11 61.6721 119.725 68.6311 110.409 73.0001C104.621 75.2261 98.5111 76.9421 92.1891 78.3901C90.9541 77.3221 89.6941 76.3081 88.4101 75.3471C93.6201 74.5051 98.8251 73.3341 104.057 71.5121C117.182 66.5981 129.028 57.9101 143.023 55.2601C151.949 53.5681 163.243 53.2411 175.611 52.9441C177.735 52.7621 179.31 50.8841 179.129 48.7471C178.947 46.6121 177.077 45.0281 174.953 45.2111C163.84 45.6981 149.469 47.6251 140.504 50.4311C128.981 54.0391 121.76 59.1231 109.406 65.8861C101.878 69.3781 93.6081 71.3751 85.0141 72.9631C83.0341 71.6611 81.0041 70.4651 78.9261 69.3701C89.8241 68.1141 100.821 66.2551 108.828 61.4811C125.793 52.2801 133.906 46.7831 147.106 44.0481C154.156 42.5871 164.169 41.3161 175.611 41.6461C177.735 41.4641 179.31 39.5851 179.129 37.4491C178.947 35.3131 177.077 33.7301 174.953 33.9121C163.145 34.3121 149.492 36.2281 139.789 39.8461C128.441 44.0761 119.811 50.4071 108.319 57.5891C98.3481 63.0661 86.7151 65.2231 74.8461 67.3691C71.7481 65.9591 68.5541 64.7401 65.2731 63.6801C79.9661 61.7041 96.1091 60.2751 108.32 53.0111C121.252 45.3191 129.252 38.7101 139.076 35.0371C148.304 31.5871 160.912 30.7921 175.611 30.3481C177.735 30.1661 179.31 28.2871 179.129 26.1511C178.947 24.0151 177.077 22.4321 174.953 22.6141C164.603 22.9651 154.923 24.2841 143.825 26.6781C129.35 29.9171 116.921 43.2301 107.277 49.6571C94.4451 58.2061 77.7811 59.0151 62.1351 62.7201C48.0491 58.6481 32.4791 57.2061 16.1731 55.8531ZM175.61 7.75113C166.526 8.11713 158.89 8.44913 145.71 11.3731C127.047 15.5121 117.993 27.0601 108.13 34.6021C93.8071 45.5561 76.9571 47.3071 59.8891 50.3581V49.2121C75.1931 44.3221 92.5751 43.3241 105.058 32.6961C114.665 24.5151 128.177 8.74613 143.899 4.81413C155.399 1.93713 164.671 0.366137 174.953 0.0171373C177.077 -0.164863 178.947 1.41913 179.129 3.55513C179.31 5.69113 177.735 7.56913 175.61 7.75113Z" fill="#0064B0"/>
<path fill-rule="evenodd" clip-rule="evenodd" d="M241.92 18.9931C239.796 18.8111 238.221 16.9371 238.401 14.8071C238.583 12.6781 240.453 11.0991 242.577 11.2801C252.894 11.6281 262.371 13.0701 273.67 15.6981C297.1 21.2321 300.661 39.9981 329.478 49.3931C338.861 52.4521 348.208 53.5881 357.642 56.0821V57.2411C347.864 55.6091 338.176 54.4541 328.888 52.2771C322.461 50.7701 316.136 49.1071 310.478 45.0871C300.656 38.3171 289.651 27.0611 274.582 22.2341C261.033 19.5091 252.317 19.3521 241.92 18.9931ZM241.92 97.8571C265.678 98.2451 289.969 100.926 312.931 103.166C340.206 85.0751 366.124 83.3921 401.26 82.3131C401.379 82.3161 401.496 82.3131 401.614 82.3061L401.616 82.3081C405.554 84.0581 409.699 86.1231 413.637 87.8721C414.701 88.3461 415.939 88.0981 416.696 87.2551C417.454 86.4151 417.5 85.2421 416.811 84.3531C416.415 83.8451 415.925 83.3871 415.342 82.9951C411.654 80.5001 407.72 78.2551 404.03 75.7611C403.349 75.1681 402.457 74.7911 401.47 74.7671C365.867 76.5761 336.888 78.9561 312.931 99.8671C299.942 97.6941 287.18 93.4321 273.928 92.0071C264.035 91.0631 253.13 90.5011 242.577 90.1451C240.453 89.9621 238.583 91.5411 238.401 93.6721C238.221 95.8021 239.796 97.6751 241.92 97.8571ZM241.92 109.124C265.181 109.473 289.765 110.638 312.931 111.714C341.248 102.698 368.887 101.87 401.132 101.358C401.296 101.367 401.457 101.365 401.616 101.356L401.62 101.357C405.59 102.31 410.362 103.596 414.331 104.55C415.389 104.803 416.452 104.436 417.072 103.6C417.692 102.764 417.684 101.71 417.05 100.883C416.593 100.287 415.976 99.7901 415.225 99.4251C411.592 97.6691 407.081 96.0961 403.376 94.3551C403.225 94.2701 403.067 94.1961 402.903 94.1301L402.898 94.1281L402.894 94.1251C402.486 93.9651 402.044 93.8651 401.579 93.8411C365.936 94.5131 340.044 95.7121 312.931 107.466C299.923 105.867 286.93 103.945 273.964 102.909C264.276 102.204 253.162 101.768 242.577 101.412C240.453 101.23 238.583 102.809 238.401 104.937C238.221 107.069 239.796 108.942 241.92 109.124ZM312.881 120.23H413.737C414.552 119.912 415.153 119.212 415.273 118.35C415.437 117.159 414.63 116.065 413.381 115.756L402.598 113.083C402.31 112.997 402.005 112.939 401.689 112.914C366.011 112.453 343.204 113.594 312.93 116.191C291.091 114.754 268.26 113.544 242.576 112.678C240.452 112.496 238.582 114.074 238.4 116.203C238.243 118.051 239.408 119.706 241.108 120.23H312.881ZM401.359 55.6921C402.396 55.6891 403.34 56.0891 404.049 56.7291L415.858 66.7421C416.008 66.8701 416.151 66.9991 416.287 67.1351C417.17 68.0151 417.206 69.3481 416.375 70.2701C415.545 71.1921 414.123 71.3921 413.034 70.7381L401.616 63.3011L401.533 63.2631C401.484 63.2661 401.437 63.2681 401.387 63.2681C363.364 64.9161 339.163 67.9211 312.931 95.0831V95.0851C302.344 93.2131 290.412 89.9731 278.421 88.4231C266.859 86.9291 254.185 86.8081 241.92 86.5911C239.796 86.4091 238.221 84.5351 238.401 82.4051C238.583 80.2761 240.453 78.6961 242.577 78.8781C253.097 79.2331 263.798 79.9221 273.89 81.1051C285.247 82.6071 292.419 86.0141 305.215 89.4141C307.684 90.0691 310.455 90.7041 313.456 91.3231C314.38 90.0201 315.324 88.7661 316.292 87.5631C312.79 86.7411 309.167 85.7251 305.365 84.4461C285.566 77.7841 264.689 75.7691 241.919 75.3251C239.795 75.1431 238.22 73.2691 238.4 71.1401C238.582 69.0101 240.452 67.4301 242.576 67.6111C253.062 67.9661 263.56 68.7791 273.852 70.2041C285.834 72.0501 297.301 77.7751 306.706 80.9631C310.696 82.3171 314.772 83.4571 318.93 84.4521C320.016 83.2421 321.127 82.0861 322.261 80.9821C315.782 79.6941 309.584 77.9431 304.173 75.4081C282.004 65.0241 267.03 64.5991 241.919 64.0581C239.795 63.8771 238.22 62.0031 238.4 59.8731C238.582 57.7431 240.452 56.1641 242.576 56.3461C253.027 56.6981 263.321 57.6371 273.816 59.3031C286.42 61.4951 297.804 68.4331 307.12 72.7901C312.908 75.0101 319.019 76.7221 325.341 78.1651C326.576 77.1001 327.836 76.0891 329.119 75.1311C323.909 74.2911 318.704 73.1231 313.473 71.3071C300.348 66.4061 288.502 57.7431 274.507 55.1001C265.58 53.4131 254.286 53.0871 241.919 52.7921C239.795 52.6101 238.22 50.7371 238.4 48.6071C238.582 46.4771 240.452 44.8981 242.576 45.0801C253.69 45.5661 268.061 47.4871 277.025 50.2851C288.548 53.8831 295.77 58.9531 308.125 65.6971C315.651 69.1791 323.922 71.1701 332.516 72.7541C334.495 71.4551 336.526 70.2631 338.605 69.1711C327.706 67.9181 316.709 66.0651 308.702 61.3041C291.737 52.1291 283.624 46.6471 270.425 43.9201C263.374 42.4631 253.362 41.1961 241.92 41.5251C239.796 41.3441 238.221 39.4701 238.401 37.3401C238.583 35.2111 240.453 33.6311 242.577 33.8131C254.386 34.2121 268.038 36.1231 277.741 39.7301C289.09 43.9481 297.72 50.2621 309.212 57.4231C319.183 62.8841 330.816 65.0361 342.685 67.1761C345.783 65.7701 348.978 64.5541 352.258 63.4971C337.566 61.5271 321.422 60.1011 309.211 52.8581C296.278 45.1881 288.278 38.5971 278.454 34.9351C269.227 31.4951 256.618 30.7021 241.92 30.2591C239.796 30.0771 238.221 28.2041 238.401 26.0741C238.583 23.9441 240.453 22.3651 242.577 22.5471C252.928 22.8971 262.608 24.2131 273.705 26.6001C288.181 29.8291 300.609 43.1051 310.254 49.5141C323.086 58.0381 339.749 58.8451 355.397 62.5401C369.483 58.4791 385.053 57.0411 401.359 55.6921ZM241.921 7.72614C251.005 8.09114 258.641 8.42213 271.82 11.3371C290.484 15.4651 299.537 26.9801 309.4 34.5011C323.723 45.4241 340.573 47.1701 357.641 50.2121V49.0701C342.337 44.1941 324.954 43.1991 312.472 32.6001C302.865 24.4421 289.354 8.71913 273.631 4.79713C262.131 1.92913 252.859 0.36213 242.576 0.0141295C240.452 -0.16687 238.582 1.41213 238.4 3.54213C238.221 5.67113 239.796 7.54514 241.921 7.72614Z" fill="#0064B0"/>
<path d="M347.205 35.792V28.6826H349.53C350.301 28.6826 350.881 28.8422 351.268 29.1612C351.659 29.4802 351.854 29.9522 351.854 30.5772C351.854 30.9092 351.759 31.2038 351.571 31.461C351.382 31.7149 351.125 31.9118 350.799 32.0518C351.183 32.1592 351.486 32.3643 351.707 32.667C351.932 32.9665 352.044 33.3246 352.044 33.7412C352.044 34.3793 351.838 34.8806 351.424 35.2451C351.011 35.6097 350.426 35.792 349.671 35.792H347.205ZM348.143 32.4668V35.0254H349.691C350.127 35.0254 350.47 34.9131 350.721 34.6885C350.975 34.4606 351.102 34.1481 351.102 33.751C351.102 32.8949 350.636 32.4668 349.705 32.4668H348.143ZM348.143 31.7149H349.559C349.969 31.7149 350.296 31.6123 350.54 31.4073C350.788 31.2022 350.911 30.9239 350.911 30.5723C350.911 30.1817 350.798 29.8985 350.57 29.7227C350.342 29.5437 349.995 29.4541 349.53 29.4541H348.143V31.7149Z" fill="#18171C"/>
<path d="M355.516 35.2696C355.164 35.683 354.648 35.8897 353.968 35.8897C353.405 35.8897 352.975 35.7269 352.679 35.4014C352.386 35.0726 352.238 34.5876 352.235 33.9463V30.5088H353.138V33.9219C353.138 34.7227 353.464 35.1231 354.115 35.1231C354.805 35.1231 355.264 34.8659 355.492 34.3516V30.5088H356.395V35.792H355.535L355.516 35.2696Z" fill="#18171C"/>
<path d="M357.294 33.1065C357.294 32.2959 357.486 31.6449 357.871 31.1534C358.255 30.6586 358.758 30.4112 359.379 30.4112C359.998 30.4112 360.488 30.6228 360.849 31.0459V28.292H361.752V35.792H360.922L360.878 35.2256C360.517 35.6683 360.014 35.8897 359.37 35.8897C358.758 35.8897 358.258 35.639 357.871 35.1377C357.486 34.6364 357.294 33.9821 357.294 33.1748V33.1065ZM358.198 33.209C358.198 33.808 358.321 34.2767 358.569 34.6153C358.816 34.9538 359.158 35.1231 359.594 35.1231C360.167 35.1231 360.585 34.8659 360.849 34.3516V31.9248C360.579 31.4268 360.164 31.1778 359.604 31.1778C359.161 31.1778 358.816 31.3487 358.569 31.6905C358.321 32.0323 358.198 32.5384 358.198 33.209Z" fill="#18171C"/>
<path d="M362.525 33.1016C362.525 32.584 362.626 32.1185 362.828 31.7051C363.033 31.2917 363.316 30.9727 363.677 30.7481C364.042 30.5235 364.457 30.4112 364.922 30.4112C365.642 30.4112 366.223 30.6602 366.665 31.1582C367.111 31.6563 367.334 32.3187 367.334 33.1455V33.209C367.334 33.7233 367.235 34.1856 367.037 34.5957C366.841 35.0026 366.56 35.32 366.192 35.5479C365.827 35.7757 365.407 35.8897 364.932 35.8897C364.216 35.8897 363.635 35.6407 363.189 35.1426C362.746 34.6446 362.525 33.9854 362.525 33.1651V33.1016ZM363.433 33.209C363.433 33.795 363.568 34.2653 363.838 34.6201C364.112 34.975 364.476 35.1524 364.932 35.1524C365.391 35.1524 365.756 34.9733 366.026 34.6153C366.296 34.2539 366.431 33.7494 366.431 33.1016C366.431 32.5222 366.293 32.0534 366.016 31.6953C365.743 31.334 365.378 31.1534 364.922 31.1534C364.476 31.1534 364.117 31.3308 363.843 31.6856C363.57 32.0404 363.433 32.5482 363.433 33.209Z" fill="#18171C"/>
<path d="M369.657 34.5664L370.965 30.5088H371.888L369.994 35.792H369.305L367.391 30.5088H368.314L369.657 34.5664Z" fill="#18171C"/>
<path d="M375.556 35.792C375.504 35.6879 375.462 35.5023 375.429 35.2354C375.009 35.6716 374.508 35.8897 373.925 35.8897C373.404 35.8897 372.976 35.7432 372.641 35.4502C372.309 35.154 372.143 34.7797 372.143 34.3272C372.143 33.777 372.351 33.3506 372.768 33.0479C373.188 32.7419 373.777 32.5889 374.536 32.5889H375.414V32.1739C375.414 31.8581 375.32 31.6075 375.131 31.4219C374.942 31.2331 374.664 31.1387 374.296 31.1387C373.974 31.1387 373.704 31.2201 373.486 31.3828C373.268 31.5456 373.159 31.7425 373.159 31.9737H372.25C372.25 31.71 372.343 31.4561 372.529 31.2119C372.718 30.9645 372.971 30.7692 373.29 30.626C373.613 30.4828 373.966 30.4112 374.35 30.4112C374.959 30.4112 375.436 30.5642 375.781 30.8701C376.126 31.1729 376.305 31.5912 376.318 32.125V34.5567C376.318 35.0417 376.38 35.4274 376.503 35.7139V35.792H375.556ZM374.057 35.1035C374.34 35.1035 374.609 35.0303 374.863 34.8838C375.117 34.7373 375.301 34.5469 375.414 34.3125V33.2285H374.706C373.6 33.2285 373.046 33.5524 373.046 34.2002C373.046 34.4834 373.141 34.7048 373.329 34.8643C373.518 35.0238 373.761 35.1035 374.057 35.1035Z" fill="#18171C"/>
<path d="M379.476 35.792V28.6826H381.8C382.572 28.6826 383.151 28.8422 383.538 29.1612C383.929 29.4802 384.124 29.9522 384.124 30.5772C384.124 30.9092 384.03 31.2038 383.841 31.461C383.652 31.7149 383.395 31.9118 383.07 32.0518C383.454 32.1592 383.757 32.3643 383.978 32.667C384.203 32.9665 384.315 33.3246 384.315 33.7412C384.315 34.3793 384.108 34.8806 383.695 35.2451C383.281 35.6097 382.697 35.792 381.942 35.792H379.476ZM380.413 32.4668V35.0254H381.961C382.398 35.0254 382.741 34.9131 382.992 34.6885C383.245 34.4606 383.372 34.1481 383.372 33.751C383.372 32.8949 382.907 32.4668 381.976 32.4668H380.413ZM380.413 31.7149H381.829C382.24 31.7149 382.567 31.6123 382.811 31.4073C383.058 31.2022 383.182 30.9239 383.182 30.5723C383.182 30.1817 383.068 29.8985 382.84 29.7227C382.612 29.5437 382.266 29.4541 381.8 29.4541H380.413V31.7149Z" fill="#18171C"/>
<path d="M39.6855 35.792V28.6826H42.0097C42.7812 28.6826 43.3606 28.8422 43.748 29.1612C44.1386 29.4802 44.3339 29.9522 44.3339 30.5772C44.3339 30.9092 44.2395 31.2038 44.0507 31.461C43.8619 31.7149 43.6047 31.9118 43.2792 32.0518C43.6633 32.1592 43.9661 32.3643 44.1874 32.667C44.412 32.9665 44.5243 33.3246 44.5243 33.7412C44.5243 34.3793 44.3176 34.8806 43.9042 35.2451C43.4908 35.6097 42.9065 35.792 42.1513 35.792H39.6855ZM40.623 32.4668V35.0254H42.1708C42.607 35.0254 42.9504 34.9131 43.2011 34.6885C43.455 34.4606 43.5819 34.1481 43.5819 33.751C43.5819 32.8949 43.1164 32.4668 42.1855 32.4668H40.623ZM40.623 31.7149H42.039C42.4491 31.7149 42.7763 31.6123 43.0204 31.4073C43.2678 31.2022 43.3915 30.9239 43.3915 30.5723C43.3915 30.1817 43.2776 29.8985 43.0497 29.7227C42.8218 29.5437 42.4752 29.4541 42.0097 29.4541H40.623V31.7149Z" fill="#18171C"/>
<path d="M47.9955 35.2696C47.6439 35.683 47.128 35.8897 46.4476 35.8897C45.8845 35.8897 45.4548 35.7269 45.1586 35.4014C44.8656 35.0726 44.7175 34.5876 44.7142 33.9463V30.5088H45.6176V33.9219C45.6176 34.7227 45.9431 35.1231 46.5941 35.1231C47.2842 35.1231 47.7432 34.8659 47.9711 34.3516V30.5088H48.8744V35.792H48.015L47.9955 35.2696Z" fill="#18171C"/>
<path d="M49.7743 33.1065C49.7743 32.2959 49.9664 31.6449 50.3505 31.1534C50.7346 30.6586 51.2375 30.4112 51.8593 30.4112C52.4778 30.4112 52.9677 30.6228 53.329 31.0459V28.292H54.2323V35.792H53.4023L53.3583 35.2256C52.997 35.6683 52.494 35.8897 51.8495 35.8897C51.2375 35.8897 50.7379 35.639 50.3505 35.1377C49.9664 34.6364 49.7743 33.9821 49.7743 33.1748V33.1065ZM50.6776 33.209C50.6776 33.808 50.8013 34.2767 51.0487 34.6153C51.2961 34.9538 51.6379 35.1231 52.0741 35.1231C52.647 35.1231 53.0653 34.8659 53.329 34.3516V31.9248C53.0588 31.4268 52.6438 31.1778 52.0839 31.1778C51.6412 31.1778 51.2961 31.3487 51.0487 31.6905C50.8013 32.0323 50.6776 32.5384 50.6776 33.209Z" fill="#18171C"/>
<path d="M55.0043 33.1016C55.0043 32.584 55.1052 32.1185 55.307 31.7051C55.5121 31.2917 55.7953 30.9727 56.1566 30.7481C56.5212 30.5235 56.9363 30.4112 57.4018 30.4112C58.1212 30.4112 58.7022 30.6602 59.1449 31.1582C59.5909 31.6563 59.8139 32.3187 59.8139 33.1455V33.209C59.8139 33.7233 59.7146 34.1856 59.516 34.5957C59.3207 35.0026 59.0391 35.32 58.6713 35.5479C58.3067 35.7757 57.8868 35.8897 57.4115 35.8897C56.6954 35.8897 56.1143 35.6407 55.6684 35.1426C55.2257 34.6446 55.0043 33.9854 55.0043 33.1651V33.1016ZM55.9125 33.209C55.9125 33.795 56.0476 34.2653 56.3178 34.6201C56.5912 34.975 56.9558 35.1524 57.4115 35.1524C57.8705 35.1524 58.2351 34.9733 58.5053 34.6153C58.7755 34.2539 58.9106 33.7494 58.9106 33.1016C58.9106 32.5222 58.7722 32.0534 58.4955 31.6953C58.2221 31.334 57.8575 31.1534 57.4018 31.1534C56.9558 31.1534 56.5961 31.3308 56.3227 31.6856C56.0492 32.0404 55.9125 32.5482 55.9125 33.209Z" fill="#18171C"/>
<path d="M62.1371 34.5664L63.4457 30.5088H64.3686L62.474 35.792H61.7856L59.8715 30.5088H60.7943L62.1371 34.5664Z" fill="#18171C"/>
<path d="M68.0355 35.792C67.9834 35.6879 67.9411 35.5023 67.9085 35.2354C67.4886 35.6716 66.9873 35.8897 66.4046 35.8897C65.8838 35.8897 65.4557 35.7432 65.1204 35.4502C64.7884 35.154 64.6224 34.7797 64.6224 34.3272C64.6224 33.777 64.8307 33.3506 65.2474 33.0479C65.6673 32.7419 66.2565 32.5889 67.015 32.5889H67.8939V32.1739C67.8939 31.8581 67.7995 31.6075 67.6107 31.4219C67.4219 31.2331 67.1435 31.1387 66.7757 31.1387C66.4534 31.1387 66.1832 31.2201 65.9651 31.3828C65.747 31.5456 65.638 31.7425 65.638 31.9737H64.7298C64.7298 31.71 64.8226 31.4561 65.0081 31.2119C65.1969 30.9645 65.4508 30.7692 65.7698 30.626C66.0921 30.4828 66.4453 30.4112 66.8294 30.4112C67.4381 30.4112 67.915 30.5642 68.2601 30.8701C68.6051 31.1729 68.7842 31.5912 68.7972 32.125V34.5567C68.7972 35.0417 68.859 35.4274 68.9827 35.7139V35.792H68.0355ZM66.5364 35.1035C66.8196 35.1035 67.0882 35.0303 67.3421 34.8838C67.596 34.7373 67.7799 34.5469 67.8939 34.3125V33.2285H67.1859C66.0791 33.2285 65.5257 33.5524 65.5257 34.2002C65.5257 34.4834 65.6201 34.7048 65.8089 34.8643C65.9977 35.0238 66.2402 35.1035 66.5364 35.1035Z" fill="#18171C"/>
<path d="M75.8812 33.9366H72.9027L72.2338 35.792H71.267L73.9818 28.6826H74.8021L77.5219 35.792H76.56L75.8812 33.9366ZM73.1859 33.1651H75.6029L74.392 29.8399L73.1859 33.1651Z" fill="#18171C"/>
</svg>
