<?xml version="1.0" encoding="utf-8"?>
<!-- Generator: Adobe Illustrator 16.0.0, SVG Export Plug-In . SVG Version: 6.00 Build 0)  -->
<!DOCTYPE svg PUBLIC "-//W3C//DTD SVG 1.1//EN" "http://www.w3.org/Graphics/SVG/1.1/DTD/svg11.dtd">
<svg version="1.1" id="Layer_1" xmlns="http://www.w3.org/2000/svg" xmlns:xlink="http://www.w3.org/1999/xlink" x="0px" y="0px"
	 width="413.855px" height="184.252px" viewBox="0 0 413.855 184.252" enable-background="new 0 0 413.855 184.252"
	 xml:space="preserve">
<path fill-rule="evenodd" clip-rule="evenodd" fill="#808285" d="M54.683,0h48.539c3.131,0,5.669,2.538,5.669,5.669v44.44
	c0,3.132-2.538,5.669-5.669,5.669H6.145c-3.131,0-5.669-2.537-5.669-5.669V5.669C0.475,2.538,3.013,0,6.145,0H54.683z"/>
<path fill-rule="evenodd" clip-rule="evenodd" fill="#005CAB" d="M359.646,0h48.539c3.133,0,5.67,2.538,5.67,5.669v44.44
	c0,3.132-2.537,5.669-5.67,5.669h-97.078c-3.131,0-5.668-2.537-5.668-5.669V5.669c0-3.131,2.537-5.669,5.668-5.669H359.646z"/>
<path fill="#005CAB" d="M276.164,143.028l-0.332-0.26l0.207-0.338l2.184-3.56c0.676-1.094,1.359-2.185,2.049-3.27
	c-1.666-1.339-2.564-2.936-7.609-5.229l-4.504-1.347l-0.141,3.855c-0.137,3.857,0.789,7.124,0.789,7.124
	c2.484,4.471,1.061,11.87,0.342,16.563c-0.9,5.929-3.461,12.288-3.426,18.398c0.301-0.309,0.582-0.638,0.84-0.98
	c0.383-0.524,0.744-1.065,1.084-1.621c0.693-1.103,1.324-2.241,1.971-3.372c0.637-1.14,1.25-2.288,1.871-3.437l1.818-3.463
	l3.572-6.964l3.453-6.88c-0.002-0.083-0.004-0.165-0.012-0.249l-0.09-0.359l-0.15-0.372c-0.059-0.123-0.133-0.244-0.199-0.369
	c-0.061-0.125-0.156-0.239-0.232-0.361c-0.078-0.122-0.158-0.242-0.256-0.357c-0.174-0.234-0.369-0.46-0.564-0.688
	c-0.402-0.446-0.832-0.873-1.279-1.285C277.1,143.803,276.635,143.396,276.164,143.028 M260.518,156.77
	c-9.395-22.946-8.188-28.85-7.66-29.979c0.414-0.883,1.098-2.049,1.641-2.892c-4.453,0.015-6.457,6.302-6.553,6.603
	c0.004,0.012,0.756,4.626-3.141,7.801l4.912,4.19l-4.045,6.503l19.346,25.842C265.195,168.526,262.396,162.588,260.518,156.77
	 M216.104,182.87l91.273-0.134c0,0,2.893-21.861-2.479-31.089s-24.762-12.706-24.762-12.706l-0.689,0.078l-0.115,0.213l-1.822,3.303
	c0.404,0.301,0.797,0.61,1.178,0.94c0.48,0.418,0.941,0.856,1.387,1.325c0.217,0.239,0.434,0.479,0.635,0.735
	c0.105,0.126,0.205,0.258,0.299,0.396c0.092,0.138,0.199,0.265,0.281,0.416c0.084,0.149,0.176,0.29,0.252,0.445l0.215,0.486
	c0.053,0.181,0.098,0.363,0.143,0.545c0.023,0.195,0.025,0.401,0.031,0.599l0.002,0.083l-0.057,0.115
	c-1.141,2.357-2.291,4.708-3.498,7.028c-1.195,2.327-2.432,4.633-3.709,6.919c-1.281,2.283-2.598,4.548-4.012,6.757
	c-0.355,0.55-0.709,1.104-1.086,1.642c-0.371,0.538-0.746,1.076-1.143,1.603c-0.387,0.528-0.803,1.038-1.223,1.546
	c-0.752,0.911-1.145,0.987-1.795,1.245l0.059,0.079h-0.254l-0.223,0.177c0.004-0.059,0.002-0.115,0.006-0.177h-0.291l-21.496-26.725
	l4.377-5.971l-4.918-4.426c0,0,1.146-1.054,2.398-2.64l-0.047-0.043c0,0-8.398-0.688-18.863,3.994
	C215.691,144.312,216.104,182.87,216.104,182.87 M307.018,100.146c0.598-4.961-0.58-9.001-1.012-13.664
	c-0.424-4.575-0.432-9.284-1.389-13.688c-2.014-9.249-7.354-17.353-15.018-23.077c-3.881-2.901-8.41-5.282-13.191-6.053
	c-2.227-0.359-4.828-0.497-6.898,0.245c-1.758,0.63-3.439,2.847-5.176,3.133c-1.504,0.246-4.482-0.952-6.381-0.744
	c-2.113,0.232-4.447,0.921-6.418,1.721c-4,1.624-7.332,5.079-9.463,8.718c-2.188,3.732-3.516,7.643-6.211,11.157
	c-3.121,4.066-2.451,6.746-2.693,11.553c-0.09,1.841-0.246,2.985-1.812,4.188c0.133-0.009,0.262-0.027,0.389-0.042
	c-0.453,0.684-0.869,1.372-1.24,2.053c-1.238,2.278-2.174,4.633-1.58,7.346c0.697,3.178,3.066,5.093,4.848,7.641
	c-0.957-1.768-1.244-3.797-1.111-5.798c0.445,1.185,0.986,2.314,1.443,3.471c1.02,2.524,2.033,5.063,2.508,7.701
	c0.217,1.301,0.311,2.682-0.143,3.839c-0.227,0.569-0.607,1.052-1.133,1.339c-0.52,0.298-1.143,0.431-1.777,0.472l-1.021,0.065
	l0.773,0.655c0.279,0.236,0.566,0.467,0.883,0.661c0.152,0.104,0.326,0.177,0.488,0.269c0.162,0.09,0.342,0.145,0.518,0.218
	c0.35,0.126,0.717,0.211,1.088,0.266c0.369,0.046,0.74,0.055,1.109,0.037c1.182-0.082,2.271-0.459,3.299-0.929
	c-0.037,0.127-0.084,0.25-0.145,0.367c-0.096,0.166-0.215,0.32-0.355,0.466c-0.146,0.143-0.311,0.278-0.486,0.403
	c-0.721,0.505-1.613,0.838-2.504,1.32l-0.768,0.414l0.721,0.479c1.287,0.858,2.734,1.242,4.195,1.399
	c0.734,0.065,1.482,0.058,2.229-0.059c0.178-0.027,0.354-0.064,0.533-0.106l-0.412,0.433l-0.57,0.416l-0.844,0.618l0.875,0.362
	l0.531,0.217l0.543,0.138l0.541,0.071l0.531,0.018c0.297-0.003,0.586-0.033,0.875-0.067c-0.26,0.262-0.582,0.505-0.936,0.79
	l-0.711,0.57l0.828,0.396c0.617,0.294,1.246,0.573,1.885,0.83c0.643,0.249,1.299,0.473,1.967,0.663
	c0.674,0.179,1.357,0.325,2.053,0.423c0.695,0.088,1.398,0.136,2.104,0.12c0.748-0.021,1.361-0.107,2.049-0.158
	c0.086-0.009,0.174-0.026,0.262-0.039c0.473-1.418,0.619-2.942,0.484-4.423c-1.309-0.892-2.568-2.148-3.666-3.914
	c0,0-8.83-3.013-10.799-17.571c-0.678,0.223-1.688-0.301-2.275-0.895c-0.9-0.911-1.275-2.288-1.627-3.43
	c-0.746-2.42-0.256-5.062-0.381-7.609c1.117-0.723,2.197-1.274,2.994-2.588c0.68,1.78,0.432,3.971,1.467,5.453
	c0.15-2.521,0.236-4.256,1.477-6.354c1.008-1.7,1.502-3.382,1.676-5.027c0.277-0.309,0.537-0.627,0.77-0.957
	c0.867-1.233,0.93-3.643,1.775-4.545c0.998-1.066,2.758-0.756,4.428-1.4c4.949-1.916,11.342-7.544,14.586-11.578
	c-1.852,4.906-1.668,8.485,2.631,14.234c-1.842-8.212,3.459-9.834,4.148-11.629l-0.34,0.849c-0.281,4.847-0.373,8.858,2.512,12.876
	c2.709,3.771,6.666,6.149,10.109,9.219c6.881,6.137,9.236,14.33,6.438,23.141c-0.105,0.159-0.207,0.32-0.328,0.477
	c-1.086,1.411-4.088,2.872-5.645,1.744c-3.734,4.829-9.207,9.079-17.182,10.477c-0.504,1.752-0.695,3.778-0.334,5.546
	c0.016,0.007,0.027,0.012,0.041,0.021c0.566,0.312,1.162,0.688,1.852,0.964c0.332,0.146,0.719,0.243,1.061,0.326l0.986,0.209
	c0.676,0.115,1.342,0.274,2.043,0.332c0.684,0.108,1.412,0.084,2.131,0.068l2.051-0.04l-1.83-1.038
	c-0.354-0.199-0.695-0.41-1.008-0.652c-0.137-0.106-0.26-0.226-0.391-0.338c0.123,0.093,0.229,0.194,0.354,0.287
	c0.354,0.243,0.727,0.461,1.125,0.639c0.264,0.116,0.395,0.141,0.6,0.218c0.193,0.06,0.434,0.105,0.65,0.154
	c0.422,0.071,0.826,0.117,1.229,0.149c0.395,0.033,0.779,0.068,1.154,0.11l0.549,0.088l0.52,0.129l2.289,0.574l-1.811-1.511
	c-0.164-0.138-0.324-0.295-0.453-0.492c-0.061-0.105-0.137-0.193-0.182-0.311c-0.051-0.114-0.113-0.216-0.15-0.339
	c-0.182-0.47-0.285-0.988-0.33-1.513c-0.047-0.526-0.035-1.062,0.035-1.585c0.01-0.095,0.039-0.186,0.055-0.281
	c0.039,0.074,0.076,0.149,0.115,0.226c0.133,0.236,0.305,0.457,0.459,0.685c0.166,0.22,0.365,0.414,0.549,0.621
	c0.201,0.191,0.426,0.357,0.637,0.535c0.23,0.155,0.475,0.29,0.709,0.433c0.248,0.117,0.506,0.218,0.758,0.326
	c0.264,0.081,0.529,0.146,0.791,0.218c0.291,0.064,0.516,0.089,0.773,0.136c0.242,0.051,0.533,0.056,0.803,0.079
	c0.273,0.033,0.549,0.007,0.824-0.009c0.277,0.003,0.551-0.087,0.826-0.142c0.275-0.059,0.529-0.198,0.791-0.298
	c0.24-0.141,0.479-0.286,0.703-0.444c0.207-0.176,0.424-0.342,0.617-0.526l0.553-0.568l0.637-0.656l-0.924,0.001
	c-0.59,0-1.189-0.061-1.756-0.2c-0.562-0.143-1.111-0.366-1.49-0.726c-0.367-0.362-0.506-0.856-0.387-1.393
	c0.064-0.265,0.152-0.532,0.295-0.79l0.092-0.195l0.117-0.155l0.275-0.377c0.203-0.214,0.408-0.377,0.621-0.568
	c0.248-0.168,0.486-0.349,0.742-0.509c0.447-0.27,0.916-0.518,1.391-0.763C299.102,118.067,306.184,107.107,307.018,100.146"/>
<path fill="#808285" d="M188.986,156.335c-4.075-3.864-13.951-5.249-13.951-5.249c-7.418-1.734-14.143-3.713-16.428-4.877
	l-2.394-2.683l-11.679,2.683l-11.678-2.683l-2.396,2.683c-2.285,1.164-9.011,3.143-16.427,4.877c0,0-9.875,1.385-13.951,5.249
	c0,0-5.015,3.108-5.553,26.06h45.048l3.267-30.096c-0.618-0.201-1.283-0.443-1.969-0.709c0.201-0.997,0.691-2.687,1.862-4.189
	l1.797-0.447l1.793,0.447c1.513,1.939,1.893,4.191,1.977,4.86c-0.367,0.133-0.733,0.26-1.094,0.367l2.499,29.767h45.037
	C194.896,166.085,188.986,156.335,188.986,156.335"/>
<path fill="#808285" d="M169.054,124.869l-0.011,0.068c-0.139,0.355-1.377,1.852-3.126,3.439c-2.738,2.544-6.833,5.797-10.894,8.388
	c-4.037,2.602-8.157,4.495-10.476,4.484c-0.024-0.001-0.063,0-0.07,0c-3.308,0.052-8.905-2.975-13.418-6.097
	c-2.273-1.551-4.315-3.11-5.785-4.279c-1.057-0.839-1.811-1.472-2.153-1.762c-1.64-4.044-2.552-8.794-3.029-13.398
	c1.611-2.736,0.489-10.844,0.489-18.908c0-8.608,3.878-9.838,9.931-13.526c6.052-3.688,9.552,0,15.037,0s8.985-3.688,15.038,0
	s9.931,4.918,9.931,13.526c0,7.158-0.878,14.34,0.051,17.777c-0.088,0.705-0.176,1.399-0.266,2.065
	C169.678,121.311,169.055,124.861,169.054,124.869 M174.245,69.753c-7.888-7.187-18.954-7.187-18.954-7.187
	c-7.755-6.054-29.337-1.912-38.435,7.187c-6.777,6.777-4.691,27.237-4.691,33.103c0,4.863,2.15,6.157,5.418,10.338
	c0.39,5.636,1.363,11.795,3.532,17.045l0.103,0.249l0.205,0.176c0.021,0.02,3.681,3.187,8.349,6.374
	c4.701,3.174,10.26,6.442,14.706,6.495h0.056c4.541-0.124,10.834-3.997,16.378-8.069c2.748-2.045,5.25-4.152,7.096-5.918
	c0.924-0.883,1.683-1.68,2.242-2.363c0.515-0.692,0.911-1.099,1.048-1.917l0.005,0.001c0.002-0.022,0.919-5.23,1.647-11.332
	c3.586-4.793,5.986-5.938,5.986-11.078C178.936,96.99,181.329,76.209,174.245,69.753"/>
<path fill="#808285" d="M147.733,116.15c-0.709,0.641-2.099,0.932-3.227,0.954c-1.127-0.022-2.517-0.313-3.227-0.954
	c-4.765,0.371-6.31,2.09-5.948,7.939h18.352C154.043,118.24,152.5,116.521,147.733,116.15"/>
<polygon fill-rule="evenodd" clip-rule="evenodd" fill="#808285" points="77.804,54.805 97.193,54.086 105.811,69.885 "/>
<polygon fill-rule="evenodd" clip-rule="evenodd" fill="#005CAB" points="336.988,54.086 358.576,53.565 317.145,76.242 "/>
<path fill="#FFFFFF" d="M31.621,24.132c0,1.41-1.149,2.557-2.558,2.557h-8.76c-1.41,0-2.559-1.146-2.559-2.557v-8.215
	c0-1.41,1.149-2.557,2.559-2.557h8.76c1.409,0,2.558,1.147,2.558,2.557V24.132z M29.528,31.754c-1.007,0-1.822-0.816-1.822-1.821
	c0-1.007,0.815-1.823,1.822-1.823c1.006,0,1.822,0.816,1.822,1.823C31.351,30.938,30.534,31.754,29.528,31.754 M29.528,36.427
	c-1.007,0-1.822-0.815-1.822-1.822c0-1.006,0.815-1.821,1.822-1.821c1.006,0,1.822,0.815,1.822,1.821
	C31.351,35.611,30.534,36.427,29.528,36.427 M29.528,41.099c-1.007,0-1.822-0.814-1.822-1.823c0-1.005,0.815-1.82,1.822-1.82
	c1.006,0,1.822,0.815,1.822,1.82C31.351,40.284,30.534,41.099,29.528,41.099 M24.684,31.754c-1.008,0-1.823-0.816-1.823-1.821
	c0-1.007,0.815-1.823,1.823-1.823c1.006,0,1.821,0.816,1.821,1.823C26.504,30.938,25.689,31.754,24.684,31.754 M24.684,36.427
	c-1.008,0-1.823-0.815-1.823-1.822c0-1.006,0.815-1.821,1.823-1.821c1.006,0,1.821,0.815,1.821,1.821
	C26.504,35.611,25.689,36.427,24.684,36.427 M24.684,41.099c-1.008,0-1.823-0.814-1.823-1.823c0-1.005,0.815-1.82,1.823-1.82
	c1.006,0,1.821,0.815,1.821,1.82C26.504,40.284,25.689,41.099,24.684,41.099 M19.837,31.754c-1.008,0-1.823-0.816-1.823-1.821
	c0-1.007,0.815-1.823,1.823-1.823c1.005,0,1.822,0.816,1.822,1.823C21.659,30.938,20.842,31.754,19.837,31.754 M19.837,36.427
	c-1.008,0-1.823-0.815-1.823-1.822c0-1.006,0.815-1.821,1.823-1.821c1.005,0,1.822,0.815,1.822,1.821
	C21.659,35.611,20.842,36.427,19.837,36.427 M19.837,41.099c-1.008,0-1.823-0.814-1.823-1.823c0-1.005,0.815-1.82,1.823-1.82
	c1.005,0,1.822,0.815,1.822,1.82C21.659,40.284,20.842,41.099,19.837,41.099 M30.115,10.353h-9.194V7.561
	c0-0.774-0.628-1.402-1.404-1.402c-0.774,0-1.401,0.628-1.401,1.402v2.95c-1.802,0.497-3.128,2.143-3.128,4.104v24.25
	c0,2.354,1.907,4.261,4.26,4.261h10.867c2.355,0,4.262-1.907,4.262-4.261v-24.25C34.377,12.261,32.47,10.353,30.115,10.353"/>
<path fill="#FFFFFF" d="M53.147,18.457l-1.248,13.531c-0.059,0.7-0.293,1.244-0.701,1.631c-0.409,0.388-0.92,0.58-1.533,0.58
	c-0.613,0-1.124-0.192-1.533-0.58c-0.408-0.387-0.642-0.931-0.7-1.631l-1.27-13.531c-0.058-0.686-0.087-1.138-0.087-1.356
	c0-1.139,0.343-2.054,1.029-2.748c0.686-0.693,1.539-1.04,2.561-1.04c1.008,0,1.858,0.351,2.551,1.051
	c0.693,0.7,1.04,1.584,1.04,2.65C53.256,17.231,53.22,17.714,53.147,18.457 M52.424,40.746c0,0.643-0.241,1.187-0.723,1.631
	c-0.481,0.445-1.146,0.668-1.992,0.668c-0.847,0-1.511-0.223-1.993-0.668c-0.481-0.444-0.722-0.988-0.722-1.631
	c0-0.628,0.237-1.164,0.712-1.608c0.474-0.446,1.142-0.668,2.003-0.668s1.529,0.218,2.004,0.655
	C52.188,39.563,52.424,40.104,52.424,40.746"/>
<path fill="#FFFFFF" d="M90.301,29.448c0,3.752-1.325,6.951-3.974,9.601s-5.849,3.974-9.6,3.974c-3.752,0-6.956-1.324-9.612-3.974
	c-2.657-2.649-3.985-5.849-3.985-9.601c0-3.751,1.328-6.955,3.985-9.611c2.656-2.655,5.86-3.983,9.612-3.983
	c3.751,0,6.951,1.328,9.6,3.983C88.976,22.493,90.301,25.697,90.301,29.448 M88.331,29.448c0-3.211-1.136-5.947-3.405-8.21
	c-2.27-2.262-5.003-3.393-8.199-3.393c-3.212,0-5.952,1.131-8.222,3.393c-2.27,2.263-3.404,4.999-3.404,8.21
	c0,3.197,1.134,5.93,3.404,8.199s5.01,3.405,8.222,3.405c3.196,0,5.929-1.136,8.199-3.405
	C87.195,35.378,88.331,32.646,88.331,29.448 M73.224,26.624c0,0.481-0.168,0.892-0.504,1.227c-0.336,0.336-0.737,0.503-1.204,0.503
	c-0.482,0-0.891-0.167-1.226-0.503c-0.336-0.335-0.504-0.745-0.504-1.227c0-0.467,0.168-0.868,0.504-1.204
	c0.335-0.336,0.744-0.504,1.226-0.504c0.467,0,0.868,0.168,1.204,0.504S73.224,26.157,73.224,26.624 M70.443,33.827l1.335-0.788
	c1.124,2.044,2.774,3.065,4.949,3.065c2.16,0,3.802-1.021,4.926-3.065l1.335,0.788c-0.715,1.358-1.598,2.392-2.649,3.098
	c-1.051,0.708-2.255,1.062-3.612,1.062c-1.402,0-2.621-0.357-3.657-1.073C72.034,36.199,71.158,35.17,70.443,33.827 M83.645,26.624
	c0,0.481-0.168,0.892-0.503,1.227c-0.336,0.336-0.745,0.503-1.226,0.503c-0.468,0-0.869-0.167-1.205-0.503
	c-0.336-0.335-0.504-0.745-0.504-1.227c0-0.467,0.168-0.868,0.504-1.204c0.336-0.336,0.737-0.504,1.205-0.504
	c0.481,0,0.89,0.168,1.226,0.504C83.477,25.756,83.645,26.157,83.645,26.624"/>
<path fill="#FFFFFF" d="M383.924,29.525c-0.098,0.951-0.373,1.646-0.824,2.08c-0.451,0.436-1.021,0.652-1.711,0.652
	c-0.738,0-1.342-0.258-1.811-0.775c-0.467-0.518-0.699-1.383-0.699-2.598v-2.831c3.986-1.526,6.391-2.699,7.211-3.52
	c0.82-0.821,1.23-1.657,1.23-2.512c0-1.197-0.479-2.23-1.439-3.102c-0.961-0.869-2.318-1.305-4.074-1.305
	c-1.855,0-3.643,0.428-5.367,1.28v0.738c0,1.199-0.232,2.056-0.701,2.573c-0.467,0.517-1.078,0.774-1.834,0.774
	c-0.736,0-1.342-0.254-1.809-0.763c-0.467-0.508-0.701-1.37-0.701-2.585v-4.061c2.576-1.215,4.578-2.019,6.006-2.413
	s2.904-0.591,4.432-0.591c3.184,0,5.734,0.92,7.656,2.758c1.92,1.838,2.879,4.143,2.879,6.917c0,1.969-0.576,3.643-1.734,5.021
	C389.475,26.645,387.238,28.064,383.924,29.525 M384.982,39.273c0,0.771-0.273,1.399-0.824,1.883
	c-0.551,0.484-1.465,0.727-2.746,0.727c-1.279,0-2.195-0.242-2.742-0.727c-0.553-0.483-0.826-1.111-0.826-1.883
	c0-0.771,0.27-1.398,0.812-1.883c0.541-0.484,1.461-0.726,2.756-0.726c1.281,0,2.195,0.241,2.746,0.726
	S384.982,38.503,384.982,39.273"/>
<path fill="#FFFFFF" d="M403.514,14.263l-1.404,15.213c-0.066,0.788-0.328,1.4-0.787,1.834c-0.461,0.436-1.035,0.653-1.725,0.653
	c-0.688,0-1.264-0.218-1.723-0.653c-0.459-0.434-0.723-1.046-0.787-1.834l-1.428-15.213c-0.064-0.771-0.1-1.28-0.1-1.526
	c0-1.28,0.387-2.31,1.158-3.09c0.771-0.779,1.73-1.169,2.879-1.169c1.133,0,2.09,0.394,2.869,1.182s1.17,1.781,1.17,2.978
	C403.637,12.885,403.596,13.426,403.514,14.263 M402.701,39.322c0,0.724-0.271,1.334-0.812,1.834
	c-0.541,0.501-1.289,0.751-2.24,0.751c-0.953,0-1.699-0.25-2.24-0.751c-0.543-0.5-0.812-1.11-0.812-1.834
	c0-0.705,0.266-1.309,0.799-1.809c0.535-0.501,1.285-0.751,2.254-0.751c0.967,0,1.719,0.247,2.252,0.739
	C402.434,37.993,402.701,38.601,402.701,39.322"/>
<path fill="#FFFFFF" d="M326.613,15.719v15.317c0,1.126,0.025,2.409,0.104,3.274h-2.068l-0.104-2.2h-0.053
	c-0.707,1.414-2.252,2.488-4.32,2.488c-3.064,0-5.42-2.594-5.42-6.442c-0.027-4.215,2.592-6.807,5.682-6.807
	c1.938,0,3.246,0.916,3.822,1.937h0.053v-7.567H326.613z M324.309,26.795c0-0.288-0.025-0.681-0.104-0.969
	c-0.34-1.467-1.598-2.671-3.326-2.671c-2.383,0-3.797,2.095-3.797,4.896c0,2.565,1.256,4.687,3.744,4.687
	c1.545,0,2.959-1.021,3.379-2.749c0.078-0.314,0.104-0.629,0.104-0.995V26.795z"/>
<path fill="#FFFFFF" d="M330.436,25.066c0-1.309-0.023-2.383-0.104-3.43h2.041l0.131,2.095h0.053
	c0.629-1.205,2.096-2.383,4.191-2.383c1.754,0,4.477,1.047,4.477,5.395v7.566h-2.305v-7.306c0-2.041-0.758-3.744-2.932-3.744
	c-1.52,0-2.697,1.074-3.09,2.356c-0.105,0.288-0.156,0.681-0.156,1.074v7.619h-2.307V25.066z"/>
<path fill="#FFFFFF" d="M346.252,28.392c0.053,3.117,2.041,4.399,4.346,4.399c1.65,0,2.645-0.287,3.51-0.653l0.393,1.648
	c-0.811,0.366-2.199,0.785-4.217,0.785c-3.9,0-6.23-2.565-6.23-6.389s2.252-6.834,5.943-6.834c4.137,0,5.238,3.64,5.238,5.97
	c0,0.472-0.055,0.838-0.08,1.073H346.252z M353.008,26.742c0.025-1.466-0.604-3.744-3.193-3.744c-2.332,0-3.354,2.147-3.535,3.744
	H353.008z"/>
<path fill="#FFFFFF" d="M357.773,31.953c0.682,0.445,1.885,0.916,3.037,0.916c1.676,0,2.461-0.838,2.461-1.885
	c0-1.099-0.654-1.702-2.355-2.331c-2.279-0.811-3.354-2.068-3.354-3.587c0-2.042,1.65-3.717,4.373-3.717
	c1.283,0,2.408,0.366,3.115,0.785l-0.574,1.675c-0.498-0.314-1.414-0.733-2.594-0.733c-1.361,0-2.121,0.786-2.121,1.729
	c0,1.047,0.76,1.518,2.41,2.146c2.199,0.838,3.326,1.938,3.326,3.822c0,2.226-1.729,3.797-4.74,3.797
	c-1.387,0-2.672-0.34-3.561-0.864L357.773,31.953z"/>
</svg>
