<svg width="1500" height="381" viewBox="0 0 1500 381" fill="none" xmlns="http://www.w3.org/2000/svg">
<path d="M648.808 363.812C647.497 363.812 646.245 363.793 645.005 363.75C503.978 358.057 107.914 301.12 12.0885 278.608C8.38568 277.737 4.34903 276.99 0.000976562 276.364V273.826C4.66519 274.481 9.00373 275.273 13.0009 276.213C108.256 298.63 504.734 355.617 645.175 361.265C646.339 361.304 647.551 361.324 648.809 361.324H648.95C657.618 361.324 668.013 360.198 679.827 358.124C673.07 359.032 666.637 359.513 660.551 359.523C659.05 359.523 657.559 359.503 656.077 359.442C486.865 352.605 133.308 284.255 18.5266 257.283C12.7643 255.929 6.57983 254.824 0.00234602 253.964V251.433C6.88307 252.321 13.3708 253.466 19.4363 254.89C133.942 281.816 487.7 350.172 656.242 356.95C657.667 357.001 659.088 357.025 660.552 357.025H660.781C669.291 357.025 678.543 356.06 688.462 354.265C683.011 354.891 677.621 355.214 672.3 355.221C670.573 355.221 668.859 355.188 667.144 355.127C469.737 347.159 158.721 267.389 24.9763 235.952C17.0396 234.086 8.70523 232.634 0.00369472 231.567V229.043C9.00711 230.13 17.6393 231.623 25.8697 233.558C159.629 265.016 470.661 344.723 667.302 352.641C668.968 352.703 670.63 352.729 672.301 352.729C672.356 352.733 672.411 352.733 672.466 352.733C681.173 352.733 690.097 351.825 699.241 350.123C694.226 350.651 689.168 350.926 684.051 350.93C682.11 350.93 680.178 350.889 678.222 350.818C452.623 341.713 184.117 250.518 31.3994 214.621C21.2041 212.227 10.7334 210.429 0.00303075 209.182V206.651C11.0374 207.921 21.8092 209.765 32.3071 212.237C185.316 248.216 453.639 339.286 678.381 348.327C680.265 348.398 682.166 348.431 684.051 348.431H684.214C693.298 348.431 702.228 347.541 711.055 345.861C706.09 346.362 701.005 346.625 695.789 346.631C693.652 346.631 691.49 346.589 689.289 346.503C435.495 336.265 209.529 233.633 37.8436 193.298C25.2883 190.346 12.682 188.204 0.00369472 186.786V184.264C12.9819 185.695 25.8908 187.879 38.7411 190.904C211.003 231.434 436.604 333.837 689.442 344.017C691.583 344.095 693.691 344.128 695.789 344.128C695.849 344.132 695.909 344.132 695.97 344.132C705.446 344.132 714.475 343.247 723.165 341.577C718.14 342.076 712.935 342.33 707.539 342.337C705.18 342.337 702.787 342.294 700.362 342.202C418.366 330.805 234.924 216.745 44.2831 171.965C29.2964 168.435 14.5579 165.953 0.00506418 164.391V161.88C14.8591 163.458 29.8995 165.982 45.1908 169.582C236.69 214.643 419.57 328.399 700.526 339.702C702.896 339.796 705.229 339.835 707.539 339.835H707.714C717.611 339.835 726.842 338.956 735.521 337.278C730.38 337.779 725.023 338.035 719.418 338.035H719.282C716.715 338.035 714.104 337.996 711.427 337.877C401.237 325.359 260.332 199.849 50.7158 150.631C33.2291 146.519 16.3658 143.693 0.00437945 142.003V139.486C16.6643 141.189 33.8287 144.056 51.6241 148.248C262.376 197.86 402.53 322.952 711.585 335.388C714.206 335.493 716.769 335.541 719.28 335.541C732.072 335.535 743.521 334.193 753.898 331.666C762.775 327.553 771.634 322.781 780.531 317.458C791.434 310.356 802.035 302.065 812.611 292.864C820.18 285.229 827.527 276.869 834.853 267.957C847.48 249.214 859.268 227.691 872.463 204.935C914.057 133.235 969.976 49.1565 1112.17 1.04264L1113.31 0.646469L1114.05 1.44859C1219.11 115.203 1364.86 172.876 1500 201.349V203.939C1364.44 175.489 1218.06 117.775 1112.26 3.71811C944.572 60.8938 898.521 168.307 852.105 246.116L871.157 221.047C920.753 155.88 983.189 79.5004 1112.44 35.7502L1113.6 35.3638L1114.34 36.1659C1212.26 142.227 1360.93 194.656 1500 219.813V222.39C1360.6 197.269 1211.35 144.826 1112.53 38.4452C985.006 81.9357 923.298 157.393 873.866 222.327L837.449 269.38L836.619 270.605L869.866 237.16C927.465 178.516 996.4 109.844 1112.73 70.4681L1113.88 70.0822L1114.63 70.8846C1204.89 168.68 1356.78 215.811 1500 237.783V240.333C1356.55 218.412 1204.14 171.293 1112.81 73.1541C998.023 112.312 929.758 180.256 872.358 238.694L827.53 283.196L823.455 288.34L868.615 253.278C934.192 201.173 1009.62 140.188 1113.01 105.187L1114.16 104.792L1114.91 105.603C1196.97 194.562 1352.42 236.36 1500 255.272V257.812C1352.3 238.969 1196.45 197.224 1113.09 107.872C1011.02 142.676 936.19 203.111 870.855 255.05L815.306 297.69L814.317 298.745L808.091 304.92L867.366 269.414C940.928 223.827 1022.85 170.517 1113.29 139.907L1114.44 139.508L1115.19 140.307C1188.53 219.875 1347.87 256.332 1500 272.333V274.858C1347.91 258.938 1188.31 222.583 1113.39 142.581C1023.97 173.057 942.6 225.953 869.316 271.378C844.431 286.781 820.495 301.339 797.473 313.867C792.466 317.642 787.167 321.038 781.519 324.006C882.403 281.906 1008.34 210.297 1113.57 174.62L1114.73 174.223L1115.47 175.026C1179.55 244.639 1343.14 275.759 1500 289.007V291.53C1343.35 278.393 1179.71 247.436 1113.66 177.299C986.874 220.399 830.562 315.701 722.824 348.32C835.112 318.212 1012.49 243.678 1113.86 209.329L1115.01 208.932L1115.75 209.744C1170.06 268.873 1338.23 294.687 1500 305.336V307.834C1338.68 297.324 1170.71 271.751 1113.95 212.016C984.808 255.807 735.445 363.701 648.808 363.812Z" fill="#8DA0D2"/>
<path d="M637.053 368.115C635.972 368.115 634.934 368.095 633.94 368.056C521.097 363.491 82.5027 317.981 5.65612 299.942C3.91554 299.53 2.0281 299.153 0.00195312 298.813V296.261C2.35174 296.643 4.54175 297.071 6.56517 297.546C82.57 315.44 521.756 361.054 634.105 365.565C635.027 365.607 636.017 365.616 637.054 365.616H637.157C708.185 365.616 1011.4 278.865 1114.13 244.045L1115.3 243.649L1116.03 244.461C1148.53 279.866 1251.96 300.711 1371.05 312.201C1412.88 316.264 1456.65 319.218 1500 321.336V323.838C1456.54 321.716 1412.64 318.756 1370.67 314.68C1252.18 303.094 1149.14 282.961 1114.24 246.72C1009.89 281.891 709.31 368.033 637.053 368.115Z" fill="#8DA0D2"/>
<path d="M625.304 372.408L622.868 372.376C538.584 368.954 61.2949 335.132 0 321.442V318.85L0.0401084 318.858L0.117607 318.879C56.8809 332.26 538.792 366.502 623.026 369.877C623.709 369.906 624.474 369.92 625.304 369.92H625.386C682.463 369.92 1037.68 304.786 1114.43 278.764L1115.58 278.368L1116.33 279.169C1140.23 305.451 1241.2 321.295 1360.23 329.858C1405.23 333.134 1452.85 335.446 1500 337.057V339.553C1452.77 337.938 1405.05 335.623 1359.93 332.336C1241.73 323.619 1141.75 308.764 1114.53 281.432C1034.51 307.939 683.196 372.356 625.304 372.408Z" fill="#8DA0D2"/>
<path d="M613.571 376.71L611.807 376.69L295.68 362.178C164.445 355.646 35.5003 348.468 0 343.79V341.275C33.7047 345.81 164.033 353.145 295.88 359.691L611.949 374.189C612.396 374.212 612.937 374.212 613.571 374.212H613.664C656.912 374.212 1064 330.722 1114.7 313.483L1115.86 313.086L1116.61 313.888C1124.09 322.241 1152.76 329.596 1194.15 335.058C1235.57 340.584 1289.87 344.609 1349.4 347.504L1500 352.517V355.018C1385.83 352.602 1268.83 347.56 1193.62 337.503C1153.09 332.012 1124.78 325.412 1114.84 316.142C1058.12 333.96 657.11 376.648 613.571 376.71Z" fill="#8DA0D2"/>
<path d="M601.834 381C601.386 381 601.03 381 600.725 380.991L86.7757 368.367L0.000976562 365.108V362.601L86.9103 365.875L290.474 371.252L600.872 378.501C601.069 378.501 601.4 378.511 601.833 378.511C623.513 378.511 887.218 366.304 1028.43 356.533C1075.38 353.304 1109.26 350.201 1114.99 348.19L1116.14 347.803L1116.89 348.606C1118.13 350.201 1125.65 352.482 1137.5 354.179C1149.4 355.96 1165.79 357.532 1185.66 358.92C1225.42 361.701 1279.04 363.701 1338.59 365.148L1500 366.714V370.255C1349.34 368.776 1193.7 365.128 1136.91 356.628C1125.83 354.898 1118.57 353.293 1115.18 350.793C1106.24 353.085 1073.92 355.856 1028.71 359.01L860.104 369.064L601.834 381Z" fill="#8DA0D2"/>
</svg>
