<svg width="109" height="203" viewBox="0 0 109 203" fill="none" xmlns="http://www.w3.org/2000/svg">
<path d="M34 199C34 141.759 52.65 83.3643 80.5556 33.4444C85.9187 23.8503 94.5029 9.24855 105 4" stroke="#FFD400" stroke-width="8" stroke-linecap="round" stroke-linejoin="round"/>
<path d="M34 199C36.3997 188.921 44.3776 181.894 50.4444 173.944C55.9631 166.713 61.718 160.648 68.7778 155C70.5369 153.593 72.1064 151.084 74.2222 150.222C75.454 149.72 77.108 149.615 78 148.5C78.661 147.674 83.5254 148.263 81 147" stroke="#FFD400" stroke-width="8" stroke-linecap="round" stroke-linejoin="round"/>
<path d="M10.6511 144C9.29867 156.13 16.0884 167.265 20.1353 178.262C22.3228 184.206 28.5349 194.476 33.8214 197.899" stroke="#FFD400" stroke-width="8" stroke-linecap="round" stroke-linejoin="round"/>
</svg>
