<svg width="23" height="152" viewBox="0 0 23 152" fill="none" xmlns="http://www.w3.org/2000/svg">
<path d="M18.7073 1.79973C18.7073 15.4512 16.9129 28.911 15.3768 42.46C14.2206 52.6573 13.4081 62.9372 12.6938 73.1749C11.8298 85.5592 10.406 97.9337 9.98777 110.343C9.54669 123.428 9.54832 136.502 9.54832 149.592" stroke="#FFD400" stroke-width="3" stroke-linecap="round" stroke-linejoin="round"/>
<path d="M9.55988 149.731C12.3852 146.851 15.1739 143.912 17.9655 140.996C18.7749 140.151 19.4475 139.06 20.3812 138.349C20.61 138.174 21.2985 137.858 20.7912 137.858" stroke="#FFD400" stroke-width="3" stroke-linecap="round" stroke-linejoin="round"/>
<path d="M9.39944 149.892C8.06571 146.706 6.2937 143.74 4.71081 140.675C3.94592 139.194 3.12099 137.745 2.37541 136.254C2.23252 135.968 1.61503 134.887 1.69797 134.97" stroke="#FFD400" stroke-width="3" stroke-linecap="round" stroke-linejoin="round"/>
</svg>
