<?xml version="1.0" encoding="utf-8"?>
<!-- Generator: Adobe Illustrator 16.0.0, SVG Export Plug-In . SVG Version: 6.00 Build 0)  -->
<!DOCTYPE svg PUBLIC "-//W3C//DTD SVG 1.1//EN" "http://www.w3.org/Graphics/SVG/1.1/DTD/svg11.dtd">
<svg version="1.1" xmlns="http://www.w3.org/2000/svg" xmlns:xlink="http://www.w3.org/1999/xlink" x="0px" y="0px"
	 width="1500.01px" height="1500.008px" viewBox="0 0 1500.01 1500.008" enable-background="new 0 0 1500.01 1500.008"
	 xml:space="preserve">
<g id="podklad">
</g>
<g id="budovy">
</g>
<g id="silocary">
	<g>
		<rect x="-9.3" y="569.801" fill="none" width="1518.603" height="940.09"/>
		<path fill="#8DA0D2" d="M540.799,1491.825c-1.929,0-3.769-0.047-5.593-0.152c-207.42-13.969-789.94-153.66-930.878-208.891
			c-5.446-2.137-11.383-3.969-17.778-5.504v-6.227c6.86,1.607,13.241,3.551,19.12,5.855
			c140.098,54.998,723.229,194.811,929.786,208.668c1.711,0.096,3.494,0.145,5.344,0.145h0.208c12.749,0,28.037-2.762,45.413-7.85
			c-9.938,2.227-19.4,3.408-28.351,3.432c-2.208,0-4.401-0.049-6.58-0.199c-248.873-16.773-768.875-184.465-937.693-250.637
			c-8.475-3.324-17.571-6.033-27.245-8.145v-6.209c10.12,2.178,19.662,4.988,28.583,8.482
			c168.412,66.061,688.711,233.766,936.598,250.395c2.096,0.127,4.186,0.184,6.338,0.184h0.337c12.517,0,26.125-2.367,40.713-6.77
			c-8.017,1.535-15.945,2.328-23.771,2.344c-2.539,0-5.06-0.08-7.583-0.23c-290.341-19.549-747.776-215.258-944.484-292.385
			c-11.673-4.58-23.931-8.141-36.729-10.758v-6.193c13.242,2.668,25.938,6.33,38.043,11.078
			c196.73,77.178,654.188,272.732,943.403,292.158c2.45,0.154,4.894,0.217,7.352,0.217c0.081,0.008,0.161,0.008,0.242,0.008
			c12.806,0,25.932-2.225,39.38-6.402c-7.375,1.295-14.815,1.969-22.341,1.979c-2.854,0-5.696-0.098-8.573-0.273
			c-331.805-22.34-726.717-246.078-951.33-334.148c-14.995-5.873-30.395-10.285-46.177-13.344v-6.211
			c16.229,3.117,32.072,7.641,47.512,13.705c225.042,88.271,619.685,311.705,950.229,333.885c2.771,0.176,5.567,0.256,8.34,0.256
			h0.239c13.36,0,26.494-2.184,39.477-6.305c-7.302,1.229-14.781,1.873-22.453,1.889c-3.142,0-6.323-0.104-9.56-0.314
			c-373.273-25.119-705.618-276.918-958.129-375.875c-18.466-7.244-37.007-12.498-55.654-15.977v-6.188
			c19.088,3.512,38.074,8.869,56.974,16.291c253.359,99.438,585.166,350.674,957.034,375.65c3.149,0.191,6.25,0.271,9.335,0.271
			c0.089,0.01,0.177,0.01,0.266,0.01c13.938,0,27.217-2.17,39.998-6.268c-7.39,1.223-15.046,1.848-22.982,1.863
			c-3.47,0-6.989-0.104-10.556-0.328c-414.752-27.963-684.554-307.799-964.944-417.664c-22.042-8.66-43.719-14.75-65.123-18.582
			v-6.16c21.847,3.871,43.968,10.064,66.458,18.895c281.652,110.555,550.628,389.645,963.85,417.375
			c3.486,0.232,6.917,0.328,10.315,0.328h0.257c14.557,0,28.133-2.158,40.898-6.273c-7.561,1.229-15.44,1.855-23.684,1.855h-0.2
			c-3.775,0-7.615-0.096-11.552-0.385c-456.22-30.713-663.46-338.641-971.758-459.393c-25.719-10.09-50.521-17.021-74.585-21.168
			v-6.176c24.503,4.178,49.748,11.213,75.921,21.498c309.969,121.719,516.104,428.621,970.654,459.131
			c3.854,0.258,7.624,0.377,11.318,0.377c18.814-0.016,35.652-3.309,50.915-9.51c13.056-10.09,26.085-21.797,39.171-34.857
			c16.035-17.424,31.627-37.766,47.182-60.34c11.133-18.73,21.938-39.242,32.713-61.107c18.572-45.982,35.909-98.789,55.316-154.619
			c61.175-175.908,143.42-382.189,352.548-500.232l1.686-0.972l1.084,1.968c154.523,279.085,368.885,420.582,567.648,490.439v6.354
			c-199.374-69.801-414.667-211.396-570.284-491.225c-246.626,140.276-314.356,403.805-382.624,594.702l28.021-61.504
			c72.945-159.881,164.774-347.273,354.876-454.61l1.704-0.948l1.083,1.968c144.03,260.211,362.677,388.842,567.224,450.563v6.322
			c-205.029-61.633-424.533-190.297-569.882-451.293c-187.558,106.7-278.317,291.829-351.02,451.139l-53.562,115.441l-1.221,3.004
			l48.899-82.053c84.715-143.879,186.103-312.361,357.198-408.965l1.687-0.947l1.103,1.969
			c132.75,239.932,356.15,355.564,566.796,409.471v6.256c-210.988-53.783-435.14-169.385-569.473-410.16
			c-168.821,96.07-269.223,262.766-353.646,406.137l-65.931,109.182l-5.993,12.621l66.42-86.021
			c96.448-127.834,207.392-277.457,359.455-363.328l1.693-0.971l1.103,1.992c120.687,218.252,349.314,320.799,566.37,367.199v6.232
			c-217.225-46.23-446.457-148.648-569.047-367.865c-150.128,85.389-260.187,233.66-356.28,361.088l-81.7,104.615l-1.454,2.588
			l-9.158,15.15l87.181-87.113c108.192-111.842,228.688-242.633,361.702-317.734l1.694-0.977l1.101,1.961
			c107.856,195.211,342.216,284.656,565.962,323.914v6.193c-223.69-39.059-458.427-128.252-568.619-324.531
			c-131.506,74.773-251.188,204.547-358.973,315.994c-36.6,37.789-71.805,73.506-105.664,104.242
			c-7.365,9.262-15.158,17.594-23.465,24.877c148.377-103.291,333.604-278.977,488.375-366.508l1.709-0.973l1.086,1.969
			c94.246,170.791,334.85,247.141,565.552,279.645v6.188c-230.392-32.23-471.078-108.18-568.212-280.256
			c-186.479,105.744-416.379,339.559-574.837,419.586c165.15-73.867,426.034-256.73,575.126-341.002l1.688-0.973l1.084,1.99
			c79.884,145.068,327.226,208.402,565.149,234.529v6.129c-237.268-25.787-484.303-88.529-567.785-235.082
			C1034.979,1226.844,668.223,1491.551,540.799,1491.825"/>
		<rect x="-9.3" y="569.801" fill="none" width="1518.603" height="940.09"/>
		<path fill="#8DA0D2" d="M523.51,1502.381c-1.591,0-3.117-0.049-4.579-0.145c-165.967-11.201-811.04-122.855-924.064-167.111
			c-2.56-1.012-5.336-1.936-8.316-2.771v-6.26c3.456,0.936,6.677,1.986,9.653,3.152c111.786,43.9,757.729,155.812,922.97,166.877
			c1.355,0.105,2.812,0.127,4.337,0.127h0.152c104.465,0,550.424-212.836,701.525-298.264l1.719-0.973l1.076,1.992
			c47.791,86.865,199.91,138.006,375.078,166.195c61.521,9.969,125.895,17.215,189.646,22.412v6.139
			c-63.923-5.207-128.486-12.469-190.217-22.469c-174.267-28.424-325.81-77.82-377.144-166.732
			C1071.871,1290.838,629.784,1502.18,523.51,1502.381"/>
		<rect x="-9.3" y="569.801" fill="none" width="1518.603" height="940.09"/>
		<path fill="#8DA0D2" d="M506.23,1512.913l-3.583-0.078c-123.963-8.396-825.947-91.375-916.098-124.963v-6.359l0.059,0.021
			l0.114,0.051c83.486,32.83,792.269,116.838,916.158,125.119c1.004,0.072,2.129,0.104,3.35,0.104h0.121
			c83.948,0,606.392-159.801,719.271-223.643l1.688-0.971l1.102,1.967c35.162,64.479,183.658,103.35,358.729,124.359
			c66.18,8.039,136.229,13.711,205.567,17.662v6.125c-69.465-3.963-139.652-9.643-206.001-17.707
			c-173.857-21.385-320.902-57.832-360.934-124.889C1108.077,1354.743,591.376,1512.784,506.23,1512.913"/>
		<rect x="-9.3" y="569.801" fill="none" width="1518.603" height="940.09"/>
		<path fill="#8DA0D2" d="M488.974,1523.467l-2.595-0.047l-464.952-35.604c-193.017-16.027-382.665-33.637-434.878-45.115v-6.17
			c49.572,11.127,241.255,29.121,435.173,45.182l464.866,35.57c0.658,0.057,1.453,0.057,2.385,0.057h0.137
			c63.608,0,662.336-106.699,736.918-148.994l1.704-0.975l1.092,1.969c11.007,20.492,53.175,38.537,114.044,51.938
			c60.926,13.559,140.783,23.432,228.349,30.535l221.489,12.299v6.137c-167.914-5.928-339.99-18.299-450.609-42.971
			c-59.617-13.473-101.254-29.666-115.873-52.408C1142.805,1418.584,553.009,1523.317,488.974,1523.467"/>
		<rect x="-9.3" y="569.801" fill="none" width="1518.603" height="940.09"/>
		<path fill="#8DA0D2" d="M471.711,1533.993c-0.659,0-1.182,0-1.631-0.023L-285.824,1503l-127.626-7.996v-6.152l127.824,8.033
			l299.396,13.191l456.526,17.787c0.289,0,0.777,0.023,1.414,0.023c31.885,0,419.736-29.949,627.425-53.922
			c69.054-7.92,118.885-15.535,127.312-20.469l1.693-0.947l1.102,1.969c1.824,3.912,12.879,9.51,30.311,13.674
			c17.499,4.369,41.607,8.225,70.83,11.631c58.476,6.822,137.348,11.729,224.927,15.279l237.396,3.842v8.689
			c-221.586-3.631-450.496-12.58-534.021-33.434c-16.291-4.244-26.976-8.18-31.964-14.316
			c-13.145,5.623-60.678,12.422-127.178,20.162l-247.976,24.664L471.711,1533.993"/>
	</g>
</g>
</svg>
