<?xml version="1.0" encoding="utf-8"?>
<!-- Generator: Adobe Illustrator 16.0.0, SVG Export Plug-In . SVG Version: 6.00 Build 0)  -->
<!DOCTYPE svg PUBLIC "-//W3C//DTD SVG 1.1//EN" "http://www.w3.org/Graphics/SVG/1.1/DTD/svg11.dtd">
<svg version="1.1" xmlns="http://www.w3.org/2000/svg" xmlns:xlink="http://www.w3.org/1999/xlink" x="0px" y="0px"
	 width="1500.01px" height="1500.008px" viewBox="0 0 1500.01 1500.008" enable-background="new 0 0 1500.01 1500.008"
	 xml:space="preserve">
<g id="podklad">
</g>
<g id="budovy">
	<g>
		<rect x="761.644" y="314.33" fill="none" width="625.912" height="1195.561"/>
		<path fill="#248BCB" d="M868.857,686.104v808.959h34.756V709.757l-26.886-33.417L868.857,686.104 M910.167,1495.063h14.045
			V735.367l-14.045-17.46V1495.063 M942.445,1495.063h11.413V772.19l-11.413-14.199V1495.063 M1008.219,1495.063h3.669V844.309
			l-3.669-4.578V1495.063 M976.165,1495.063h5.883V807.219l-5.883-7.316V1495.063 M852.307,1495.063h5.964V699.271l-5.964,7.424
			V1495.063 M819.594,1495.063h9.495V735.53l-9.495,11.828V1495.063 M751.076,1495.063h22.727V804.25l-22.727,28.232V1495.063
			 M787.035,1495.063h12.701V772.008l-12.701,15.773V1495.063"/>
		<rect x="761.644" y="314.33" fill="none" width="625.912" height="1195.561"/>
		<path fill="#248BCB" d="M868.857,890.096v1474.428h34.756V913.752l-26.886-33.414L868.857,890.096 M910.167,2364.524h14.045
			V939.342l-14.045-17.438V2364.524 M942.445,2364.524h11.413V976.168l-11.413-14.166V2364.524 M1008.219,2364.524h3.669V1048.272
			l-3.669-4.578V2364.524 M976.165,2364.524h5.883V1011.198l-5.883-7.301V2364.524 M852.307,2364.524h5.964V903.249l-5.964,7.41
			V2364.524 M819.594,2364.524h9.495V939.491l-9.495,11.846V2364.524 M751.076,2364.524h22.727V1008.208l-22.727,28.238V2364.524
			 M787.035,2364.524h12.701V975.991l-12.701,15.771V2364.524"/>
		<rect x="761.644" y="314.33" fill="none" width="625.912" height="1195.561"/>
		<polyline fill="#238BCB" points="1011.887,2366.987 1008.219,2366.987 1008.219,2364.524 1011.887,2364.524 1011.887,1119.543 
			1011.887,2366.987 		"/>
		<rect x="761.644" y="314.33" fill="none" width="625.912" height="1195.561"/>
		<polyline fill="#0094D6" points="1011.887,2364.524 1008.219,2364.524 1008.219,1115 1011.887,1119.543 1011.887,2364.524 		"/>
		<rect x="761.644" y="314.33" fill="none" width="625.912" height="1195.561"/>
		<polyline fill="#238BCB" points="982.047,2366.987 976.165,2366.987 976.165,2364.524 982.047,2364.524 982.047,1082.467 
			982.047,2366.987 		"/>
		<rect x="761.644" y="314.33" fill="none" width="625.912" height="1195.561"/>
		<polyline fill="#0094D6" points="982.047,2364.524 976.165,2364.524 976.165,1075.168 982.047,1082.467 982.047,2364.524 		"/>
		<rect x="761.644" y="314.33" fill="none" width="625.912" height="1195.561"/>
		<polyline fill="#238BCB" points="953.858,2366.987 942.445,2366.987 942.445,2364.524 953.858,2364.524 953.858,1047.438 
			953.858,2366.987 		"/>
		<rect x="761.644" y="314.33" fill="none" width="625.912" height="1195.561"/>
		<polyline fill="#0094D6" points="953.858,2364.524 942.445,2364.524 942.445,1033.278 953.858,1047.438 953.858,2364.524 		"/>
		<rect x="761.644" y="314.33" fill="none" width="625.912" height="1195.561"/>
		<polyline fill="#238BCB" points="924.212,2366.987 910.167,2366.987 910.167,2364.524 924.212,2364.524 924.212,1010.633 
			924.212,2366.987 		"/>
		<rect x="761.644" y="314.33" fill="none" width="625.912" height="1195.561"/>
		<polyline fill="#0094D6" points="924.212,2364.524 910.167,2364.524 910.167,993.176 924.212,1010.633 924.212,2364.524 		"/>
		<rect x="761.644" y="314.33" fill="none" width="625.912" height="1195.561"/>
		<polyline fill="#238BCB" points="903.613,2366.987 868.857,2366.987 868.857,2364.524 903.613,2364.524 903.613,985.026 
			903.613,2366.987 		"/>
		<rect x="761.644" y="314.33" fill="none" width="625.912" height="1195.561"/>
		<polyline fill="#0094D6" points="903.613,2364.524 868.857,2364.524 868.857,961.387 876.727,951.586 903.613,985.026 
			903.613,2364.524 		"/>
		<rect x="761.644" y="314.33" fill="none" width="625.912" height="1195.561"/>
		<polyline fill="#238BCB" points="858.271,2366.987 852.307,2366.987 852.307,2364.524 858.271,2364.524 858.271,974.54 
			858.271,2366.987 		"/>
		<rect x="761.644" y="314.33" fill="none" width="625.912" height="1195.561"/>
		<polyline fill="#0094D6" points="858.271,2364.524 852.307,2364.524 852.307,981.95 858.271,974.54 858.271,2364.524 		"/>
		<rect x="761.644" y="314.33" fill="none" width="625.912" height="1195.561"/>
		<polyline fill="#238BCB" points="829.089,2366.987 819.594,2366.987 819.594,2364.524 829.089,2364.524 829.089,1010.782 
			829.089,2366.987 		"/>
		<rect x="761.644" y="314.33" fill="none" width="625.912" height="1195.561"/>
		<polyline fill="#0094D6" points="829.089,2364.524 819.594,2364.524 819.594,1022.608 829.089,1010.782 829.089,2364.524 		"/>
		<rect x="761.644" y="314.33" fill="none" width="625.912" height="1195.561"/>
		<polyline fill="#238BCB" points="799.736,2366.987 787.035,2366.987 787.035,2364.524 799.736,2364.524 799.736,1047.276 
			799.736,2366.987 		"/>
		<rect x="761.644" y="314.33" fill="none" width="625.912" height="1195.561"/>
		<polyline fill="#0094D6" points="799.736,2364.524 787.035,2364.524 787.035,1063.053 799.736,1047.276 799.736,2364.524 		"/>
		<rect x="761.644" y="314.33" fill="none" width="625.912" height="1195.561"/>
		<polyline fill="#238BCB" points="773.802,2366.987 751.076,2366.987 751.076,2364.524 773.802,2364.524 773.802,1079.516 
			773.802,2366.987 		"/>
		<rect x="761.644" y="314.33" fill="none" width="625.912" height="1195.561"/>
		<polyline fill="#0094D6" points="773.802,2364.524 751.076,2364.524 751.076,1107.733 773.802,1079.516 773.802,2364.524 		"/>
		<rect x="761.644" y="314.33" fill="none" width="625.912" height="1195.561"/>
		<path fill="#248BCB" d="M1194.126,327.532v1093.955h47.012V359.519l-36.365-45.189L1194.126,327.532 M1250.001,1421.487h18.988
			V394.131l-18.988-23.6V1421.487 M1293.652,1421.487h15.413V443.919l-15.413-19.179V1421.487 M1382.598,1421.487h4.958V541.454
			l-4.958-6.193V1421.487 M1339.249,1421.487h7.948V491.303l-7.948-9.89V1421.487 M1171.751,1421.487h8.068V345.337l-8.068,10.015
			V1421.487 M1127.501,1421.487h12.854V394.366l-12.854,15.992V1421.487 M1034.852,1421.487h30.723V487.282l-30.723,38.18V1421.487
			 M1083.472,1421.487h17.171V443.704l-17.171,21.318V1421.487"/>
		<rect x="761.644" y="314.33" fill="none" width="625.912" height="1195.561"/>
		<path fill="#248BCB" d="M1194.126,599.205v1759.438h47.012V631.191l-36.365-45.19L1194.126,599.205 M1250.001,2358.643h18.988
			V665.82l-18.988-23.616V2358.643 M1293.652,2358.643h15.413V715.592l-15.413-19.162V2358.643 M1382.598,2358.643h4.958V813.106
			l-4.958-6.172V2358.643 M1339.249,2358.643h7.948V762.975l-7.948-9.887V2358.643 M1171.751,2358.643h8.068V617.009l-8.068,9.998
			V2358.643 M1127.501,2358.643h12.854V666.019l-12.854,16.013V2358.643 M1034.852,2358.643h30.723V758.956l-30.723,38.176V2358.643
			 M1083.472,2358.643h17.171V715.358l-17.171,21.336V2358.643"/>
		<rect x="761.644" y="314.33" fill="none" width="625.912" height="1195.561"/>
		<path fill="#238BCB" d="M1387.556,2366.987h-4.958v-8.344h4.958V914.512V2366.987 M1347.197,2366.987h-7.948v-8.344h7.948V864.375
			V2366.987 M1309.065,2366.987h-15.413v-8.344h15.413V817.014V2366.987 M1268.99,2366.987h-18.987v-8.344h18.987V767.206V2366.987
			 M1241.137,2366.987h-47.012v-8.344h47.012V732.594V2366.987 M1179.819,2366.987h-8.068v-8.344h8.068V718.413V2366.987
			 M1140.354,2366.987h-12.854v-8.344h12.854V767.422V2366.987 M1100.643,2366.987h-17.171v-8.344h17.171V816.76V2366.987
			 M1065.575,2366.987h-30.723v-8.344h30.723V860.356V2366.987"/>
		<rect x="761.644" y="314.33" fill="none" width="625.912" height="1195.561"/>
		<path fill="#0094D6" d="M1387.556,2358.643h-4.958V908.356l4.958,6.156V2358.643 M1347.197,2358.643h-7.948V854.508l7.948,9.867
			V2358.643 M1309.065,2358.643h-15.413V797.852l15.413,19.162V2358.643 M1268.99,2358.643h-18.987V743.607l18.987,23.598V2358.643
			 M1241.137,2358.643h-47.012V700.609l10.646-13.223l36.365,45.207V2358.643 M1179.819,2358.643h-8.068V728.428l8.068-10.015
			V2358.643 M1140.354,2358.643h-12.854V783.434l12.854-16.012V2358.643 M1100.643,2358.643h-17.171V838.12l17.171-21.359V2358.643
			 M1065.575,2358.643h-30.723V898.538l30.723-38.182V2358.643"/>
	</g>
</g>
<g id="silocary">
</g>
</svg>
