<svg width="785" height="239" viewBox="0 0 785 239" fill="none" xmlns="http://www.w3.org/2000/svg">
<path d="M661.953 237.326V235.642H661.216V45.5216H661.953V39.1929H658.767V28.8847H655.217V21.9035H653.095C652.753 18.7247 650.485 16.0643 647.466 15.3177V0H644.037V15.3177C641.023 16.0643 638.756 18.7247 638.414 21.9035H636.285V28.8847H632.734V39.1929H629.549V45.5216H630.294V235.642H629.549V237.326H626.889V235.642H625.588V195.102H618.586V170.535H614.31V97.0135H612.619V91.8539L604.462 84.4082V71.9091H601.802V84.4052L593.628 91.8529V97.0125H591.938V170.535H587.661V195.102H580.652V235.642H579.358V237.326H579.025V235.642H578.29V71.2115H579.025V64.8858H573.706V62.2004H567.505V62.1444H571.47L562.827 54.3955L554.181 62.1444H558.146V62.2004H551.944V64.8858H546.624V71.2115H547.359V235.642H546.624V237.326H544.685V236.682L543.098 236.68V147.264H539.872V142.317H541.877V138.45H499.696V142.317H501.696V147.264H498.475V236.651H496.893V237.326H493.975V235.642H492.562V108.982L465.761 127.769V235.642H464.347V237.326H0L465.964 238.999V237.316H467.377V128.657L490.945 112.137V237.316H492.358V239H498.51V238.327H500.09V148.939H503.311V140.644H501.312V140.124H540.26V140.644H538.254V148.939H541.48V238.352L543.066 238.354V239H548.24V237.316H548.975V69.538H548.24V66.5593H553.559V63.8739H559.761V60.4709H558.518L562.825 56.6115L567.132 60.4709H565.889V63.8739H572.09V66.5593H577.41V69.538H576.675V237.316H577.41V238.999H580.976V237.316H582.27V196.775H589.279V172.208H593.557V98.687H595.245V92.6105L603.131 85.4241L611.004 92.6095V98.687H612.694V172.209H616.97V196.775H623.971V237.316H625.273V238.999H631.166V237.316H631.912V43.8481H631.166V40.8664H634.352V30.5572H637.902V23.577H639.987V22.7403C639.987 19.7836 642.124 17.2464 644.958 16.839L645.656 16.7389V1.67349H645.85V16.7389L646.547 16.839C649.386 17.2474 651.526 19.7836 651.526 22.7403V23.577H653.602V30.5572H657.152V40.8664H660.338V43.8481H659.601V237.316H660.338V238.999L785 237.326H661.953Z" fill="#0064B0"/>
</svg>
