<svg width="246" height="239" viewBox="0 0 246 239" fill="none" xmlns="http://www.w3.org/2000/svg">
<path d="M221.953 237.326V235.642H221.216V45.5216H221.953V39.1929H218.767V28.8847H215.217V21.9035H213.095C212.753 18.7247 210.485 16.0643 207.466 15.3177V0H204.037V15.3177C201.023 16.0643 198.756 18.7247 198.414 21.9035H196.285V28.8847H192.734V39.1929H189.549V45.5216H190.294V235.642H189.549V237.326H186.889V235.642H185.588V195.102H178.586V170.535H174.31V97.0135H172.619V91.8539L164.462 84.4082V71.9091H161.802V84.4052L153.628 91.8529V97.0125H151.938V170.535H147.661V195.102H140.652V235.642H139.358V237.326H139.025V235.642H138.29V71.2115H139.025V64.8858H133.706V62.2004H127.505V62.1444H131.47L122.827 54.3955L114.181 62.1444H118.146V62.2004H111.944V64.8858H106.624V71.2115H107.359V235.642H106.624V237.326H104.685V236.682L103.098 236.68V147.264H99.8719V142.317H101.877V138.45H59.6963V142.317H61.6959V147.264H58.475V236.651H56.893V237.326H53.9747V235.642H52.562V108.982L25.7614 127.769V235.642H24.3467V237.326L5 238.999L0 239L25.9635 238.999V237.316H27.3773V128.657L50.9452 112.137V237.316H52.3579V239H58.5098V238.327H60.0898V148.939H63.3109V140.644H61.3121V140.124H100.26V140.644H98.2542V148.939H101.48V238.352L103.066 238.354V239H108.24V237.316H108.975V69.538H108.24V66.5593H113.559V63.8739H119.761V60.4709H118.518L122.825 56.6115L127.132 60.4709H125.889V63.8739H132.09V66.5593H137.41V69.538H136.675V237.316H137.41V238.999H140.976V237.316H142.27V196.775H149.279V172.208H153.557V98.687H155.245V92.6105L163.131 85.4241L171.004 92.6095V98.687H172.694V172.209H176.97V196.775H183.971V237.316H185.273V238.999H191.166V237.316H191.912V43.8481H191.166V40.8664H194.352V30.5572H197.902V23.577H199.987V22.7403C199.987 19.7836 202.124 17.2464 204.958 16.839L205.656 16.7389V1.67349H205.85V16.7389L206.547 16.839C209.386 17.2474 211.526 19.7836 211.526 22.7403V23.577H213.602V30.5572H217.152V40.8664H220.338V43.8481H219.601V237.316H220.338V238.999L246 237.316L221.953 237.326Z" fill="#0064B0"/>
</svg>
